<?xml version="1.0" encoding="UTF-8"?><svg id="Layer_15" xmlns="http://www.w3.org/2000/svg" width="1280" height="1024" viewBox="0 0 1280 1024"><defs><style>.cls-1{fill:#f9c7bd;}.cls-2{fill:#f1f0f2;}.cls-3{stroke:#2a2a2b;}.cls-3,.cls-4,.cls-5,.cls-6,.cls-7,.cls-8{fill:none;}.cls-3,.cls-4,.cls-6{stroke-miterlimit:10;}.cls-9{fill:#fccf86;}.cls-10{fill:#584168;}.cls-11{fill:#aea3e5;}.cls-12{fill:#28282b;}.cls-13{fill:#7062b2;}.cls-14{fill:#d6b4b4;}.cls-4{stroke:#342f47;}.cls-5{stroke:#ffc865;stroke-width:1.5px;}.cls-5,.cls-7,.cls-8{stroke-linecap:round;stroke-linejoin:round;}.cls-15{fill:#e5d0c6;}.cls-16{fill:#5d4896;}.cls-17{fill:#d4e0f0;}.cls-18{fill:#ded7d7;}.cls-19{fill:#1f1f21;}.cls-20{fill:#e5d3a1;}.cls-21{fill:#ffcf83;}.cls-22{fill:#fce8db;}.cls-23{fill:#ffc865;}.cls-24{fill:#313133;}.cls-25{fill:#ffd89f;}.cls-26{fill:#6352a0;}.cls-27{fill:#ffebae;}.cls-28{fill:#f4ede4;}.cls-29{fill:#c6c6c6;}.cls-6{stroke:#ce9841;}.cls-30{fill:#b0c0d1;}.cls-7{stroke:#543787;}.cls-31{fill:#9b88d9;}.cls-32{fill:#f9d5a0;}.cls-8{stroke:#584168;}</style></defs><path class="cls-11" d="M1073.78,397.66c4.97-16.98,10.37-34.38,12.68-52.18,8.24-59.2-16.13-105.85-78.36-118.12-41.28-8.81-87.19-5.06-128.84-12.61-19.65-3.4-38.62-9.11-56.74-17.33-42.06-18.82-76.44-49.59-116.57-73.06-23.32-13.56-47.95-24.87-73.93-31.32-91.48-24.05-138.07,44.72-173.23,117.86-17.07,35.87-29.53,78.67-45.18,112.56-20.27,44.68-50.08,71.4-100.18,72.54-31.61,1.1-63.87-6.3-95.53-8.29-58.28-4.59-105.98,14.61-126.31,73.16-25.17,73.2,19.34,139.6,65.92,196.15,26.38,32.64,55.44,67.04,79.1,102.07,17.68,25.99,33.07,52.84,45.92,80.7,6.65,14.41,12.48,28.31,18.05,42.65,14.17,35.44,20.15,59.11,48.55,78.22,55.31,34.9,125.76,29.33,186.69,9.48,45.49-14.58,88.54-35.55,134.29-50.19,41.31-13.68,85.12-23.05,128.01-27.62,21.82-2.3,42.53-3.65,63.92-3.49,27.12.09,43.17,3.66,65.77,3.41,36.21-.57,69.42-19.17,94.45-45.48,54.38-57.94,53.61-142.77,50.36-218.13-1.4-35.69-3.34-71.93-5.14-107.35-1.33-29.42-4.55-66.27-.79-91.96,1.45-10.79,4.03-20.99,7.07-31.54l.04-.12Z"/><path class="cls-31" d="M483.74,233.59c-28.7-.37-55.1-10.57-84.02-9.61-52.95.28-100.73,34.83-122.78,82.42-11.59,23.76-18.17,49.6-24.17,75.23-8.66,37.4-16.38,74.38-28.86,110.53-10.56,31.88-29.51,74.2-44.97,98.35-11.33,18.57-19.23,25.34-30.54,40.76-26.03,40.21-46.36,91.34-40.05,147.7,4.75,40.89,25.42,86.59,57.65,110.86,13.67,10.01,29.56,14.39,46.28,16.22,35.29,3.29,76.1-.94,113.52-10.55,35.19-9.1,67.54-24.39,102.89-26.91,33.28-2.37,67.46,4.16,95.84,21.15,17.55,10.92,29.96,24.89,47.65,38.23,13.77,10.49,28.38,19.78,44.19,27.83,107.22,55.39,206.13,26.28,262.79-80.96,12.49-22.93,22.38-42.68,40.31-60.91,22.06-22.89,50.76-39.98,80.16-52.89,30.43-13.78,65.59-22.29,92.07-38.39,37.11-22.68,58.3-64.09,63.94-106.8,11.56-92.98-36.92-174.13-107.24-230.36-5.63-4.55-11.32-8.68-17.16-12.47-13.7-8.9-23.48-12.18-33.07-23.38-19.78-23.11-32.63-60.53-36.26-94.85-5.72-47.59-1.84-101.73-21.84-147.24-27.46-67.3-110.56-86.51-171.2-54.2-42.49,22.77-70.09,67.82-108.48,101.18-47.32,42.92-112.31,78.77-176.49,79.06h-.14Z"/><polygon class="cls-17" points="516.34 494.2 514.61 494.73 513.18 496.49 517.95 499.41 515.06 519.32 512.37 529.68 506.56 543.82 500.46 550.24 494.99 552.93 488.98 552.1 485.16 548.01 481.23 540.34 478.54 531.14 476.36 519.44 468.79 522.25 463.57 523.41 472.6 542.58 484.55 564.15 491.67 574.8 501.01 585.6 504.01 588.1 541.3 608.41 566.57 619.26 585.18 626.49 613.03 636.27 640.79 644.75 669.18 652.01 706.63 659.42 736.19 663.3 757.94 665.57 777.07 668.63 794.78 672.27 810.83 676.25 815.02 673.19 819.29 667.36 822.24 661.31 824.16 652.21 825.07 638.16 824.93 630.49 823.46 619.47 820.52 608.78 815.38 596.12 806.76 577.57 798.52 557.98 796.51 549.65 796.45 541.45 796.48 526.45 793.57 511.26 789.68 502.99 784.99 499.03 780.14 504.64 771.52 513.41 763.05 520.26 752.95 527.07 743.62 532.12 730.76 537.98 708.05 546.64 698.05 548.98 697.62 549.41 683.81 545.69 677.62 544.93 671.76 545.26 664.33 548.07 649.48 550.93 635.91 550.69 625.71 547.64 615.95 542.31 609.05 534.3 596.77 523.07 579.87 509.26 564.19 498.49 555.86 493.87 549.36 491.04 540 488.59 529.09 488.16 523.86 490.43 516.34 494.2"/><path class="cls-30" d="M698.95,549.02l12.96-3.75s-1.11,5.54,21.99,10.61l-35.99-6.36,1.04-.51Z"/><polygon class="cls-30" points="517.95 498.93 525.96 494.76 530.27 490.08 534.12 488.89 529.09 488.16 522.39 491.32 514.26 495.16 513.51 496.13 517.95 498.93"/><path class="cls-30" d="M465.49,527.48s5.34-5.37,11.58-3.43l-.71-5.04-6.7,2.55-6.17,1.69,2,4.24Z"/><path class="cls-30" d="M541.45,607.97l6.78,3.57,6.62,2.86s-6.42-10.74,4.41-84.64l-4.12,25.52-4,17.81-4.76,18.86-3.81,11.33-1.12,4.69Z"/><path class="cls-27" d="M515.06,495.1l11.35-5.86,15.62-5.74,14.88-4.59,12.72-2.78h8.1l12.16,2.58,15.95,5.43,21.92,8.47,19.54,6.01,15.01,2.7,16.98.89,14.22-1.71,14.86-3.98,12.47-4.62,12.61-8.02,6.28-6.58,2.79-6.25.63-4.95-.02-2.07,9.85-4,6.99-3.7,13.52-8.94,10.53-8.75,6.83-7.51,7.88-10.09,6.89-11.09,5.51-11.32,2.19-5.96,3.43-10.05,2.86-13.51s.41-1.93-.54-4.6c0,0-2.25,10.63-9.52,13.59l3.21-6.78,4.44-13.92,1.05-10.41-1.07-7.11-2.59-8.09-5.1-8.47-6.79-7.6-7.18-5.72-3.44-1.19,2.96,7.83,3.11,10.44,1.43,12.67-1.11,11.9-3.94,10.54-6.98,9.43-3.97,3.05-6.95,4.79-5.62,3.27s9.7-10.8,11.56-19.65l2.6-8.76-.75-9.64-2.08-5.79-4.91-5.66-4.95-3.86-5.8-3.15-6.48-1.82,6.57,5.13,4.92,4.98,2.1,4.86.32,5.49-2.29,4.79-4.98,6.06-7.68,6-11.9,6.17-13.27,5.32-14.25,4.94-16.82,4.05-16.25,2.87h-13.08l-8.21-.52-10.4-.89-9.3-.89-17.62-1.87-18.7-3.25-15.61-2.91s-34.11-12.19-64.48-2.45l-35.33-6.89-22.96,13.1-16.21,11.46-12.37,11.15-8.95,12.55-5.01,10.07-2.04,7.05-2.59,8.97-.81,15.7,2.64,4.8,3.45,3.49,3.67,1.95.64.16.25-5.33-.95-5.78,82.38,40.41Z"/><path class="cls-27" d="M611.6,348.84s-4.12,11.23-29.74,15.19l21.81,1.43,20.84,3.51,10.66,2.34,14.25,2.3,18.17,1.1,12.55-.82,9.33-1.76,8.2-2.72,7.77-4.29,5.55-5.72,1.39-3.22s3.91,18-12.15,26.48l-32.73,11.9-95.33-14.29-48.95-7.43-29.02-7.05,14.71-7.02,20.63-6.11,16.83-2.97,16.21-1.69,14.86-.74,12.88,1.69,11.5,2.19,4.29.14,3.93-.67,1.6-1.8Z"/><path class="cls-20" d="M610.8,464.53s72.07,28.61,131.21.23c0,0-25.34,15.71-131.21-.23Z"/><path class="cls-20" d="M666.94,422.4s102.74,8.82,142.28-44.46c0,0-29.24,64.11-142.28,44.46Z"/><path class="cls-20" d="M734.1,393.61s70.75-6.18,65.18-56.47c0,0,16.72,50.76-65.18,56.47Z"/><path class="cls-20" d="M593.52,375.5s98.39,19.98,118.61-8.4c0,0-.04,11.19-13.18,16.19l-19.24,1.86-8.98-.1-16.3-1.26-16.53-1.59-14.51-1.61-11.04-1.73-18.83-2.97v-.4Z"/><path class="cls-20" d="M784.45,345.13s2.67,28.36-17.65,39.64l-8.25,3.17-10.07,2.83-11.52,2.09-3.2.34s46.2-5.41,50.7-48.08Z"/><path class="cls-20" d="M536.38,369.29l12.45-2.49,10.76-1.63s4.26-.89,13.26-1.02,10.48-.11,10.48-.11c0,0,15.05-2.3,23.71-9.67-1.5,1.05-14.51,6.07-29.33,6.16-17.65.11-35.31,5.83-41.33,8.75Z"/><path class="cls-20" d="M503.71,472.82l.84,4.5s22.33-7.68,22.92-13.49l-7.32,4.63-7.71,3.11-8.73,1.25Z"/><path class="cls-20" d="M514.67,495.16l3.28-7.3.6-5.34-1.25-4.24s5.04,1.97,1.25,14.32l-3.88,2.57Z"/><path class="cls-20" d="M512.43,415.75s-42.63,6.44-44.97,14.99l4.08-4.44,3.78-2.66,5.27-2.6,5.78-1.86,6.73-1.25,6.45-.63,6.5-.27,6.37-1.27Z"/><path class="cls-20" d="M457.94,423.24l3.08-6.68,4.51-4.52,6.44-3.68,7.57-2.23,5.63-.74s-22.29,5.56-27.24,17.84Z"/><polygon class="cls-20" points="423.54 456.07 426.23 456.56 429.27 456.32 432.65 454.8 433.4 459.05 433.66 463.83 433.38 465.8 430.32 464.91 426.66 461.51 424.64 458.41 423.54 456.07"/><path class="cls-22" d="M476.36,519.6l1.87,10.47,2.64,9.3,3.39,7.29,3.95,4.59,5.23,1.83,2.96-.55,4.26-2.41,4.52-4.86,3.02-5.02,2.54-5.78,1.89-5.56,2.17-8.4,1.03-6.52,1.17-6.09.6-5.07.34-3.89-4.77-2.44,3.38-5.25,1.65-4.65.59-7.02-4.12-2.79-4.76-.38-5.32,1.2-.78-4.78-7.17-.89-6.29-2.69-5.88-4.68-4.12-4.99-4.43-7.61-4.94-12.9s-6.26-17.02-16.68-13.78c0,0-3.15-2.77-8.19,3.76s-6.04,14.38-6.04,14.38l-2.8,5.57-3.06,4.22-1.28,1.36.82,10.77-.62,4.77-2.38,7.85-.72,6.68v7.12l1.48,8.51,3.36,10.11,4.78,7.67,7.08,5.7,7.56.78,10.94-1.53,10.27-3.38.85-.03Z"/><polygon class="cls-22" points="544.76 489.57 537.79 488.36 530.33 490.43 525.29 494.58 523.04 502.7 518.51 527.41 512.4 555.89 507.6 575.62 503.63 591.84 501.76 600.92 498.83 610.15 488.7 620.14 461.14 642.98 426.03 671.02 420.92 668.67 411 663.72 403.66 663.5 399.63 665.76 391.64 662.97 384.69 663.25 380.24 665.85 377.43 668.56 371.86 667.68 365.03 667.09 358.3 667.09 353.98 669.8 351.52 672.52 352.45 675.14 355.98 675.34 361.22 674.14 363.95 674 361.03 675.14 358.56 676.71 357.18 678.83 358.15 680.71 360.42 680.97 365.28 679.82 369.41 679.56 369.85 684.23 370.55 685.63 367.13 686.71 364.92 689.15 364.42 690.71 364.86 691.58 366.35 692.09 369.41 691.79 375.96 692.31 381.96 693.47 386.56 694.98 394.63 697.41 401.92 698.42 410.23 698.21 420.92 695.79 430.06 690.83 471.52 666.83 506.83 646.92 520.61 637.28 531.29 627.95 536.38 621.08 539.57 613.27 546.26 592.3 552.17 568.82 556.76 546.8 559.06 528.29 559.06 516.48 557.79 506.81 555.15 498.93 551.7 493.57 547.11 490.26 544.76 489.57"/><polygon class="cls-22" points="459.44 524.55 457.67 525.84 415.91 551.16 382.21 571.6 332.08 589.7 292.22 604.01 287.01 606.74 279.57 607.97 271.77 605.62 264.5 599.74 255.35 593.18 247.36 590.12 239.89 589.31 236.52 589.63 229.1 588.04 223.59 588.14 219.25 588.29 218 589.31 218.9 591.27 221.22 592.09 225.58 592.81 220.85 594.6 217.12 596.67 215.01 598.16 215.01 599.79 216.21 600.57 219.46 601 224.43 599.99 223.23 601.81 222.49 604.93 222.48 607.72 224.32 608.6 226.95 607.85 229.83 604.99 229.92 607.97 230.72 609.82 232.51 609.82 235.89 607.47 239.83 605.12 244.84 604.42 249.1 604.06 251.87 607.07 255.37 610.75 256.91 613.61 256.28 615.73 253.87 615.95 250.29 614.34 245.73 612.93 240.4 611.71 235.83 611.49 232 612.04 230.52 613.37 231.2 615.95 233.94 618.93 246.55 622.84 259.3 627.95 268.71 629.72 280.96 628.48 307 623.35 342.41 616.38 365.11 610.16 406.15 598.75 429.13 589.5 461.79 576.27 485.68 566.59 468.25 533.71 463.57 523.41 459.43 524.13 459.44 524.55"/><polygon class="cls-22" points="820.25 607.78 827.45 605.48 835.88 604.58 843.71 604.31 840.29 588.02 838.55 570.59 838.75 550.39 842.29 532.3 844.28 519.23 844.95 510.02 844.95 498.93 842.56 490.26 842.57 484.35 845.79 479.69 851.98 477.14 855.06 476.68 860.59 473.01 871.7 461.8 883.37 448.22 889.99 440.22 892.02 438.64 893.49 439.38 894.79 439.91 897.3 439.24 899.24 440.38 901.79 439.11 903.21 439.83 906.05 439.61 908.38 441.03 911.89 441.18 915.14 442.41 915.95 445.26 915.95 447.28 908.67 455 898.87 465.75 887.13 475.28 879.06 483.09 873.73 492.87 870.64 501.61 869.67 511.47 874.64 535.19 878.78 558.67 881.32 575.69 882.83 587.92 891.27 584.08 914.15 575.78 929.22 571.53 948.84 566.14 963.03 562.84 974.46 556.11 979.97 549.87 983.8 541.45 984.97 534.5 987.43 532.65 992.97 531.73 1000.46 532.87 1008.64 536.8 1016.27 537.33 1029.56 536.14 1042.15 532.63 1052.33 531.71 1058.44 534.41 1062.9 538.03 1065.32 542.01 1065.32 545 1064.89 547.03 1063.8 551.09 1062.75 554.14 1057.22 555.66 1047.7 555.91 1040.08 557.18 1033.31 559.97 1021.9 564.89 1010.03 569.21 993.87 574.71 985.07 577.82 962.75 587.62 922.55 605.94 890.92 621.96 884.35 626.79 881.71 638.09 879.34 641.58 871.35 646.33 857.67 652.04 844.91 655.22 833.1 657.44 822.81 659.53 825.54 644.1 824.52 631.15 823.95 621.75 820.25 607.78"/><path class="cls-15" d="M470.79,438.36l4.72,12.49,4.85,8.71,6.16,6.89,6.39,4.12,8.65,2.18,2.25.06.76,4.69s-30.3-2.4-33.79-39.14Z"/><path class="cls-15" d="M454.32,425.02s-6.54.37-9.4,10.91-8.07,20.59-11.68,21.71l-.58-2.85,2.73-2.74,2.95-5.13,3.27-6.55,1.3-6.01,3.22-5.33,4.23-4.01,2.74-.49,1.22.49Z"/><path class="cls-15" d="M449.78,463.63l1.59,5.13-.95,4.51-2.11,3.12-2.53,2.87-.42.65s4.79-8.34,4.41-16.28Z"/><path class="cls-15" d="M493.94,507.5s-9.45,9.26-9.89,16.75l-3.24-2.16-2.82-2.42-1.63-.67,5.27-2.68,5.97-4.06,6.34-4.75Z"/><path class="cls-15" d="M510.75,483.29l-2.36,2.19-.93,3.4s3.07-1.44,3.29-5.6Z"/><path class="cls-15" d="M502.87,499.38l2.92.47,3.31-.69,3.23-1.85,1.49-.82,4.12,2.58s-11.29,4.53-15.07.31Z"/><path class="cls-15" d="M476.65,519.45l2.68,1.38,3.43,2.58,3.41,3.79,1.08,2.86,3.49,5.24,3.33,8.35s-10.64-19.56-17.03-19.73l-.39-4.46Z"/><path class="cls-15" d="M456.18,526.9s6-1.54,27.8,40.39l1.88-1.18-16.85-30.8-5.44-11.9-4.87.52v.87l-2.52,2.11Z"/><path class="cls-15" d="M222.48,593.92s13.76,5.03,19.7,10.49h5.99l-6.86-5.25-10.57-5.25-5.16-1.11-3.1,1.11Z"/><polygon class="cls-15" points="377.01 668.48 371.69 675.83 368.76 675.14 374 667.97 377.01 668.48"/><path class="cls-15" d="M362.2,675.14s4.87-.43,7.21,4.18l1.83-3.49-5.9-1.49-3.13.8Z"/><polygon class="cls-15" points="392.78 672.01 386.92 671.46 381.02 675.83 377.43 680.04 382.41 679.32 386.73 679.32 388.22 679.56 391.17 675.75 392.78 672.01"/><path class="cls-15" d="M406.35,672.14l-7.67,8.63-4.74,4.31-4.04,1.94s8.83,3.11,16.45-14.88Z"/><path class="cls-15" d="M820.56,607.6l5.13-1.55s10.78,24.49,4.06,52.07l-7.26,1.46,1.88-10.32.83-14.03-1.08-11.11-2.1-12-1.47-4.52Z"/><path class="cls-15" d="M883.14,587.43l2.35-1s4.78,28.5,2.53,37.31l-3.67,3.05.28-15.44-1.49-18.35v-5.57Z"/><path class="cls-1" d="M439.17,492.64h23.81s-2.15,11.64-13.8,10.76-10-10.76-10-10.76Z"/><path class="cls-10" d="M440.3,462.24s-6.9,4.58.29,10.11l2.7-.87,1.63-2.51-.42-3.96-2.06-2.77h-2.14Z"/><polygon class="cls-10" points="468.92 465.98 467.06 468.81 466.67 472.35 468.22 475.14 470.48 475.83 472.5 475.36 474.42 472.35 473.73 468.42 471.76 466.28 468.92 465.98"/><circle class="cls-2" cx="439.29" cy="465.13" r=".77"/><circle class="cls-2" cx="468.95" cy="468.97" r=".77"/><path class="cls-8" d="M486.89,566.1l-80.25,32.51-62.98,17.52-67.05,13.21s-9.9,2.29-22.35-3.3-20.32-7.11-20.32-7.11c0,0-9.52-7.75,2.86-7.43s14.92,4,14.92,4c0,0,8,2.54,4.38-3.68-2.28-3.92-10.65-10.6-19.94-15.11-3.58-1.73-7.29-3.15-10.85-3.96-1.86-.42-3.67-.68-5.4-.74,0,0-6.16-3.62,3.68-3.87s20.95,3.75,20.95,3.75c0,0,7.24,2.98,11.3,7.62"/><path class="cls-8" d="M234.76,596.71s-8,1.27-12.38,3.49-10.22-.44-6.54-2.73,7.13-4.49,11.22-4.27"/><path class="cls-8" d="M241.51,599.6s-8.27.09-13.41,7.52c0,0-5.21,4-5.59-1.08s3.22-7.18,3.22-7.18"/><path class="cls-8" d="M248.51,604.3s-7.66-1.63-13.43,3.67-5.28-.86-5.21-3.02"/><path class="cls-8" d="M458.7,525.21l-76.95,46.67-89.52,32.13s-12.32,9.52-23.94-.95-18.48-14.22-29.65-13.4"/><path class="cls-8" d="M493.94,507.5s-17.81,16.76-40.19,17.05-24-36.19-24-36.19c0,0-.57-7.33,2.67-15.81s-.19-19.33-.19-19.33"/><path class="cls-8" d="M450.22,463.69s3.24,7.33-1.14,11.9-5.62,5.71-2.19,9.05"/><path class="cls-8" d="M438.79,492.64h24.48s-3.24,12.29-14.1,10.76-10.38-10.76-10.38-10.76Z"/><path class="cls-8" d="M464.32,452.64s8.19-4.76,12.95,1.24"/><path class="cls-8" d="M444.92,450.85s-4.03-5.6-10.41,0"/><path class="cls-8" d="M454.32,425.02s-7.05-4.86-13.43,16-17.43,14.76-17.43,14.76c0,0,1.81,7.63,10.28,10.2"/><path class="cls-8" d="M422.98,455.41s-1.77-36.48,25.16-60,60.36-36.48,60.36-36.48c0,0,27.43-10.95,61.62-11.33,0,0,13.81-.86,29.05,2.95s13.71-6.67,13.71-6.67"/><path class="cls-8" d="M529.27,372.26s37.71-16.76,98.86-2.48,85.33-6.1,84.19-15.33"/><path class="cls-8" d="M593.75,374.72s64.48,13.26,96.48,9.74,119.33-31.43,68.19-61.14c0,0,37.81,8.26,23.52,41.28"/><path class="cls-8" d="M733.75,393.21s93.05-6.67,58-85.14c0,0,41.05,19.52,20.57,64.19s-109.71,49.9-109.71,49.9c0,0-33.05,1.14-37.24,0"/><path class="cls-8" d="M610.13,464.45c2.1,0,91.05,17.33,135.14-.95,68.41-28.37,74.48-95.62,74.48-95.62"/><path class="cls-8" d="M735.08,445.26s32.19,35.04-32,52.83c-64.19,17.79-104-30.97-141.52-20.49s-45.71,16.95-45.71,16.95"/><path class="cls-8" d="M527.65,463.69s-39.81,32.57-56.86-25.33"/><path class="cls-8" d="M467.46,430.74s7.24-12.76,32.76-13.33,20.19-12.95,20.19-12.95"/><path class="cls-8" d="M457.56,423.69s2.86-16.38,27.62-18.29"/><path class="cls-8" d="M504.6,477.6s18.3-6.29,13.34,9.9-15.25,11.81-15.25,11.81"/><path class="cls-8" d="M510.75,483.5s-3.48,2.19-3.29,5.38"/><path class="cls-8" d="M493.94,543.5s-7.16-21.19-17.58-24.5c0,0,4.25,41.64,21.58,32.88s20.01-52.95,20.01-52.95l-4.77-2.44"/><line class="cls-8" x1="528.32" y1="488.12" x2="539.17" y2="488.59"/><path class="cls-8" d="M733.91,555.88s-21.32-2.89-36.47-6.47c-3.9-.92-7.39-1.89-10-2.86-12.76-4.76-22.06,1.14-22.06,1.14-42.1,11.43-53.71-10.86-53.71-10.86,0,0-47.95-47.95-73.62-48.24-7.64-.09-13.31,4.05-15.14,14.94-8,47.46-18.67,84.73-18.67,84.73-19.05-13.9-40.95-65.52-40.95-65.52"/><ellipse class="cls-8" cx="470.48" cy="471.06" rx="3.81" ry="5.08"/><ellipse class="cls-8" cx="441.11" cy="467.32" rx="3.81" ry="5.08"/><path class="cls-8" d="M389.16,686.68s-12.73-.5-17.3-.97-12.75,7.19-2.84,6.43,18.48,3.24,18.48,3.24c20.48,7.33,34.76-.48,34.76-.48l45.52-26.19c59.52-29.52,67.9-46.19,67.9-46.19,0,0,9.52-17.62,20.29-71.52s-8.32-60.56-8.32-60.56"/><path class="cls-8" d="M420.92,685.37s-12.29-2.1-16.19-8.67"/><path class="cls-8" d="M388.22,679.56s-5.97.86-7.21-2.86"/><path class="cls-8" d="M377.43,668.56s-16.51-3.29-21.65,0-5.33,5.11-2.67,6.58,7.33-2.29,12.95-.8l5.62,1.49"/><path class="cls-8" d="M387.82,671.62s1.72-.58,4.95.9"/><path class="cls-8" d="M391.64,674.34s-7.56.28-8.78,4.49"/><path class="cls-8" d="M425.5,671.46c7.23-6.07,70.28-55.02,73.32-61.31s5.4-21.89,5.4-21.89"/><path class="cls-8" d="M541.3,608.41s42.86,20.21,97.71,35.83,96.38,19.01,96.38,19.01c0,0,32.95,1.56,75.43,12.99,0,0,12.19-4.57,14.1-30.67,1.32-18.14-2.32-31.4-4.67-37.8-1.03-2.81-1.81-4.3-1.81-4.3,0,0-22.1-46.67-22.1-55.43s2.16-43.21-11.59-49.13c0,0-20.56,33.54-87.33,50.48"/><path class="cls-8" d="M852.35,604.44s-25.33-1.12-32.1,3.34"/><path class="cls-8" d="M822.49,659.58s38.62-5.24,56.14-17.43-8.57-129.52-8.57-129.52c0,0-3.24-20.38,16.38-36.57s29.33-29.52,29.33-29.52c0,0,1.97-7.24-7.11-4.89,0,0-1.14-3.62-5.02-1.21,0,0-1.33-2.86-4.32.06,0,0-2.03-2.86-4.44,0,0,0-2.41-3.3-5.4.25s-28.25,35.49-35.11,36.06-15.24,4.19-11.05,16.19-.76,38.35-.76,38.35c0,0-10.1,30.29,1.14,72.95"/><path class="cls-8" d="M853.33,501.26s-5.33,5.81-1.05,17.52"/><path class="cls-8" d="M908.67,441.64s-2.86,1.56-5.97,7.24"/><path class="cls-8" d="M903.53,440.22s-.7.63-2.58,4.37"/><line class="cls-8" x1="899.24" y1="440.38" x2="897.3" y2="443.99"/><path class="cls-8" d="M894.79,440.38s0,4.22-1.65,5.2"/><path class="cls-8" d="M882.79,587.59s35.27-15.6,69.18-21.69,32.76-31.05,32.76-31.05c0,0,4.38-8.19,23.62,1.9,0,0,14.67,2.67,31.62-3.43s24.76,7.05,24.76,7.05c0,0,1.33,3.43,0,5.24,0,0,.76,1.71-.95,4.95,0,0,.67,3.52-4.48,4.57s-17.24-.4-25.43,4.51-46.57,17.2-46.57,17.2c0,0-102.09,43.97-103.09,50.29"/><path class="cls-8" d="M1064.73,545.61s-5.05.19-5.71-1.24"/><path class="cls-8" d="M1063.64,550.23s-4.33.81-5.19-.48"/><path class="cls-8" d="M1063.43,552.53s-3.18,1.79-4.98,1.08"/><path class="cls-8" d="M366.52,674.46s-6.16.12-8.44,3.1.38,3.33,1.59,3.48,7.15-2.23,10.18-1.39"/><path class="cls-8" d="M377.01,680.49s5.58-1.93,8.05-.85"/><rect class="cls-24" x="332.72" y="681.75" width="142.67" height="8.76" transform="translate(72.19 -37.68) rotate(5.86)"/><ellipse class="cls-24" cx="475.01" cy="693.42" rx="4.38" ry="1.43" transform="translate(-263.29 1095.12) rotate(-84.14)"/><ellipse class="cls-29" cx="324.91" cy="678" rx="4.38" ry="1.43" transform="translate(-382.73 931.97) rotate(-84.14)"/><rect class="cls-29" x="324.87" y="674.42" width="15.56" height="8.76" transform="translate(71.07 -30.43) rotate(5.86)"/><ellipse class="cls-29" cx="340.39" cy="679.59" rx="4.38" ry="1.43" transform="translate(-370.42 948.79) rotate(-84.14)"/><path class="cls-3" d="M325.36,673.65s-1.57.05-1.88,4.35.99,4.36.99,4.36c0,0,1.53.67,1.73-4.23s-.83-4.49-.83-4.49Z"/><path class="cls-3" d="M325.36,673.65l150.1,15.41s1.31-.02.97,4.5-1.87,4.21-1.87,4.21l-150.1-15.41"/><polygon class="cls-22" points="389.44 678.18 388.23 682.7 388.92 686.23 389.9 687.02 392.78 686.13 396.43 682.96 399.67 679.65 389.44 678.18"/><polygon class="cls-22" points="379.38 677.75 371.23 677.24 369.41 681.04 369.85 684.23 370.95 685.71 372.65 684.84 377.43 680.49 379.38 677.75"/><path class="cls-8" d="M430.06,674.61s-22.1-16.67-29.14-9.62-15.14,13.81-12,21.24c0,0,.95,5.81,17.43-14.1"/><path class="cls-8" d="M399.96,665.94s-12.85-7.62-21.52,1.53-10.23,14.07-8.3,17.75c1.25,2.39,6.37-4.51,11.2-9.33,2.59-2.59,5.1-4.59,6.89-4.22"/><polygon class="cls-12" points="741.12 859.73 753.34 915.12 764.78 916.09 777.03 915.83 791.87 913.56 804.32 910.22 814.47 906.29 824.75 901.23 835 892.83 817.88 839.13 824.5 836.41 832.46 831.1 837.94 826.26 839.46 822 838.11 817.15 835.09 814.86 827.05 813.04 818.23 812.83 809.78 813.42 803.66 814.15 773.5 819.74 764.36 822.55 741.06 830.72 731.11 835.35 720.45 841.39 713.97 847.73 712.9 851.47 714.45 856.28 717.6 858.22 723.2 859.8 730.41 860.49 741.12 859.73"/><polygon class="cls-19" points="739 841.79 737.91 843.56 740.26 845.05 747.23 844.89 757.71 843.35 776.81 839.07 795.79 833.49 808.17 828.34 813.14 825.02 813.34 823.19 810.51 822.58 806.31 822.7 802.88 823.38 792.65 825.25 773.32 829.35 748.75 837.15 742.41 839.63 739 841.79"/><polygon class="cls-18" points="802.98 823.86 804.08 820.6 803.62 815.44 802.12 809.86 796.78 797.28 793.76 793.93 785.29 793.6 778.6 794.94 774.99 799.07 774.76 806.04 774.59 813.76 775.66 820.19 776.26 828.66 777.95 838.28 788.3 835.92 791.72 834.58 791.93 828.97 791.52 821.06 796.8 824.97 800.84 825.59 802.98 823.86"/><polygon class="cls-18" points="755.52 843.67 745.75 831.79 735.54 817.43 725.93 801.34 719.8 786.74 719.14 778.9 720.93 777.7 723.98 777.76 729.87 781.62 736.59 786.92 743.08 793.22 749.88 801.24 756.1 809.73 761.71 818.25 766.01 825.29 769.56 831.48 773.36 839.63 755.52 843.67"/><path class="cls-14" d="M780.38,806.3s-1.97,16.66,2.74,31.01l4.68-1.42s.23-15.77-1.34-20.88l-3.92-4.34-2.16-4.38Z"/><path class="cls-14" d="M769.32,841.02s-33.94-53.46-39.07-49.03c-5.03,4.35,16.07,31.2,31.57,50.45l7.5-1.42Z"/><polygon class="cls-23" points="741.65 859.87 742.94 866.32 755.75 865.48 765.84 863.31 782.14 859.56 794.89 855.29 806.55 850.96 816.49 846.07 819.68 844.35 817.88 839.13 801.51 845.69 784.56 851.59 773.25 854.53 763.92 856.51 752.08 858.18 741.65 859.87"/><polygon class="cls-24" points="745.51 868.72 754.41 867.72 762.27 902.48 753.17 902.76 745.51 868.72"/><path class="cls-24" d="M713.06,851.09l1.48,5.52s9.11,10.41,63.42-3.26c54.32-13.66,61.71-30.54,61.71-30.54l-1.57-5.67s-9.16,15.65-62.38,28.97c-53.23,13.31-62.66,4.98-62.66,4.98Z"/><polygon class="cls-24" points="753.72 904.78 755.52 913.17 763.96 913.57 762.38 904.72 753.72 904.78"/><path class="cls-4" d="M775.46,819.44s-4.92,1.13-10.85,2.92"/><path class="cls-4" d="M743.94,829.49s-12.68,5.28-19.79,9.66-11.34,9.16-11.09,11.95l1.48,5.52s7.52,5.97,26.58,3.12l12.22,55.39s49.17,7.2,81.77-21.97l-17.09-54.08s20.32-8.42,21.54-16.73l-1.33-4.97s-2.35-7.65-34.69-3.21"/><path class="cls-4" d="M741.56,859.51s34.03-1.06,76.46-20.44"/><path class="cls-4" d="M742.58,866.34s42.4-1.92,76.87-21.93"/><path class="cls-4" d="M749.48,836.87s-8.92,3.25-11.18,5.99,5.35,2.28,5.35,2.28c0,0,8.85-.21,23.33-3.83s12.52-2.34,32.26-9.36c19.75-7.01,13.29-9.03,13.29-9.03,0,0-5.25-.96-8.91.36"/><path class="cls-4" d="M769,830.61s3.47-1.39,7.27-1.95"/><path class="cls-4" d="M791.66,825.54s3.16-.98,4.99-1.11"/><path class="cls-4" d="M755.09,843.32s-17.14-19.52-27.64-39.51c-10.5-19.99-7.95-24.69-7.95-24.69,0,0,.63-4.77,8.12.84,7.49,5.61,19.21,12.52,39.62,47.41,0,0,5.44,9.22,6.12,12.26"/><path class="cls-4" d="M778.03,838.68s-6.56-32.15-2.07-40.95c0,0,.86-3.39,6.89-3.92s7.95-.51,7.95-.51c0,0,3.81-.68,6.13,4.27s8.57,18.85,6.93,24.32-5.71,3.51-5.71,3.51c0,0-2.7-1.36-6.14-4.18-3.88-3.18-8.71-8.22-11.71-15.28"/><path class="cls-4" d="M791.72,834.58s.79-7.89-.29-13.83"/><polygon class="cls-12" points="359.39 263.72 342.2 317.78 351.61 324.35 362.35 330.26 376.33 335.74 388.78 339.09 399.53 340.78 410.96 341.55 424.04 339.41 436.13 284.36 443.22 285.32 452.78 284.72 459.95 283.27 463.39 280.35 464.66 275.47 463.19 271.98 457.15 266.38 449.62 261.78 442.01 258.05 436.35 255.62 407.45 245.34 398.13 243.19 373.87 238.59 362.94 237.61 350.69 237.49 341.9 239.73 339.11 242.43 338.04 247.37 339.79 250.63 343.84 254.8 349.74 259.02 359.39 263.72"/><polygon class="cls-19" points="366.54 247.14 364.71 248.12 366 250.59 372.11 253.94 381.95 257.86 400.62 263.72 419.84 268.41 433.15 270.16 439.1 269.78 440.19 268.29 438.05 266.35 434.36 264.35 431.05 263.22 421.25 259.71 402.48 253.57 377.3 248 370.58 246.97 366.54 247.14"/><polygon class="cls-18" points="430.89 263.68 433.48 261.41 435.66 256.72 437.16 251.14 438.85 237.57 437.91 233.15 430.75 228.63 424.28 226.44 419.09 228.2 415.4 234.11 411.39 240.71 409.09 246.82 405.37 254.44 402.01 263.62 412.15 266.76 415.78 267.32 418.77 262.57 422.38 255.51 424.99 261.54 428.18 264.1 430.89 263.68"/><polygon class="cls-18" points="379.9 257.04 377.4 241.86 375.76 224.32 375.5 205.58 377.51 189.88 380.87 182.76 383.02 182.61 385.63 184.2 388.79 190.49 391.95 198.44 394.41 207.15 396.28 217.49 397.4 227.96 397.99 238.14 398.19 246.4 398.16 253.53 397.36 262.48 379.9 257.04"/><path class="cls-14" d="M420.14,237.16s-10.05,13.43-13.17,28.21l4.76,1.12s8.1-13.54,9.3-18.74l-1.22-5.72.32-4.88Z"/><path class="cls-14" d="M393.17,261.66s-2.58-63.28-9.24-62.01-1.73,35.06,2.04,59.47l7.2,2.53Z"/><polygon class="cls-23" points="359.78 264.11 357.66 270.34 369.16 276.03 378.98 279.21 394.97 284.13 408.14 286.83 420.41 288.92 431.46 289.67 435.08 289.78 436.13 284.36 418.69 281.84 401.06 278.44 389.8 275.32 380.73 272.37 369.64 267.87 359.78 264.11"/><polygon class="cls-24" points="358.68 273.71 366.88 277.3 356.26 311.32 348.25 307 358.68 273.71"/><path class="cls-24" d="M339.43,242.19l-1.48,5.52s2.67,13.57,56.52,28.96c53.85,15.4,68.71,4.5,68.71,4.5l1.48-5.7s-15.77,8.96-68.5-6.19c-52.73-15.15-56.72-27.09-56.72-27.09Z"/><polygon class="cls-24" points="347.71 309.02 345.07 317.19 352.18 321.76 355.24 313.31 347.71 309.02"/><path class="cls-4" d="M409.3,246.07s-4.83-1.49-10.85-2.92"/><path class="cls-4" d="M376.98,238.96s-13.62-1.79-21.97-1.56-14.41,2.24-15.59,4.79l-1.48,5.52s3.52,8.93,21.44,16.01l-17.18,54.06s38.94,30.87,81.77,21.97l12.31-55.37s21.8,2.9,27.02-3.69l1.33-4.97s1.8-7.8-28.41-20.16"/><path class="cls-4" d="M359.87,263.75s29.98,16.14,76.41,20.62"/><path class="cls-4" d="M357.34,270.17s37.66,19.58,77.51,19.54"/><path class="cls-4" d="M378.07,248.13s-9.35-1.66-12.68-.41,3.48,4.65,3.48,4.65c0,0,7.77,4.26,22.11,8.37s12.01,4.24,32.61,8.07c20.6,3.83,16.02-1.15,16.02-1.15,0,0-4.07-3.46-7.89-4.16"/><path class="cls-4" d="M398.1,252.49s3.7.53,7.27,1.95"/><path class="cls-4" d="M420.26,259.46s3.22.73,4.88,1.54"/><path class="cls-4" d="M379.7,256.52s-5.05-25.49-4.12-48.05,5.49-25.35,5.49-25.35c0,0,2.93-3.81,6.6,4.8,3.67,8.61,10.35,20.46,10.53,60.88,0,0,.08,10.71-.85,13.68"/><path class="cls-4" d="M401.88,264s10.43-31.11,18.73-36.48c0,0,2.45-2.5,7.92.06s7.13,3.54,7.13,3.54c0,0,3.64,1.32,3.16,6.77s-2.03,20.61-6.19,24.52-6.7.17-6.7.17c0,0-1.65-2.53-3.22-6.7-1.77-4.7-3.42-11.48-2.47-19.09"/><path class="cls-4" d="M415.78,267.32s4.64-6.43,6.68-12.11"/><rect class="cls-24" x="678.29" y="195.2" width="142.67" height="8.76" transform="translate(1523.57 146.92) rotate(161.2)"/><ellipse class="cls-24" cx="682.1" cy="222.57" rx="1.43" ry="4.38" transform="translate(-35.34 231.7) rotate(-18.8)"/><ellipse class="cls-29" cx="824.93" cy="173.94" rx="1.43" ry="4.38" transform="translate(-12.04 275.14) rotate(-18.8)"/><rect class="cls-29" x="809.79" y="172.07" width="15.56" height="8.76" transform="translate(1648.39 79.99) rotate(161.2)"/><ellipse class="cls-29" cx="810.21" cy="178.95" rx="1.43" ry="4.38" transform="translate(-14.44 270.66) rotate(-18.8)"/><path class="cls-3" d="M826.35,178.09s1.41-.7-.11-4.74-2.72-3.55-2.72-3.55c0,0-1.67.03.19,4.56s2.63,3.73,2.63,3.73Z"/><path class="cls-3" d="M826.35,178.09l-142.84,48.63s-1.18.56-2.76-3.69-.06-4.61-.06-4.61l142.84-48.63"/><path class="cls-27" d="M557.13,135.9s25.38,29.48,50.75,0c0,0-23.15,31.74,0,58.95,0,0-23.15-27.21-50.75-3.3,0,0,22.31-24.24,0-55.66Z"/><path class="cls-23" d="M582.51,110.31s-.93,48.56-30.42,52.82c0,0,31.13,8.03,31.86,70.06,0,0,3.09-68.57,28.98-68.97,0,0-30.08-3.37-30.42-53.91Z"/><path class="cls-23" d="M947.83,756.47s26.54,30.54,53.07,0c0,0-24.2,32.89,0,61.07,0,0-24.2-28.19-53.07-3.42,0,0,23.33-25.11,0-57.66Z"/><path class="cls-27" d="M974.37,729.96s-.97,50.3-31.81,54.72c0,0,32.55,8.32,33.31,72.58,0,0,3.23-71.04,30.31-71.45,0,0-31.45-3.49-31.81-55.84Z"/><path class="cls-23" d="M112.63,686.46s27.42,29.57,54.84,0c0,0-25.01,31.84,0,59.14,0,0-25.01-27.29-54.84-3.31,0,0,24.1-24.31,0-55.83Z"/><path class="cls-27" d="M140.05,660.79s-1,48.71-32.87,52.98c0,0,33.63,8.05,34.42,70.28,0,0,3.34-68.79,31.32-69.18,0,0-32.5-3.38-32.87-54.08Z"/><path class="cls-5" d="M170.93,473.67s-.53-11.92,2.4-23.02c1.38-5.24,3.54-10.29,6.88-13.82,10.43-11.02,9.69,10.7,6.32,14.96s-7.23,34.83,4.76,30.01"/><path class="cls-5" d="M185.8,452.11s-5.01-1.5-12.64-.75"/><path class="cls-5" d="M190.56,430.96s8.54-4.83,0,45.86c0,0,13.01,5.01,13.45-6.94.43-11.95-3.76-10.5-6.22-8.45s-6.49,13.03-6.49,13.03"/><polygon class="cls-5" points="173.86 431.92 172.26 440.73 169.24 432.95 176.33 436.81 167.89 437.83 173.86 431.92"/><path class="cls-5" d="M170.9,443.75s-3.1-.42-2.8,4.89-3.14,3.48-3.14,3.48c0,0-2.77-.04,1.23,5.09,0,0,1.66,1.51-2.71,3.08s3.45,3.2,1.97,5.49.12,3.38-3.63,3.26"/><path class="cls-5" d="M209.42,475.61s-4.62-37.05,2.09-41.03,4.86,9.16,4.86,9.16c0,0-3.08,11.11-12.35,10.02,0,0-2-.97,0-3.32s4.34-4.59,9.27-1.75,5.3,35.36,17.8,23.77"/><path class="cls-5" d="M230.18,442.66s2.96,6.64-5.17,5.01-1.2-17.16,2.85-18.7c4.94-1.88,7.44,1.51,7.81,8.51s-3.76,33.79,4.31,32.76"/><path class="cls-5" d="M234.93,457.26s-7.83-3.37-9.37,3.2c0,0-.4,6.46,4.91,6.76s4.68-5.12,4.68-5.12"/><path class="cls-5" d="M255.05,433.74s-.06-2.55-2.4-1.94-1.29,3.68-1.29,3.68c0,0,1.11,2.65,3.69,1.99s2.96-5.76,2.96-5.76c0,0,1.05-6.3-1.85-9.32s-8.56-.72-8.56-.72c0,0-4,2.78-6.1,10.26-2.09,7.48-.74,20.45-.74,20.45,0,0,1.91,7.6,6.59,11.4s8.19,1.75,8.19,1.75c0,0,3.26-2.78,3.88-4.71"/><path class="cls-5" d="M262.01,446.88s.12,1.93-1.91,1.39-2.59-3.98-1.42-6.4,3.33-4.4,3.33-4.4c0,0,3.26-1.87,5.17.84s1.48,9.35,1.48,9.35l.02,4.65.02,3.62s.2,4.16,1.99,3.44"/><path class="cls-5" d="M268.42,452.11s-8.13-2.39-8.07,1.23c.06,3.62,4.03,3.44,4.03,3.44,0,0,2.86.12,4.03-1.09"/><polygon class="cls-5" points="244.4 469.15 250.5 475.18 242.98 473.61 249.88 469.63 245.63 477.36 244.4 469.15"/><line class="cls-5" x1="266.82" y1="418.04" x2="260.6" y2="421.24"/><line class="cls-5" x1="261.27" y1="412.85" x2="258.08" y2="417.56"/><line class="cls-5" x1="255.85" y1="409.29" x2="254.62" y2="416.6"/><path class="cls-5" d="M282.03,417.2s1.42,3.38-2.22,4.04-4.99-4.04-4.99-4.04c0,0-1.54-5.07,1.17-7.12s5.54-1.45,5.54-1.45c0,0,4.06-.12,4.93,4.31s0,18.86,0,18.86c0,0-1.02,16.53.38,20.15s3.74,6.52,5.53,7.06"/><path class="cls-5" d="M285.84,442.9s-4.19-4.71-8.74-1.57c-4.56,3.14-1.91,11.16-1.91,11.16,0,0,1.91,2.99,5.73,2.22s5.55-4.36,5.55-4.36"/><path class="cls-5" d="M292.37,449.9s-2.08-12.96.34-27.16c.02-.13.04-.25.06-.38.81-4.62,2.1-9.36,4.09-13.81,7.27-16.27,5.85,6.89,5.44,12.28-.05.68-.09,1.08-.09,1.08,0,0-2.89,34.22,3.14,34.37"/><path class="cls-5" d="M292.75,422.49s4.47-1.65,9.56-1.66"/><path class="cls-5" d="M312.51,457.99s-.27-1.47-.65-3.93c-.06-.36-.12-.74-.18-1.15-1.48-9.69-4.21-30.86-1.69-42.11,0,0,.49-7.9,4.25-6.09,3.76,1.81,2.65,11.16,2.65,11.16,0,0-1.11,12.67-5.79,14.96s-3.88-1.63-3.88-1.63c0,0,1.91-5.67,8.56-1.75,6.65,3.92,5.6,14.96,5.6,14.96,0,0,.55,8.81-2.71,11.16-3.26,2.35-3.82.72-6.47.48"/><path class="cls-5" d="M298.45,464.99s1.62-4.4,11.35-.97c9.73,3.44,10.96-2.27,10.96-2.27"/><path class="cls-5" d="M325.87,459.01s-2.59-44.82,6.77-56.17c9.36-11.35,8.99,4.88,8.99,4.88,0,0-1.85,12.85-12.32,15.57s-7.64-7.12-4.5-6.34,6.65.78,7.64,10.74.13,36.32,9.18,34.27"/><path class="cls-5" d="M347.49,426.43s-1.48,4.22-6.22.97c-4.74-3.26,2.65-12.01,2.65-12.01,0,0,2.77-5.07,9.3-3.2,6.53,1.87,3.33,13.76,3.33,13.76,0,0-7.2,16.89-8.56,19.49s-2.77,12.19.18,15.57"/><path class="cls-5" d="M347.98,444.47s-5.54-.18-6.34-.91-5.24.06-3.7,4.71,8.79,1.83,8.79,1.83"/><path class="cls-5" d="M370.76,413.7s-11.7,17.2-11.21,31.8"/><polygon class="cls-5" points="349.7 396.93 355.8 405.19 346.19 401.57 355.49 398.37 351 406.82 349.7 396.93"/><line class="cls-5" x1="358.33" y1="452.13" x2="359.54" y2="463.44"/><line class="cls-5" x1="354.38" y1="460.58" x2="365.15" y2="453.82"/><line class="cls-5" x1="362.02" y1="453.4" x2="355.12" y2="463.72"/><line class="cls-5" x1="355.12" y1="454.84" x2="362.27" y2="462.08"/><ellipse class="cls-5" cx="209.22" cy="430.65" rx=".74" ry=".72"/><ellipse class="cls-5" cx="203.81" cy="434.77" rx=".84" ry=".82"/><ellipse class="cls-5" cx="202" cy="441.07" rx=".75" ry=".8"/><polygon class="cls-23" points="329.28 808.54 327 811.57 327.8 816.84 329.95 819.41 332.95 819.71 334.56 818.14 336.89 816.73 340.64 821.35 344.98 823.28 353.93 823.3 363.31 822.17 372.81 819.42 372.33 826.34 373.81 835.47 377.05 841.73 382.6 846.17 375.36 853.69 368.22 863.91 364.77 873.27 364.03 882.4 364.68 890.3 367.16 895.65 371.83 897.28 373.17 897.32 376.11 899.81 381.34 899.91 387.13 897.88 391.48 894.28 394.97 890.46 398.89 882.92 401.21 874.6 401.56 864.68 401.24 858.42 403.92 857.77 411.71 853.91 418.89 852.28 428.6 850.3 431.71 861.17 437.15 873.15 443.15 881.1 448.69 885.82 452.62 887.62 456.3 886.95 460.86 888.43 467.47 887.03 472.83 882.4 472.78 878.3 468.52 865.88 462.79 856.01 457.44 847.87 451.79 841.8 446.9 837.86 449.62 835.6 455.58 829.25 459.32 822.03 461.2 814.48 461.22 809.62 458.93 804.9 458.46 802.73 461.18 791.98 461.4 788.8 460.91 787.76 459.15 789.04 454.51 801.59 448.91 803.82 446.09 805.76 442.62 812.61 439.61 820.99 437.46 829 429.23 827.13 423.32 827.34 412.61 829.01 404.31 831.92 396.85 834.25 395.8 828.48 393.11 819.41 388.36 812.48 384.88 810.72 385.59 809.6 390.43 808.53 394.92 804.57 397.98 798.25 401.79 791.24 402.47 780.86 401.27 772.63 399.36 767.46 397.12 764.84 391.5 763.12 387.42 763.74 384.62 762.26 379.94 761.67 376.21 763.32 370.75 769.02 368.03 776.46 366.2 785.41 366.72 796.2 361.02 796.76 347.87 799.36 344.33 800.83 338.76 803.68 336.41 808.19 336.25 811.3 334.37 810.84 332.84 808.69 329.28 808.54"/><path class="cls-9" d="M339.78,814.9s8.04,7.32,22.3,2.34c14.26-4.98,17.43-9.23,17.43-9.23,0,0,4.33-6.18,2.22-8.73s-7.58-3.08-7.58-3.08l-9.12.66-13.7,1.66-9.04,3.2-4.36,2.99-1.98,4.93.91,3.26,2.92,1.99Z"/><path class="cls-9" d="M379.67,797.01s5.13,4.6,10.23,2.85,8.39-10.68,8.39-10.68c0,0,4.7-13.44-3.61-25.35l-5.12-.36-4.85,2.1-2.05,3.64-.81,7.97-.25,7.01-.67,7.15-1.27,5.65Z"/><path class="cls-9" d="M381.74,761.72l1.09,6-.89,4.75.05,3.34s-7.33,20.37-15.83,16.59l.2-7.41,1.35-7.41,2.47-7.05,2.47-4.64,4.31-3.3,4.8-.87Z"/><path class="cls-9" d="M380.89,815.3s7.37,1.83,9.34,13.41-1.87,13.18-1.87,13.18c0,0-4.06,3.66-8.55,2.14s-7.37-14.74-7.37-14.74v-9.38s3.32-2.17,3.32-2.17l5.13-2.45Z"/><path class="cls-9" d="M427.6,826.96s9.09,4.24,5.76,10.74-10.66,7.38-10.66,7.38c0,0-13.28,1.51-18.07,4.96s-4.82.49-4.82.49l-1.95-2.93-4.69-2.72,2.08-2.06,1.73-4.86-.11-3.31,10.25-3.97,9.29-2.48,9.2-1.2,1.99-.04Z"/><path class="cls-9" d="M393.23,845.22s7.45,14.05,2.34,28.92c-5.11,14.87-17.91,18.67-17.91,18.67,0,0-5.07,2.09-7.75-3.33l.82-3.43,2.6-3.61,4.86-7.01,1.89-7.7,2.18-8.14.93-7.42,1.26-4.03,2.34-2.46,4.25-.77,2.19.31Z"/><path class="cls-9" d="M378.07,850.65s1.18,24.53-13.84,34.99c-1.58,1.1-.3-.28-.3-.28,0,0-.72-22.99,14.14-34.71Z"/><path class="cls-9" d="M440.81,837.22s10.52,4.99,17.14,19.4c6.62,14.42,10.46,18.88,7.49,24.58-2.97,5.7-8.83,5.05-8.83,5.05l-1.52-1.17-1.34-4.27-2.59-6.88-7.48-12.65-7.31-8.4-2.53-4.2.77-5.77,2.58-3.58,3.61-2.11Z"/><path class="cls-9" d="M430.65,857.9s17.54,15.77,18.48,28.36c0,0-12.35-7.53-18.48-28.36Z"/><path class="cls-9" d="M459.95,805.93s-1.39,24.88-19.26,26.52l-3.04-3.5,4.52-15.34,3.18-6.47,3.11-3.35,5.88-1.96,2.42.54,3.19,3.57Z"/><path class="cls-9" d="M329.99,810.61s-2.48,3.16,1.62,7.59l.44,1.84-2.88-1.28-1.56-3.53-.31-2.5.31-2.29,1.42-1.59,1.17-.67-.21,2.43Z"/><path class="cls-9" d="M330.46,808.13l-.47,2.48s4.07,2.31,1.62,7.59l-.37,1.48,2.09.02,1.35-1.88v-2.47s-.6-4.25-.6-4.25l-1.27-2.53-2.36-.44Z"/><polygon class="cls-9" points="329.43 808.32 331.59 808.77 329.99 810.61 329.33 810.56 329.43 808.32"/><path class="cls-32" d="M369,802.74s-2.09-5.11-15.11-1.84c-13.02,3.27-14.5,7.21-14.5,7.21,0,0-1.45,1.62,3.15,2.78,4.6,1.17,18.62-1.24,18.62-1.24,0,0,8.75-3.01,7.84-6.92Z"/><path class="cls-32" d="M386.95,767.6s-5.5,2.74-3.57,16.26,7.89,5.67,7.89,5.67c0,0,5.02-8.14,3.06-15.4s-3.72-7.71-7.38-6.53Z"/><path class="cls-32" d="M379.78,762.26s2.83,12.76-4.2,19.53c-7.03,6.77-7.47,6.46-9.19,6.58s-.34-.16-.34-.16l.7-6.02,3.23-11.25,3.56-5.42,2.99-2.37,3.26-.88Z"/><path class="cls-32" d="M385.55,826.45s-4.67-11.99-9.55-4.53c0,0-1.43,14,2.63,16.11s7.74.34,8.07-2.3.21-5.72-1.14-9.28Z"/><path class="cls-32" d="M404.58,839.54s-9.84-.88-4.1-4.44,22.58-6.05,24.68-5.17,3.94,2.16-.12,4.32c-4.06,2.16-17.47,5.8-20.46,5.29Z"/><path class="cls-32" d="M386.19,851.05s-1.49,18.27-5.54,23.53c-4.05,5.25-5.35,8.78-5.35,8.78,0,0-1.05,4.9,3.33,4.49,4.38-.41,9.7-5.57,9.7-5.57,0,0,7.2-9.05,4.83-20.69-2.37-11.64-4.85-12.93-6.97-10.54Z"/><path class="cls-32" d="M441.01,846.45s-6.64-1.76-4.34,3.11,11.29,14.92,11.29,14.92c0,0,3.27,5.21,5.37,6.12s2.96.3,2.96.3c0,0,1.37-2.77-1.02-5.62s-9.83-19.14-14.26-18.84Z"/><path class="cls-32" d="M454.78,804.27s.37,13.08-9.43,16.64c-9.81,3.56,2.49-14.35,2.49-14.35,0,0,4.34-5.24,6.94-2.29Z"/><path class="cls-6" d="M458.35,803.16l3.48-13.02s.18-4.52-2.85-1.13l-4.64,12.81"/><path class="cls-6" d="M396.86,834.65s23.94-12.09,40.72-5.33c0,0,4.79-23.39,11.68-25.93,6.9-2.54,8.67-2.02,11.5,4.69s-3.26,23.68-14.07,29.91"/><path class="cls-6" d="M437.94,829.58s4.37,3.79,4.93,6.91"/><path class="cls-6" d="M450.09,840.34s-6.79-6.83-12.9-1.01c-3.79,3.61-3.63,7.48-2.96,9.89.41,1.47,1,2.4,1,2.4,0,0,16.08,16.76,18.62,30.05,2.54,13.28,21.01,4.12,19.25-2.72s-9.76-27.85-23.01-38.61Z"/><path class="cls-6" d="M433.97,849.34s-2.13.36-5.18.93c-6.67,1.25-17.74,3.5-20.48,5.21-5.97,3.73-7.2,2.66-7.2,2.66,0,0,.68-12.25-8.68-13.01s-9.24,7.03-9.24,7.03c0,0-1.43,21.3-9.84,30.05-8.41,8.75.68,18.33,4.83,18.09s9.94-1.74,13.3-6.03,12.67-13.01,9.75-35.52"/><path class="cls-6" d="M428.43,850.73s7.15,28.39,21.75,36.12c0,0,3.2,1.82,6.57.1"/><path class="cls-6" d="M382.91,846.11s-14,10.9-17.87,27.28c-3.87,16.38,2.35,25.42,7.66,23.7"/><path class="cls-6" d="M385.19,810.89s9.84,2.28,11.78,26.13c0,0,.51,6.75-4.53,8.11"/><path class="cls-6" d="M372.56,819.89s-1.71,13.29,3.68,20.3,9.15,6.45,9.15,6.45"/><path class="cls-6" d="M380.98,797.84s10.25,9.56.28,16.5-19.37,9.52-35.2,8.71c0,0-6.87.04-8.86-6.43,0,0-2.53.7-3.28,2.44s-5.59,1.64-6.47-4.2c-.93-6.15,2.79-6.51,2.79-6.51,0,0,2.41-.32,3.41,1.7.91,1.84,2.78,1.19,2.78,1.19,0,0-1.15-6.08,5.38-9.3,6.53-3.22,15.86-4.86,22-5.2,5.62-.31,10.36-1.4,15.7.49.49.17.99.37,1.49.6Z"/><path class="cls-6" d="M379.62,796.74s3.19-10.16,2.32-21.62,9.12-11.87,9.12-11.87c0,0,7.76-.44,9.63,7.45s3.18,17.81-1.55,26.13c-4.73,8.31-5.43,11.71-14.05,13.09"/><path class="cls-6" d="M387.54,763.84s-6.48-5.55-13.65,1.32c-7.17,6.87-7.85,23.4-7.85,23.4,0,0-.15,4.89.85,7.97"/><path class="cls-6" d="M333.64,810.06s2.18,5.73.28,9"/><path class="cls-6" d="M336.46,811.49s1.31,3.94.43,5.24"/><path class="cls-28" d="M387.93,773.88s3.12,5.11.93,8.99-.78-4.12-.78-4.12c0,0-.55-3.32-1.75-4.59s.76-2.05,1.6-.29Z"/><path class="cls-28" d="M363.13,802.77s-4.05-1.01-5.81,1.05,4.56.61,4.56.61c0,0,3.78-.51,1.25-1.66Z"/><path class="cls-28" d="M421.89,831.4s-3.28-1.02-6.25,1.13,3.31.49,3.31.49c0,0,6.96-.74,2.93-1.62Z"/><path class="cls-28" d="M414.05,833.34s-.99-.59-1.71.24,1.09.47,1.09.47c0,0,1.08-.28.62-.71Z"/><path class="cls-16" d="M1011.62,295.94l2.44,4.33.39,2.89.44,5.25-.53,2.47,2.72-1.79,6.47-3.71,5.63-2.41,4.47-.86,4,1,4.3,2.43,2.8,3.27,1.5,4.21.22,3.6-.9,3.47-2.08,3.78-3.02,3.61-3.04,2.59-3.78,1.77-4.78,1.1-4.99.26-5.18-.92-3.97-1.88-5.35-3.29-2.54-1.9-3.24,2.19-3.78,1.05-2.86.02,3.5,2.98.74,2.38.31,3.65-1.3,4.62-2.63,2.81-2.77,1.1.9,1.71.75,1.09.71,1.13,2.3,1s-.87-1.05,4.7,2.16c5.57,3.21,7.49,4.55,7.49,4.55l5.12,4.66,3.76,6,.4,3.77-1.75,5.28-2.44,1.55-3.35.03-5.39-2.33-4.3-3.29-3.96-4.42-2.25-5.68-1.53-4.63-1.42,1.52-3.08,1.39h-1.22s1.87,3.74,1.87,3.74l.81,5.11-2,5.79-3.4,6.13,1.9,2.07,5.66,4.93,3.62,3.16,5.98,2.58,4.53,1.28,4.3.63,6.43-.15,3.89-1.18,5.3-2.05,3.58-3.04,2.96-4.42,2.44-6.04.76-4.51-.71-7.14-2.04-5.19-3.73-5.25-5.07-5.62-2.48-1.66,5.21.57,10.92-1.83,6.15-2.52,5.8-4.14,4.16-4.7,3.44-5.71,3.71-7.63,1.97-6.48.43-7.55-1.73-8.03-3.75-7.27-4.2-4.48-8.08-4.95-4.85-2.09-5.09-.59-5.07-.26-5.01.61-5.63,1.9-3.23,1.79-4.48,3.61-3.31,3.62-.61,1.42Z"/><polygon class="cls-16" points="999.9 290 996.64 290.75 992.81 291.98 989.23 294.32 986.52 297.35 984.49 300.83 983.48 295.11 980.43 287.18 976.74 282.4 972.99 279.48 969.79 277.86 964.47 277.14 959.42 278.31 955.71 280.76 952.68 285.39 951.57 290.3 951.53 295.33 951.84 297.91 953.29 302.61 956.28 307.38 960.85 311.97 967.6 315.58 975.3 318.31 982.75 319.84 985.32 323.72 982.63 323.86 979.76 326 976.26 331.37 975.48 335.21 977.12 339.13 978.89 340.48 978.62 341.1 976.32 342.13 974.63 344.07 973.86 344.5 966.59 343.87 958.84 343.93 951.82 345.26 948.76 347.73 946.58 352 946.48 354.83 947.31 357.08 949.16 359.01 952.65 360.77 955.84 361.39 959.43 361.68 962.53 360.82 966.09 359.37 969.58 357.47 972.3 355.4 973.24 354.44 975.91 356.96 973.39 358.32 969.84 362.46 967.68 368.67 966.94 375.03 960.22 376.82 953.99 377.34 948.29 377.19 942.44 375.94 935.95 372.26 931.4 367.94 928.25 362.85 926 356.58 927.07 349.31 930.14 342.22 932.32 338.45 936.41 334.12 943.66 330.52 951.1 328.74 954.77 328.02 944.88 320.2 938.27 313.36 933.41 305.05 931.06 298.01 930.26 290.63 931.97 282.25 936.5 272.36 941.53 265.32 948.49 259.51 953.86 257.02 961.66 255.49 968.43 255.83 976.03 257.5 982.43 260.86 987.76 264.37 992.43 269.85 996 275.84 998.77 283.77 999.9 290"/><path class="cls-26" d="M998.09,290.42s-2.98-14.3-9.97-21.92c-6.99-7.61-16.31-9.43-16.31-9.43,0,0-8.28-2.58-18.25.71s-7.44,6.6-7.44,6.6c0,0,.17.55,2.11.48s4.64-1.34,7.62-2.03,9.95-1.8,14.94-.16,10.2,4.35,12.97,8.16,7.71,11.78,8.56,19.48l5.79-1.89Z"/><path class="cls-26" d="M934.72,284.68s1.19-2.75,3.94-1.73,2.08,3.39,2.08,3.39c0,0-2.4,10.66,4.49,19.85,6.89,9.18,12.73,12.61,12.73,12.61,0,0,2.36,1.4,1.41,4.53s-5.27.51-5.27.51c0,0-9.42-5.39-14.57-13.73-5.64-9.13-7.05-12.04-4.81-25.43Z"/><path class="cls-26" d="M947.74,337.41s3.24-.64,2.49-2.82-4.16-.99-4.16-.99c0,0-9.53,1.86-14.84,12.68-5.3,10.82.17,17.75.17,17.75,0,0,1.08,1.34,2.49.73s.45-3.23.45-3.23c0,0-2.33-5.89,1.52-13.87,2.98-6.17,7.5-8.04,11.87-10.26Z"/><path class="cls-26" d="M1029.57,364.74s-1.76-2.79.34-3.75,3.57,2.36,3.57,2.36c0,0,5.18,8.22.93,19.5-4.25,11.28-13.05,12.04-13.05,12.04,0,0-1.72.13-2.24-1.32s2.05-2.54,2.05-2.54c0,0,5.89-2.33,9.06-10.61,2.45-6.39.72-10.97-.66-15.67Z"/><path class="cls-26" d="M1012.1,296.9s11.62-10.13,21.52-11.07c9.9-.94,18.4,4.51,18.4,4.51,0,0,6.94,4.38,10.45,14.54s-1.17,11.5-1.17,11.5c0,0-.51.32-1.63-1.19s-1.28-5.13-2.54-7.92-4.17-9.34-8.38-11.76-10.47-4.45-14.99-3.43c-4.52,1.02-13.32,5.08-19.61,10.71l-2.05-5.88Z"/><path class="cls-26" d="M1057.59,333.23s1.19-2.75-1.44-4.06-3.9.81-3.9.81c0,0-6.12,9.06-17.53,10.33s-17.91-.64-17.91-.64c0,0-2.63-.76-4.27,2.08s3.24,4.19,3.24,4.19c0,0,10.38,3.17,19.98,1.2,10.51-2.15,13.6-3.11,21.81-13.92Z"/><path class="cls-13" d="M1019.09,294.18s10.6-7.52,15.82-6.77c6.35.9-3.51,3.15-3.51,3.15l-13.23,7.23s-.86,1.19-2.58.45,3.5-4.06,3.5-4.06Z"/><path class="cls-13" d="M1040.96,288.07s6.7.16,11.13,4.81c4.44,4.65-4.07-.13-4.07-.13,0,0-4.49-2.37-7.03-2.82s-.04-1.86-.04-1.86Z"/><path class="cls-13" d="M1015.79,341.95s12.21,1.51,17.15.46c0,0,1.06,0,1.47,1s-2.44,1.33-2.44,1.33c0,0-10.32.63-16.56-1.12,0,0-.65-.01-.74-1.02s1.11-.64,1.11-.64Z"/><path class="cls-13" d="M1031.98,363.46s-.33-1.01-1.13-.75-.39,1.4-.39,1.4c0,0,1.6,3.55,1.7,6.31,0,0,.3.83.92.7s.58-.88.58-.88c0,0,.08-2.56-1.67-6.78Z"/><path class="cls-13" d="M1033.93,372.56s-.2-.45-.67-.57-.59.55-.59.55c0,0,.31,1.25.16,1.85s.77,1.05.98.55.12-2.39.12-2.39Z"/><path class="cls-13" d="M993.84,283.18s-3.49-12.51-8.02-15.23c-5.5-3.3.74,4.66.74,4.66l5.72,13.96s-.08,1.47,1.72,1.98-.16-5.36-.16-5.36Z"/><path class="cls-13" d="M981.01,265s-4.71-4.76-11.13-4.81,2.88,2.87,2.88,2.87c0,0,4.81,1.65,6.87,3.19s1.38-1.25,1.38-1.25Z"/><path class="cls-13" d="M955.67,321s-9.47-7.86-12.08-12.17c0,0-.74-.77-1.74-.39s.7,2.68.7,2.68c0,0,6.61,7.94,12.16,11.29,0,0,.46.47,1.25-.16s-.29-1.25-.29-1.25Z"/><path class="cls-13" d="M946.77,335.04s.96-.46,1.32.31-.75,1.24-.75,1.24c0,0-3.68,1.26-5.76,3.09,0,0-.8.35-1.14-.19s.25-1.03.25-1.03c0,0,1.81-1.81,6.08-3.43Z"/><path class="cls-13" d="M938.81,339.85s.47-.17.87.09,0,.81,0,.81c0,0-1.12.63-1.46,1.16s-1.29.16-1.08-.33,1.66-1.72,1.66-1.72Z"/><polygon class="cls-23" points="1005.77 284.61 1004.69 283.74 1003.56 282.6 1001.82 283.19 1002.46 285.16 1004.35 289.34 1003.3 290.87 997.29 290.6 991.85 292.46 986.52 296.84 983.73 302.08 982.15 307.9 981.41 314.35 982.26 318.63 984.87 323.31 980.96 324.85 977.42 329.06 976.16 331.87 975.85 336.2 977.54 339.53 979.23 341.09 976.89 341.71 975.18 343.31 973.39 346.36 971.78 350.98 973.23 354.08 976.43 356.96 973.32 358.01 970.61 361.57 968.59 366.07 967.18 371.25 967.16 376.9 969.58 381.39 972 383.85 974.72 385.25 976.04 388.81 975.12 392.86 972.83 400.88 972.05 404.55 972.53 408.12 973.63 408.14 975.03 406.27 975.57 399.97 977 393.05 979.32 387.47 982.11 386.94 985.88 384.44 989.95 378.48 992.36 372.07 992.38 366.42 990.18 361.55 991.98 361.02 995.73 359.63 996.86 356.46 998.08 353.55 996.8 349.64 994.7 346.35 996.21 345.47 999.67 342.92 1001.46 339.26 1001.6 335.03 999.25 330.79 996.83 328.8 1002.36 327.89 1006.07 325.75 1009.45 321 1012.62 314.79 1014.08 310.28 1014.97 304.39 1013.71 300.39 1011.88 296.4 1009.37 293.95 1007.04 292.28 1007.31 291.19 1013.11 289.38 1013.17 288.09 1012.14 286.83 1010.7 285.82 1010.67 283.6 1009.44 282.83 1007.58 283.17 1005.77 284.61"/><path class="cls-21" d="M1001.88,294.18s9.28,7.67.25,21.43c-9.02,13.76-16.71,4.92-16.71,4.92,0,0-4.46-7.01.66-17.26,5.13-10.25,12.67-11.14,15.79-9.09Z"/><path class="cls-21" d="M987.41,327.67s-5.62-3.31-8.33,4.06c-2.71,7.37,3.69,8.1,3.69,8.1,0,0,3.46,1.15,5.68-6.37,0,0,1.85-3.88-1.05-5.79Z"/><path class="cls-21" d="M982.35,346.08s-3.8-4.31-6.64-.14-.43,7.54-.43,7.54c0,0,3.38,2.45,5.24-.64s1.94-5.84,1.82-6.76Z"/><path class="cls-21" d="M978.3,361.23s-3.13-2.57-5.8,1.79-3.26,14.33-.66,17.32,5.69.14,5.69.14c0,0,4.84-17.37.77-19.24Z"/><path class="cls-21" d="M1006.78,289.78l-.93-.4s.97-6.03,3.13-5.47c0,0,1.18-.27.33,1.1s-2.53,4.77-2.53,4.77Z"/><path class="cls-21" d="M1012.05,288.32l-4.57,1.91-.39-.31,3.08-2.62s1.48-.23,1.88,1.02Z"/><path class="cls-25" d="M1005.45,289.35l-.33.03-2.12-4.98s.04-.82.66-.25,1.79,5.2,1.79,5.2Z"/><path class="cls-25" d="M1000.34,306.34s-.89-10.93-8.21-4.86-3.23,15.42-3.23,15.42c0,0,.46,2.81,4.82,1.65s6.63-12.21,6.63-12.21Z"/><path class="cls-25" d="M985.15,329.57s-3.91-.5-4.21,5.76,4.55-1.52,4.55-1.52c0,0,1.36-2.29-.33-4.24Z"/><path class="cls-25" d="M978.67,346.6s-2.55.19-1.77,4.1,2.92-1.64,2.92-1.64c0,0,.06-3.07-1.15-2.46Z"/><path class="cls-25" d="M977.43,366.05s-2.09-4.74-3.8,1.23c-1.71,5.97.23,10.47.23,10.47,0,0,.31,1.79,1.87-1.02,1.56-2.81,1.7-10.68,1.7-10.68Z"/><path class="cls-7" d="M1011.8,295.54s9.01-15.8,29.21-11.95,23.92,19.05,23.92,19.05c0,0,7.74,16.15-8.98,36.9-16.72,20.74-50.76,7.77-54.68,2.94"/><path class="cls-7" d="M1014.16,311.02s14.96-10.61,21.26-8.67,10.24,5.12,11.03,12.17c.79,7.05-6.79,14.49-10.16,16.26s-12.77,4.15-19.56.7c-6.78-3.45-10.18-6.49-10.18-6.49"/><path class="cls-7" d="M1024.47,350.67s10.05,5.57,13.56,17.2-4.3,21.23-4.3,21.23c0,0-3.04,5.83-13.12,7.57s-20.35-3.31-20.35-3.31c0,0-8.21-4.59-12.57-11.44"/><path class="cls-7" d="M997.36,350.11s25.06,8.74,23.2,22.92c-1.86,14.18-19.21-.11-21.27-5.01s-3.11-9.53-3.11-9.53"/><path class="cls-7" d="M999.74,290.36s-.37-22-20.66-31.23c-20.29-9.23-32.59,1.48-35.51,3.94s-13.85,18.06-13.32,29.21,7.29,20.23,7.29,20.23c0,0,12.12,14.96,25.61,19.76s12.56,4.21,12.56,4.21"/><path class="cls-7" d="M982.18,319.71s-28.84-3.17-30.61-23.8c-1.77-20.63,15.05-19.37,17.56-18.32,2.67,1.12,13.84,5.19,15.23,23.49"/><path class="cls-7" d="M954.78,328.02s-19.13,1.87-24.38,13.63-4.8,16.14-1.75,21.99,8.12,11.44,19.55,13.24c11.42,1.8,18.87-2.13,18.87-2.13"/><path class="cls-7" d="M973.92,344.77s-23.9-4.79-27.1,6.26,13,10.65,13,10.65c0,0,9.32-2.42,13.56-7.38"/><path class="cls-7" d="M1012.58,297.44s-6.59-10.34-18.71-5.91-13.31,23.35-12.09,25.97,1.59,6,8.09,8.9,10.4,2.52,13.99.9c3.34-1.51,8.81-10.9,10.14-15.69s1.02-8.5-1.41-14.17Z"/><path class="cls-7" d="M996.12,328.36s7.52,4.08,5.29,11.04-7.51,6.69-7.51,6.69c0,0-7.37.12-16.6-6.74,0,0-4.66-5.15,1.81-12.55,0,0,2.98-4.42,6.54-2.97"/><path class="cls-7" d="M994.1,346.09s5,3.64,3.23,9.61c-1.77,5.97-6.59,5.87-6.59,5.87,0,0-.36-.05-.98-.17-2.68-.48-10.21-2.06-14.35-5.13-5.1-3.77-2.74-8.04-2.74-8.04,0,0,2.46-8.36,7.36-7.02"/><path class="cls-7" d="M989.92,361.44s6.36,6.54-.99,18.69c-7.35,12.16-8.39,2.88-10.87,9.71-2.49,6.83-2.92,13.2-2.92,13.2,0,0,.33,3.4-1.51,5.1s-1.76-4.13-1.38-4.95,4.2-12.88,3.34-16.27-2.75-2.63-5.36-4.53c-2.15-1.56-4.28-3.53-3-11.46,1.28-7.93,4.87-11.26,4.87-11.26,0,0,2.18-2.89,4.28-2.51"/><path class="cls-7" d="M1007.35,292.09s.54-1.1-1.23-1.87-2.14-.06-2.3.34"/><path class="cls-7" d="M1007.74,290.92l5.37-1.54s.95-1.86-1.93-3.07c0,0-1.08-.52-.54-2.12s-2.7-2.09-4.33.01c0,0-.59,1.43-1.97-1.02,0,0-1.74-1.21-2.44.75l2.45,5.41"/><path class="cls-23" d="M855.37,163.67s-1.01,10.11-5.57,10.06c0,0,5.29,1.84,5.44,11.79,0,0,.4-11.27,4.4-11.44,0,0-4.46-2.31-4.28-10.4Z"/><path class="cls-27" d="M867.03,199.56s-2.23,18.66-12.3,18.55c0,0,11.69,3.4,12.03,21.74,0,0,.88-20.78,9.73-21.1,0,0-9.87-4.25-9.46-19.19Z"/><path class="cls-23" d="M882.36,176.52s-1.48,13.28-8.18,13.2c0,0,7.77,2.42,8,15.47,0,0,.58-14.79,6.47-15.02,0,0-6.56-3.03-6.29-13.66Z"/><path class="cls-27" d="M615.7,663.63s-1.97,17.57-10.89,17.47c0,0,10.35,3.2,10.65,20.47,0,0,.78-19.57,8.62-19.87,0,0-8.73-4-8.38-18.07Z"/><path class="cls-23" d="M602.15,696.03s-2.9,24.44-15.98,24.3c0,0,15.19,4.46,15.63,28.48,0,0,1.14-27.23,12.65-27.64,0,0-12.82-5.57-12.3-25.14Z"/><path class="cls-27" d="M630.2,694.55s-1.1,13.64-6.06,13.56c0,0,5.77,2.49,5.93,15.89,0,0,.43-15.2,4.8-15.43,0,0-4.87-3.11-4.67-14.03Z"/><path class="cls-23" d="M180.01,753.41s-2.66,21.22-14.68,21.1c0,0,13.95,3.87,14.35,24.73,0,0,1.05-23.64,11.61-24,0,0-11.77-4.84-11.29-21.83Z"/><path class="cls-27" d="M168.47,642s-1.54,13.64-8.5,13.56c0,0,8.08,2.49,8.31,15.89,0,0,.61-15.2,6.73-15.43,0,0-6.82-3.11-6.54-14.03Z"/><path class="cls-27" d="M636.28,166.68s-2.23,18.66-12.3,18.55c0,0,11.69,3.4,12.03,21.74,0,0,.88-20.78,9.73-21.1,0,0-9.87-4.25-9.46-19.19Z"/><path class="cls-27" d="M533.68,115.75s-2.23,18.66-12.3,18.55c0,0,11.69,3.4,12.03,21.74,0,0,.88-20.78,9.73-21.1,0,0-9.87-4.25-9.46-19.19Z"/><path class="cls-23" d="M1028.34,709.97s-2.83,22.62-15.6,22.49c0,0,14.83,4.12,15.26,26.36,0,0,1.11-25.2,12.35-25.58,0,0-12.52-5.16-12-23.26Z"/><path class="cls-27" d="M950.15,841.43s-1.97,17.57-10.89,17.47c0,0,10.35,3.2,10.65,20.47,0,0,.78-19.57,8.62-19.87,0,0-8.73-4-8.38-18.07Z"/></svg>