<?xml version="1.0" encoding="UTF-8"?><svg id="Layer_15" xmlns="http://www.w3.org/2000/svg" width="1087" height="965" viewBox="0 0 1087 965"><defs><style>.cls-1{fill:#f9c7bd;}.cls-2{fill:#f1f0f2;}.cls-3{stroke:#2a2a2b;}.cls-3,.cls-4,.cls-5,.cls-6,.cls-7,.cls-8{fill:none;}.cls-3,.cls-4,.cls-6{stroke-miterlimit:10;}.cls-9{fill:#fccf86;}.cls-10{fill:#584168;}.cls-11{fill:#aea3e5;}.cls-12{fill:#28282b;}.cls-13{fill:#7062b2;}.cls-14{fill:#d6b4b4;}.cls-4{stroke:#342f47;}.cls-5{stroke:#ffc865;stroke-width:1.5px;}.cls-5,.cls-7,.cls-8{stroke-linecap:round;stroke-linejoin:round;}.cls-15{fill:#e5d0c6;}.cls-16{fill:#5d4896;}.cls-17{fill:#d4e0f0;}.cls-18{fill:#ded7d7;}.cls-19{fill:#1f1f21;}.cls-20{fill:#e5d3a1;}.cls-21{fill:#ffcf83;}.cls-22{fill:#fce8db;}.cls-23{fill:#ffc865;}.cls-24{fill:#313133;}.cls-25{fill:#ffd89f;}.cls-26{fill:#6352a0;}.cls-27{fill:#ffebae;}.cls-28{fill:#f4ede4;}.cls-29{fill:#c6c6c6;}.cls-6{stroke:#ce9841;}.cls-30{fill:#b0c0d1;}.cls-7{stroke:#543787;}.cls-31{fill:#9b88d9;}.cls-32{fill:#f9d5a0;}.cls-8{stroke:#584168;}</style></defs><path class="cls-11" d="M996.78,364.66c4.97-16.98,10.37-34.38,12.68-52.18,8.24-59.2-16.13-105.85-78.36-118.12-41.28-8.81-87.19-5.06-128.84-12.61-19.65-3.4-38.62-9.11-56.74-17.33-42.06-18.82-76.44-49.59-116.57-73.06-23.32-13.56-47.95-24.87-73.93-31.32-91.48-24.05-138.07,44.72-173.23,117.86-17.07,35.87-29.53,78.67-45.18,112.56-20.27,44.68-50.08,71.4-100.18,72.54-31.61,1.1-63.87-6.3-95.53-8.29-58.28-4.59-105.98,14.61-126.31,73.16-25.17,73.2,19.34,139.6,65.92,196.15,26.38,32.64,55.44,67.04,79.1,102.07,17.68,25.99,33.07,52.84,45.92,80.7,6.65,14.41,12.48,28.31,18.05,42.65,14.17,35.44,20.15,59.11,48.55,78.22,55.31,34.9,125.76,29.33,186.69,9.48,45.49-14.58,88.54-35.55,134.29-50.19,41.31-13.68,85.12-23.05,128.01-27.62,21.82-2.3,42.53-3.65,63.92-3.49,27.12.09,43.17,3.66,65.77,3.41,36.21-.57,69.42-19.17,94.45-45.48,54.38-57.94,53.61-142.77,50.36-218.13-1.4-35.69-3.34-71.93-5.14-107.35-1.33-29.42-4.55-66.27-.79-91.96,1.45-10.79,4.03-20.99,7.07-31.54l.04-.12h-.02Z"/><path class="cls-31" d="M406.74,200.59c-28.7-.37-55.1-10.57-84.02-9.61-52.95.28-100.73,34.83-122.78,82.42-11.59,23.76-18.17,49.6-24.17,75.23-8.66,37.4-16.38,74.38-28.86,110.53-10.56,31.88-29.51,74.2-44.97,98.35-11.33,18.57-19.23,25.34-30.54,40.76-26.03,40.21-46.36,91.34-40.05,147.7,4.75,40.89,25.42,86.59,57.65,110.86,13.67,10.01,29.56,14.39,46.28,16.22,35.29,3.29,76.1-.94,113.52-10.55,35.19-9.1,67.54-24.39,102.89-26.91,33.28-2.37,67.46,4.16,95.84,21.15,17.55,10.92,29.96,24.89,47.65,38.23,13.77,10.49,28.38,19.78,44.19,27.83,107.22,55.39,206.13,26.28,262.79-80.96,12.49-22.93,22.38-42.68,40.31-60.91,22.06-22.89,50.76-39.98,80.16-52.89,30.43-13.78,65.59-22.29,92.07-38.39,37.11-22.68,58.3-64.09,63.94-106.8,11.56-92.98-36.92-174.13-107.24-230.36-5.63-4.55-11.32-8.68-17.16-12.47-13.7-8.9-23.48-12.18-33.07-23.38-19.78-23.11-32.63-60.53-36.26-94.85-5.72-47.59-1.84-101.73-21.84-147.24-27.46-67.3-110.56-86.51-171.2-54.2-42.49,22.77-70.09,67.82-108.48,101.18-47.32,42.92-112.31,78.77-176.49,79.06h-.16Z"/><polygon class="cls-17" points="439.34 461.2 437.61 461.73 436.18 463.49 440.95 466.41 438.06 486.32 435.37 496.68 429.56 510.82 423.46 517.24 417.99 519.93 411.98 519.1 408.16 515.01 404.23 507.34 401.54 498.14 399.36 486.44 391.79 489.25 386.57 490.41 395.6 509.58 407.55 531.15 414.67 541.8 424.01 552.6 427.01 555.1 464.3 575.41 489.57 586.26 508.18 593.49 536.03 603.27 563.79 611.75 592.18 619.01 629.63 626.42 659.19 630.3 680.94 632.57 700.07 635.63 717.78 639.27 733.83 643.25 738.02 640.19 742.29 634.36 745.24 628.31 747.16 619.21 748.07 605.16 747.93 597.49 746.46 586.47 743.52 575.78 738.38 563.12 729.76 544.57 721.52 524.98 719.51 516.65 719.45 508.45 719.48 493.45 716.57 478.26 712.68 469.99 707.99 466.03 703.14 471.64 694.52 480.41 686.05 487.26 675.95 494.07 666.62 499.12 653.76 504.98 631.05 513.64 621.05 515.98 620.62 516.41 606.81 512.69 600.62 511.93 594.76 512.26 587.33 515.07 572.48 517.93 558.91 517.69 548.71 514.64 538.95 509.31 532.05 501.3 519.77 490.07 502.87 476.26 487.19 465.49 478.86 460.87 472.36 458.04 463 455.59 452.09 455.16 446.86 457.43 439.34 461.2"/><path class="cls-30" d="M621.95,516.02l12.96-3.75s-1.11,5.54,21.99,10.61l-35.99-6.36,1.04-.51h0Z"/><polygon class="cls-30" points="440.95 465.93 448.96 461.76 453.27 457.08 457.12 455.89 452.09 455.16 445.39 458.32 437.26 462.16 436.51 463.13 440.95 465.93"/><path class="cls-30" d="M388.49,494.48s5.34-5.37,11.58-3.43l-.71-5.04-6.7,2.55-6.17,1.69,2,4.24h0Z"/><path class="cls-30" d="M464.45,574.97l6.78,3.57,6.62,2.86s-6.42-10.74,4.41-84.64l-4.12,25.52-4,17.81-4.76,18.86-3.81,11.33-1.12,4.69Z"/><path class="cls-27" d="M438.06,462.1l11.35-5.86,15.62-5.74,14.88-4.59,12.72-2.78h8.1l12.16,2.58,15.95,5.43,21.92,8.47,19.54,6.01,15.01,2.7,16.98.89,14.22-1.71,14.86-3.98,12.47-4.62,12.61-8.02,6.28-6.58,2.79-6.25.63-4.95-.02-2.07,9.85-4,6.99-3.7,13.52-8.94,10.53-8.75,6.83-7.51,7.88-10.09,6.89-11.09,5.51-11.32,2.19-5.96,3.43-10.05,2.86-13.51s.41-1.93-.54-4.6c0,0-2.25,10.63-9.52,13.59l3.21-6.78,4.44-13.92,1.05-10.41-1.07-7.11-2.59-8.09-5.1-8.47-6.79-7.6-7.18-5.72-3.44-1.19,2.96,7.83,3.11,10.44,1.43,12.67-1.11,11.9-3.94,10.54-6.98,9.43-3.97,3.05-6.95,4.79-5.62,3.27s9.7-10.8,11.56-19.65l2.6-8.76-.75-9.64-2.08-5.79-4.91-5.66-4.95-3.86-5.8-3.15-6.48-1.82,6.57,5.13,4.92,4.98,2.1,4.86.32,5.49-2.29,4.79-4.98,6.06-7.68,6-11.9,6.17-13.27,5.32-14.25,4.94-16.82,4.05-16.25,2.87h-13.08l-8.21-.52-10.4-.89-9.3-.89-17.62-1.87-18.7-3.25-15.61-2.91s-34.11-12.19-64.48-2.45l-35.33-6.89-22.96,13.1-16.21,11.46-12.37,11.15-8.95,12.55-5.01,10.07-2.04,7.05-2.59,8.97-.81,15.7,2.64,4.8,3.45,3.49,3.67,1.95.64.16.25-5.33-.95-5.78,82.38,40.41-.02-.04Z"/><path class="cls-27" d="M534.6,315.84s-4.12,11.23-29.74,15.19l21.81,1.43,20.84,3.51,10.66,2.34,14.25,2.3,18.17,1.1,12.55-.82,9.33-1.76,8.2-2.72,7.77-4.29,5.55-5.72,1.39-3.22s3.91,18-12.15,26.48l-32.73,11.9-95.33-14.29-48.95-7.43-29.02-7.05,14.71-7.02,20.63-6.11,16.83-2.97,16.21-1.69,14.86-.74,12.88,1.69,11.5,2.19,4.29.14,3.93-.67,1.6-1.8-.04.03Z"/><path class="cls-20" d="M533.8,431.53s72.07,28.61,131.21.23c0,0-25.34,15.71-131.21-.23Z"/><path class="cls-20" d="M589.94,389.4s102.74,8.82,142.28-44.46c0,0-29.24,64.11-142.28,44.46h0Z"/><path class="cls-20" d="M657.1,360.61s70.75-6.18,65.18-56.47c0,0,16.72,50.76-65.18,56.47Z"/><path class="cls-20" d="M516.52,342.5s98.39,19.98,118.61-8.4c0,0-.04,11.19-13.18,16.19l-19.24,1.86-8.98-.1-16.3-1.26-16.53-1.59-14.51-1.61-11.04-1.73-18.83-2.97v-.4h0Z"/><path class="cls-20" d="M707.45,312.13s2.67,28.36-17.65,39.64l-8.25,3.17-10.07,2.83-11.52,2.09-3.2.34s46.2-5.41,50.7-48.08h0Z"/><path class="cls-20" d="M459.38,336.29l12.45-2.49,10.76-1.63s4.26-.89,13.26-1.02,10.48-.11,10.48-.11c0,0,15.05-2.3,23.71-9.67-1.5,1.05-14.51,6.07-29.33,6.16-17.65.11-35.31,5.83-41.33,8.75h0Z"/><path class="cls-20" d="M426.71,439.82l.84,4.5s22.33-7.68,22.92-13.49l-7.32,4.63-7.71,3.11-8.73,1.25h0Z"/><path class="cls-20" d="M437.67,462.16l3.28-7.3.6-5.34-1.25-4.24s5.04,1.97,1.25,14.32l-3.88,2.57h0Z"/><path class="cls-20" d="M435.43,382.75s-42.63,6.44-44.97,14.99l4.08-4.44,3.78-2.66,5.27-2.6,5.78-1.86,6.73-1.25,6.45-.63,6.5-.27,6.37-1.27h.01Z"/><path class="cls-20" d="M380.94,390.24l3.08-6.68,4.51-4.52,6.44-3.68,7.57-2.23,5.63-.74s-22.29,5.56-27.24,17.84h0Z"/><polygon class="cls-20" points="346.54 423.07 349.23 423.56 352.27 423.32 355.65 421.8 356.4 426.05 356.66 430.83 356.38 432.8 353.32 431.91 349.66 428.51 347.64 425.41 346.54 423.07"/><path class="cls-22" d="M399.36,486.6l1.87,10.47,2.64,9.3,3.39,7.29,3.95,4.59,5.23,1.83,2.96-.55,4.26-2.41,4.52-4.86,3.02-5.02,2.54-5.78,1.89-5.56,2.17-8.4,1.03-6.52,1.17-6.09.6-5.07.34-3.89-4.77-2.44,3.38-5.25,1.65-4.65.59-7.02-4.12-2.79-4.76-.38-5.32,1.2-.78-4.78-7.17-.89-6.29-2.69-5.88-4.68-4.12-4.99-4.43-7.61-4.94-12.9s-6.26-17.02-16.68-13.78c0,0-3.15-2.77-8.19,3.76s-6.04,14.38-6.04,14.38l-2.8,5.57-3.06,4.22-1.28,1.36.82,10.77-.62,4.77-2.38,7.85-.72,6.68v7.12l1.48,8.51,3.36,10.11,4.78,7.67,7.08,5.7,7.56.78,10.94-1.53,10.27-3.38.85-.03h0Z"/><polygon class="cls-22" points="467.76 456.57 460.79 455.36 453.33 457.43 448.29 461.58 446.04 469.7 441.51 494.41 435.4 522.89 430.6 542.62 426.63 558.84 424.76 567.92 421.83 577.15 411.7 587.14 384.14 609.98 349.03 638.02 343.92 635.67 334 630.72 326.66 630.5 322.63 632.76 314.64 629.97 307.69 630.25 303.24 632.85 300.43 635.56 294.86 634.68 288.03 634.09 281.3 634.09 276.98 636.8 274.52 639.52 275.45 642.14 278.98 642.34 284.22 641.14 286.95 641 284.03 642.14 281.56 643.71 280.18 645.83 281.15 647.71 283.42 647.97 288.28 646.82 292.41 646.56 292.85 651.23 293.55 652.63 290.13 653.71 287.92 656.15 287.42 657.71 287.86 658.58 289.35 659.09 292.41 658.79 298.96 659.31 304.96 660.47 309.56 661.98 317.63 664.41 324.92 665.42 333.23 665.21 343.92 662.79 353.06 657.83 394.52 633.83 429.83 613.92 443.61 604.28 454.29 594.95 459.38 588.08 462.57 580.27 469.26 559.3 475.17 535.82 479.76 513.8 482.06 495.29 482.06 483.48 480.79 473.81 478.15 465.93 474.7 460.57 470.11 457.26 467.76 456.57"/><polygon class="cls-22" points="382.44 491.55 380.67 492.84 338.91 518.16 305.21 538.6 255.08 556.7 215.22 571.01 210.01 573.74 202.57 574.97 194.77 572.62 187.5 566.74 178.35 560.18 170.36 557.12 162.89 556.31 159.52 556.63 152.1 555.04 146.59 555.14 142.25 555.29 141 556.31 141.9 558.27 144.22 559.09 148.58 559.81 143.85 561.6 140.12 563.67 138.01 565.16 138.01 566.79 139.21 567.57 142.46 568 147.43 566.99 146.23 568.81 145.49 571.93 145.48 574.72 147.32 575.6 149.95 574.85 152.83 571.99 152.92 574.97 153.72 576.82 155.51 576.82 158.89 574.47 162.83 572.12 167.84 571.42 172.1 571.06 174.87 574.07 178.37 577.75 179.91 580.61 179.28 582.73 176.87 582.95 173.29 581.34 168.73 579.93 163.4 578.71 158.83 578.49 155 579.04 153.52 580.37 154.2 582.95 156.94 585.93 169.55 589.84 182.3 594.95 191.71 596.72 203.96 595.48 230 590.35 265.41 583.38 288.11 577.16 329.15 565.75 352.13 556.5 384.79 543.27 408.68 533.59 391.25 500.71 386.57 490.41 382.43 491.13 382.44 491.55"/><polygon class="cls-22" points="743.25 574.78 750.45 572.48 758.88 571.58 766.71 571.31 763.29 555.02 761.55 537.59 761.75 517.39 765.29 499.3 767.28 486.23 767.95 477.02 767.95 465.93 765.56 457.26 765.57 451.35 768.79 446.69 774.98 444.14 778.06 443.68 783.59 440.01 794.7 428.8 806.37 415.22 812.99 407.22 815.02 405.64 816.49 406.38 817.79 406.91 820.3 406.24 822.24 407.38 824.79 406.11 826.21 406.83 829.05 406.61 831.38 408.03 834.89 408.18 838.14 409.41 838.95 412.26 838.95 414.28 831.67 422 821.87 432.75 810.13 442.28 802.06 450.09 796.73 459.87 793.64 468.61 792.67 478.47 797.64 502.19 801.78 525.67 804.32 542.69 805.83 554.92 814.27 551.08 837.15 542.78 852.22 538.53 871.84 533.14 886.03 529.84 897.46 523.11 902.97 516.87 906.8 508.45 907.97 501.5 910.43 499.65 915.97 498.73 923.46 499.87 931.64 503.8 939.27 504.33 952.56 503.14 965.15 499.63 975.33 498.71 981.44 501.41 985.9 505.03 988.32 509.01 988.32 512 987.89 514.03 986.8 518.09 985.75 521.14 980.22 522.66 970.7 522.91 963.08 524.18 956.31 526.97 944.9 531.89 933.03 536.21 916.87 541.71 908.07 544.82 885.75 554.62 845.55 572.94 813.92 588.96 807.35 593.79 804.71 605.09 802.34 608.58 794.35 613.33 780.67 619.04 767.91 622.22 756.1 624.44 745.81 626.53 748.54 611.1 747.52 598.15 746.95 588.75 743.25 574.78"/><path class="cls-15" d="M393.79,405.36l4.72,12.49,4.85,8.71,6.16,6.89,6.39,4.12,8.65,2.18,2.25.06.76,4.69s-30.3-2.4-33.79-39.14h0Z"/><path class="cls-15" d="M377.32,392.02s-6.54.37-9.4,10.91-8.07,20.59-11.68,21.71l-.58-2.85,2.73-2.74,2.95-5.13,3.27-6.55,1.3-6.01,3.22-5.33,4.23-4.01,2.74-.49,1.22.49h0Z"/><path class="cls-15" d="M372.78,430.63l1.59,5.13-.95,4.51-2.11,3.12-2.53,2.87-.42.65s4.79-8.34,4.41-16.28h.01Z"/><path class="cls-15" d="M416.94,474.5s-9.45,9.26-9.89,16.75l-3.24-2.16-2.82-2.42-1.63-.67,5.27-2.68,5.97-4.06,6.34-4.75h0Z"/><path class="cls-15" d="M433.75,450.29l-2.36,2.19-.93,3.4s3.07-1.44,3.29-5.6h0Z"/><path class="cls-15" d="M425.87,466.38l2.92.47,3.31-.69,3.23-1.85,1.49-.82,4.12,2.58s-11.29,4.53-15.07.31h0Z"/><path class="cls-15" d="M399.65,486.45l2.68,1.38,3.43,2.58,3.41,3.79,1.08,2.86,3.49,5.24,3.33,8.35s-10.64-19.56-17.03-19.73l-.39-4.46h0Z"/><path class="cls-15" d="M379.18,493.9s6-1.54,27.8,40.39l1.88-1.18-16.85-30.8-5.44-11.9-4.87.52v.87l-2.52,2.11h0Z"/><path class="cls-15" d="M145.48,560.92s13.76,5.03,19.7,10.49h5.99l-6.86-5.25-10.57-5.25-5.16-1.11-3.1,1.11h0Z"/><polygon class="cls-15" points="300.01 635.48 294.69 642.83 291.76 642.14 297 634.97 300.01 635.48"/><path class="cls-15" d="M285.2,642.14s4.87-.43,7.21,4.18l1.83-3.49-5.9-1.49-3.13.8h0Z"/><polygon class="cls-15" points="315.78 639.01 309.92 638.46 304.02 642.83 300.43 647.04 305.41 646.32 309.73 646.32 311.22 646.56 314.17 642.75 315.78 639.01"/><path class="cls-15" d="M329.35,639.14l-7.67,8.63-4.74,4.31-4.04,1.94s8.83,3.11,16.45-14.88Z"/><path class="cls-15" d="M743.56,574.6l5.13-1.55s10.78,24.49,4.06,52.07l-7.26,1.46,1.88-10.32.83-14.03-1.08-11.11-2.1-12-1.47-4.52h0Z"/><path class="cls-15" d="M806.14,554.43l2.35-1s4.78,28.5,2.53,37.31l-3.67,3.05.28-15.44-1.49-18.35v-5.57h0Z"/><path class="cls-1" d="M362.17,459.64h23.81s-2.15,11.64-13.8,10.76-10-10.76-10-10.76h-.01Z"/><path class="cls-10" d="M363.3,429.24s-6.9,4.58.29,10.11l2.7-.87,1.63-2.51-.42-3.96-2.06-2.77h-2.14Z"/><polygon class="cls-10" points="391.92 432.98 390.06 435.81 389.67 439.35 391.22 442.14 393.48 442.83 395.5 442.36 397.42 439.35 396.73 435.42 394.76 433.28 391.92 432.98"/><circle class="cls-2" cx="362.29" cy="432.13" r=".77"/><circle class="cls-2" cx="391.95" cy="435.97" r=".77"/><path class="cls-8" d="M409.89,533.1l-80.25,32.51-62.98,17.52-67.05,13.21s-9.9,2.29-22.35-3.3-20.32-7.11-20.32-7.11c0,0-9.52-7.75,2.86-7.43s14.92,4,14.92,4c0,0,8,2.54,4.38-3.68-2.28-3.92-10.65-10.6-19.94-15.11-3.58-1.73-7.29-3.15-10.85-3.96-1.86-.42-3.67-.68-5.4-.74,0,0-6.16-3.62,3.68-3.87s20.95,3.75,20.95,3.75c0,0,7.24,2.98,11.3,7.62"/><path class="cls-8" d="M157.76,563.71s-8,1.27-12.38,3.49-10.22-.44-6.54-2.73,7.13-4.49,11.22-4.27"/><path class="cls-8" d="M164.51,566.6s-8.27.09-13.41,7.52c0,0-5.21,4-5.59-1.08s3.22-7.18,3.22-7.18"/><path class="cls-8" d="M171.51,571.3s-7.66-1.63-13.43,3.67-5.28-.86-5.21-3.02"/><path class="cls-8" d="M381.7,492.21l-76.95,46.67-89.52,32.13s-12.32,9.52-23.94-.95-18.48-14.22-29.65-13.4"/><path class="cls-8" d="M416.94,474.5s-17.81,16.76-40.19,17.05-24-36.19-24-36.19c0,0-.57-7.33,2.67-15.81s-.19-19.33-.19-19.33"/><path class="cls-8" d="M373.22,430.69s3.24,7.33-1.14,11.9-5.62,5.71-2.19,9.05"/><path class="cls-8" d="M361.79,459.64h24.48s-3.24,12.29-14.1,10.76-10.38-10.76-10.38-10.76Z"/><path class="cls-8" d="M387.32,419.64s8.19-4.76,12.95,1.24"/><path class="cls-8" d="M367.92,417.85s-4.03-5.6-10.41,0"/><path class="cls-8" d="M377.32,392.02s-7.05-4.86-13.43,16-17.43,14.76-17.43,14.76c0,0,1.81,7.63,10.28,10.2"/><path class="cls-8" d="M345.98,422.41s-1.77-36.48,25.16-60,60.36-36.48,60.36-36.48c0,0,27.43-10.95,61.62-11.33,0,0,13.81-.86,29.05,2.95s13.71-6.67,13.71-6.67"/><path class="cls-8" d="M452.27,339.26s37.71-16.76,98.86-2.48,85.33-6.1,84.19-15.33"/><path class="cls-8" d="M516.75,341.72s64.48,13.26,96.48,9.74,119.33-31.43,68.19-61.14c0,0,37.81,8.26,23.52,41.28"/><path class="cls-8" d="M656.75,360.21s93.05-6.67,58-85.14c0,0,41.05,19.52,20.57,64.19s-109.71,49.9-109.71,49.9c0,0-33.05,1.14-37.24,0"/><path class="cls-8" d="M533.13,431.45c2.1,0,91.05,17.33,135.14-.95,68.41-28.37,74.48-95.62,74.48-95.62"/><path class="cls-8" d="M658.08,412.26s32.19,35.04-32,52.83c-64.19,17.79-104-30.97-141.52-20.49s-45.71,16.95-45.71,16.95"/><path class="cls-8" d="M450.65,430.69s-39.81,32.57-56.86-25.33"/><path class="cls-8" d="M390.46,397.74s7.24-12.76,32.76-13.33c25.52-.57,20.19-12.95,20.19-12.95"/><path class="cls-8" d="M380.56,390.69s2.86-16.38,27.62-18.29"/><path class="cls-8" d="M427.6,444.6s18.3-6.29,13.34,9.9-15.25,11.81-15.25,11.81"/><path class="cls-8" d="M433.75,450.5s-3.48,2.19-3.29,5.38"/><path class="cls-8" d="M416.94,510.5s-7.16-21.19-17.58-24.5c0,0,4.25,41.64,21.58,32.88,17.33-8.76,20.01-52.95,20.01-52.95l-4.77-2.44"/><line class="cls-8" x1="451.32" y1="455.12" x2="462.17" y2="455.59"/><path class="cls-8" d="M656.91,522.88s-21.32-2.89-36.47-6.47c-3.9-.92-7.39-1.89-10-2.86-12.76-4.76-22.06,1.14-22.06,1.14-42.1,11.43-53.71-10.86-53.71-10.86,0,0-47.95-47.95-73.62-48.24-7.64-.09-13.31,4.05-15.14,14.94-8,47.46-18.67,84.73-18.67,84.73-19.05-13.9-40.95-65.52-40.95-65.52"/><ellipse class="cls-8" cx="393.48" cy="438.06" rx="3.81" ry="5.08"/><ellipse class="cls-8" cx="364.11" cy="434.32" rx="3.81" ry="5.08"/><path class="cls-8" d="M312.16,653.68s-12.73-.5-17.3-.97-12.75,7.19-2.84,6.43,18.48,3.24,18.48,3.24c20.48,7.33,34.76-.48,34.76-.48l45.52-26.19c59.52-29.52,67.9-46.19,67.9-46.19,0,0,9.52-17.62,20.29-71.52s-8.32-60.56-8.32-60.56"/><path class="cls-8" d="M343.92,652.37s-12.29-2.1-16.19-8.67"/><path class="cls-8" d="M311.22,646.56s-5.97.86-7.21-2.86"/><path class="cls-8" d="M300.43,635.56s-16.51-3.29-21.65,0-5.33,5.11-2.67,6.58,7.33-2.29,12.95-.8l5.62,1.49"/><path class="cls-8" d="M310.82,638.62s1.72-.58,4.95.9"/><path class="cls-8" d="M314.64,641.34s-7.56.28-8.78,4.49"/><path class="cls-8" d="M348.5,638.46c7.23-6.07,70.28-55.02,73.32-61.31s5.4-21.89,5.4-21.89"/><path class="cls-8" d="M464.3,575.41s42.86,20.21,97.71,35.83,96.38,19.01,96.38,19.01c0,0,32.95,1.56,75.43,12.99,0,0,12.19-4.57,14.1-30.67,1.32-18.14-2.32-31.4-4.67-37.8-1.03-2.81-1.81-4.3-1.81-4.3,0,0-22.1-46.67-22.1-55.43s2.16-43.21-11.59-49.13c0,0-20.56,33.54-87.33,50.48"/><path class="cls-8" d="M775.35,571.44s-25.33-1.12-32.1,3.34"/><path class="cls-8" d="M745.49,626.58s38.62-5.24,56.14-17.43-8.57-129.52-8.57-129.52c0,0-3.24-20.38,16.38-36.57s29.33-29.52,29.33-29.52c0,0,1.97-7.24-7.11-4.89,0,0-1.14-3.62-5.02-1.21,0,0-1.33-2.86-4.32.06,0,0-2.03-2.86-4.44,0,0,0-2.41-3.3-5.4.25s-28.25,35.49-35.11,36.06-15.24,4.19-11.05,16.19-.76,38.35-.76,38.35c0,0-10.1,30.29,1.14,72.95"/><path class="cls-8" d="M776.33,468.26s-5.33,5.81-1.05,17.52"/><path class="cls-8" d="M831.67,408.64s-2.86,1.56-5.97,7.24"/><path class="cls-8" d="M826.53,407.22s-.7.63-2.58,4.37"/><line class="cls-8" x1="822.24" y1="407.38" x2="820.3" y2="410.99"/><path class="cls-8" d="M817.79,407.38s0,4.22-1.65,5.2"/><path class="cls-8" d="M805.79,554.59s35.27-15.6,69.18-21.69,32.76-31.05,32.76-31.05c0,0,4.38-8.19,23.62,1.9,0,0,14.67,2.67,31.62-3.43,16.95-6.1,24.76,7.05,24.76,7.05,0,0,1.33,3.43,0,5.24,0,0,.76,1.71-.95,4.95,0,0,.67,3.52-4.48,4.57s-17.24-.4-25.43,4.51-46.57,17.2-46.57,17.2c0,0-102.09,43.97-103.09,50.29"/><path class="cls-8" d="M987.73,512.61s-5.05.19-5.71-1.24"/><path class="cls-8" d="M986.64,517.23s-4.33.81-5.19-.48"/><path class="cls-8" d="M986.43,519.53s-3.18,1.79-4.98,1.08"/><path class="cls-8" d="M289.52,641.46s-6.16.12-8.44,3.1.38,3.33,1.59,3.48,7.15-2.23,10.18-1.39"/><path class="cls-8" d="M300.01,647.49s5.58-1.93,8.05-.85"/><rect class="cls-24" x="322.7" y="581.78" width="8.76" height="142.67" transform="translate(-356.02 911.81) rotate(-84.14)"/><ellipse class="cls-24" cx="398" cy="660.39" rx="4.38" ry="1.43" transform="translate(-299.57 988.89) rotate(-84.14)"/><ellipse class="cls-29" cx="247.9" cy="644.98" rx="4.38" ry="1.43" transform="translate(-419.02 825.73) rotate(-84.14)"/><rect class="cls-29" x="251.3" y="638.01" width="8.76" height="15.56" transform="translate(-412.84 834.19) rotate(-84.14)"/><ellipse class="cls-29" cx="263.37" cy="646.56" rx="4.38" ry="1.43" transform="translate(-406.7 842.55) rotate(-84.14)"/><path class="cls-3" d="M248.36,640.65s-1.57.05-1.88,4.35.99,4.36.99,4.36c0,0,1.53.67,1.73-4.23s-.83-4.49-.83-4.49h-.01Z"/><path class="cls-3" d="M248.36,640.65l150.1,15.41s1.31-.02.97,4.5-1.87,4.21-1.87,4.21l-150.1-15.41"/><polygon class="cls-22" points="312.44 645.18 311.23 649.7 311.92 653.23 312.9 654.02 315.78 653.13 319.43 649.96 322.67 646.65 312.44 645.18"/><polygon class="cls-22" points="302.38 644.75 294.23 644.24 292.41 648.04 292.85 651.23 293.95 652.71 295.65 651.84 300.43 647.49 302.38 644.75"/><path class="cls-8" d="M353.06,641.61s-22.1-16.67-29.14-9.62-15.14,13.81-12,21.24c0,0,.95,5.81,17.43-14.1"/><path class="cls-8" d="M322.96,632.94s-12.85-7.62-21.52,1.53-10.23,14.07-8.3,17.75c1.25,2.39,6.37-4.51,11.2-9.33,2.59-2.59,5.1-4.59,6.89-4.22"/><polygon class="cls-12" points="664.12 826.73 676.34 882.12 687.78 883.09 700.03 882.83 714.87 880.56 727.32 877.22 737.47 873.29 747.75 868.23 758 859.83 740.88 806.13 747.5 803.41 755.46 798.1 760.94 793.26 762.46 789 761.11 784.15 758.09 781.86 750.05 780.04 741.23 779.83 732.78 780.42 726.66 781.15 696.5 786.74 687.36 789.55 664.06 797.72 654.11 802.35 643.45 808.39 636.97 814.73 635.9 818.47 637.45 823.28 640.6 825.22 646.2 826.8 653.41 827.49 664.12 826.73"/><polygon class="cls-19" points="662 808.79 660.91 810.56 663.26 812.05 670.23 811.89 680.71 810.35 699.81 806.07 718.79 800.49 731.17 795.34 736.14 792.02 736.34 790.19 733.51 789.58 729.31 789.7 725.88 790.38 715.65 792.25 696.32 796.35 671.75 804.15 665.41 806.63 662 808.79"/><polygon class="cls-18" points="725.98 790.86 727.08 787.6 726.62 782.44 725.12 776.86 719.78 764.28 716.76 760.93 708.29 760.6 701.6 761.94 697.99 766.07 697.76 773.04 697.59 780.76 698.66 787.19 699.26 795.66 700.95 805.28 711.3 802.92 714.72 801.58 714.93 795.97 714.52 788.06 719.8 791.97 723.84 792.59 725.98 790.86"/><polygon class="cls-18" points="678.52 810.67 668.75 798.79 658.54 784.43 648.93 768.34 642.8 753.74 642.14 745.9 643.93 744.7 646.98 744.76 652.87 748.62 659.59 753.92 666.08 760.22 672.88 768.24 679.1 776.73 684.71 785.25 689.01 792.29 692.56 798.48 696.36 806.63 678.52 810.67"/><path class="cls-14" d="M703.38,773.3s-1.97,16.66,2.74,31.01l4.68-1.42s.23-15.77-1.34-20.88l-3.92-4.34-2.16-4.38h0Z"/><path class="cls-14" d="M692.32,808.02s-33.94-53.46-39.07-49.03c-5.03,4.35,16.07,31.2,31.57,50.45l7.5-1.42Z"/><polygon class="cls-23" points="664.65 826.87 665.94 833.32 678.75 832.48 688.84 830.31 705.14 826.56 717.89 822.29 729.55 817.96 739.49 813.07 742.68 811.35 740.88 806.13 724.51 812.69 707.56 818.59 696.25 821.53 686.92 823.51 675.08 825.18 664.65 826.87"/><polygon class="cls-24" points="668.51 835.72 677.41 834.72 685.27 869.48 676.17 869.76 668.51 835.72"/><path class="cls-24" d="M636.06,818.09l1.48,5.52s9.11,10.41,63.42-3.26c54.32-13.66,61.71-30.54,61.71-30.54l-1.57-5.67s-9.16,15.65-62.38,28.97c-53.23,13.31-62.66,4.98-62.66,4.98Z"/><polygon class="cls-24" points="676.72 871.78 678.52 880.17 686.96 880.57 685.38 871.72 676.72 871.78"/><path class="cls-4" d="M698.46,786.44s-4.92,1.13-10.85,2.92"/><path class="cls-4" d="M666.94,796.49s-12.68,5.28-19.79,9.66-11.34,9.16-11.09,11.95l1.48,5.52s7.52,5.97,26.58,3.12l12.22,55.39s49.17,7.2,81.77-21.97l-17.09-54.08s20.32-8.42,21.54-16.73l-1.33-4.97s-2.35-7.65-34.69-3.21"/><path class="cls-4" d="M664.56,826.51s34.03-1.06,76.46-20.44"/><path class="cls-4" d="M665.58,833.34s42.4-1.92,76.87-21.93"/><path class="cls-4" d="M672.48,803.87s-8.92,3.25-11.18,5.99,5.35,2.28,5.35,2.28c0,0,8.85-.21,23.33-3.83s12.52-2.34,32.26-9.36c19.75-7.01,13.29-9.03,13.29-9.03,0,0-5.25-.96-8.91.36"/><path class="cls-4" d="M692,797.61s3.47-1.39,7.27-1.95"/><path class="cls-4" d="M714.66,792.54s3.16-.98,4.99-1.11"/><path class="cls-4" d="M678.09,810.32s-17.14-19.52-27.64-39.51-7.95-24.69-7.95-24.69c0,0,.63-4.77,8.12.84,7.49,5.61,19.21,12.52,39.62,47.41,0,0,5.44,9.22,6.12,12.26"/><path class="cls-4" d="M701.03,805.68s-6.56-32.15-2.07-40.95c0,0,.86-3.39,6.89-3.92s7.95-.51,7.95-.51c0,0,3.81-.68,6.13,4.27s8.57,18.85,6.93,24.32-5.71,3.51-5.71,3.51c0,0-2.7-1.36-6.14-4.18-3.88-3.18-8.71-8.22-11.71-15.28"/><path class="cls-4" d="M714.72,801.58s.79-7.89-.29-13.83"/><polygon class="cls-12" points="282.39 230.72 265.2 284.78 274.61 291.35 285.35 297.26 299.33 302.74 311.78 306.09 322.53 307.78 333.96 308.55 347.04 306.41 359.13 251.36 366.22 252.32 375.78 251.72 382.95 250.27 386.39 247.35 387.66 242.47 386.19 238.98 380.15 233.38 372.62 228.78 365.01 225.05 359.35 222.62 330.45 212.34 321.13 210.19 296.87 205.59 285.94 204.61 273.69 204.49 264.9 206.73 262.11 209.43 261.04 214.37 262.79 217.63 266.84 221.8 272.74 226.02 282.39 230.72"/><polygon class="cls-19" points="289.54 214.14 287.71 215.12 289 217.59 295.11 220.94 304.95 224.86 323.62 230.72 342.84 235.41 356.15 237.16 362.1 236.78 363.19 235.29 361.05 233.35 357.36 231.35 354.05 230.22 344.25 226.71 325.48 220.57 300.3 215 293.58 213.97 289.54 214.14"/><polygon class="cls-18" points="353.89 230.68 356.48 228.41 358.66 223.72 360.16 218.14 361.85 204.57 360.91 200.15 353.75 195.63 347.28 193.44 342.09 195.2 338.4 201.11 334.39 207.71 332.09 213.82 328.37 221.44 325.01 230.62 335.15 233.76 338.78 234.32 341.77 229.57 345.38 222.51 347.99 228.54 351.18 231.1 353.89 230.68"/><polygon class="cls-18" points="302.9 224.04 300.4 208.86 298.76 191.32 298.5 172.58 300.51 156.88 303.87 149.76 306.02 149.61 308.63 151.2 311.79 157.49 314.95 165.44 317.41 174.15 319.28 184.49 320.4 194.96 320.99 205.14 321.19 213.4 321.16 220.53 320.36 229.48 302.9 224.04"/><path class="cls-14" d="M343.14,204.16s-10.05,13.43-13.17,28.21l4.76,1.12s8.1-13.54,9.3-18.74l-1.22-5.72.32-4.88h.01Z"/><path class="cls-14" d="M316.17,228.66s-2.58-63.28-9.24-62.01-1.73,35.06,2.04,59.47l7.2,2.53h0Z"/><polygon class="cls-23" points="282.78 231.11 280.66 237.34 292.16 243.03 301.98 246.21 317.97 251.13 331.14 253.83 343.41 255.92 354.46 256.67 358.08 256.78 359.13 251.36 341.69 248.84 324.06 245.44 312.8 242.32 303.73 239.37 292.64 234.87 282.78 231.11"/><polygon class="cls-24" points="281.68 240.71 289.88 244.3 279.26 278.32 271.25 274 281.68 240.71"/><path class="cls-24" d="M262.43,209.19l-1.48,5.52s2.67,13.57,56.52,28.96c53.85,15.4,68.71,4.5,68.71,4.5l1.48-5.7s-15.77,8.96-68.5-6.19-56.72-27.09-56.72-27.09h0Z"/><polygon class="cls-24" points="270.71 276.02 268.07 284.19 275.18 288.76 278.24 280.31 270.71 276.02"/><path class="cls-4" d="M332.3,213.07s-4.83-1.49-10.85-2.92"/><path class="cls-4" d="M299.98,205.96s-13.62-1.79-21.97-1.56-14.41,2.24-15.59,4.79l-1.48,5.52s3.52,8.93,21.44,16.01l-17.18,54.06s38.94,30.87,81.77,21.97l12.31-55.37s21.8,2.9,27.02-3.69l1.33-4.97s1.8-7.8-28.41-20.16"/><path class="cls-4" d="M282.87,230.75s29.98,16.14,76.41,20.62"/><path class="cls-4" d="M280.34,237.17s37.66,19.58,77.51,19.54"/><path class="cls-4" d="M301.07,215.13s-9.35-1.66-12.68-.41,3.48,4.65,3.48,4.65c0,0,7.77,4.26,22.11,8.37s12.01,4.24,32.61,8.07c20.6,3.83,16.02-1.15,16.02-1.15,0,0-4.07-3.46-7.89-4.16"/><path class="cls-4" d="M321.1,219.49s3.7.53,7.27,1.95"/><path class="cls-4" d="M343.26,226.46s3.22.73,4.88,1.54"/><path class="cls-4" d="M302.7,223.52s-5.05-25.49-4.12-48.05,5.49-25.35,5.49-25.35c0,0,2.93-3.81,6.6,4.8s10.35,20.46,10.53,60.88c0,0,.08,10.71-.85,13.68"/><path class="cls-4" d="M324.88,231s10.43-31.11,18.73-36.48c0,0,2.45-2.5,7.92.06s7.13,3.54,7.13,3.54c0,0,3.64,1.32,3.16,6.77s-2.03,20.61-6.19,24.52-6.7.17-6.7.17c0,0-1.65-2.53-3.22-6.7-1.77-4.7-3.42-11.48-2.47-19.09"/><path class="cls-4" d="M338.78,234.32s4.64-6.43,6.68-12.11"/><rect class="cls-24" x="601.29" y="162.19" width="142.67" height="8.76" transform="translate(-17.79 225.65) rotate(-18.8)"/><ellipse class="cls-24" cx="605.1" cy="189.58" rx="1.43" ry="4.38" transform="translate(-28.81 205.12) rotate(-18.8)"/><ellipse class="cls-29" cx="747.93" cy="140.95" rx="1.43" ry="4.38" transform="translate(-5.52 248.55) rotate(-18.8)"/><rect class="cls-29" x="732.79" y="139.05" width="15.56" height="8.76" transform="translate(-6.71 246.31) rotate(-18.8)"/><ellipse class="cls-29" cx="733.21" cy="145.96" rx="1.43" ry="4.38" transform="translate(-7.92 244.08) rotate(-18.8)"/><path class="cls-3" d="M749.35,145.09s1.41-.7-.11-4.74-2.72-3.55-2.72-3.55c0,0-1.67.03.19,4.56s2.63,3.73,2.63,3.73h0Z"/><path class="cls-3" d="M749.35,145.09l-142.84,48.63s-1.18.56-2.76-3.69-.06-4.61-.06-4.61l142.84-48.63"/><path class="cls-27" d="M480.13,102.9s25.38,29.48,50.75,0c0,0-23.15,31.74,0,58.95,0,0-23.15-27.21-50.75-3.3,0,0,22.31-24.24,0-55.66h0Z"/><path class="cls-23" d="M505.51,77.31s-.93,48.56-30.42,52.82c0,0,31.13,8.03,31.86,70.06,0,0,3.09-68.57,28.98-68.97,0,0-30.08-3.37-30.42-53.91Z"/><path class="cls-23" d="M870.83,723.47s26.54,30.54,53.07,0c0,0-24.2,32.89,0,61.07,0,0-24.2-28.19-53.07-3.42,0,0,23.33-25.11,0-57.66h0Z"/><path class="cls-27" d="M897.37,696.96s-.97,50.3-31.81,54.72c0,0,32.55,8.32,33.31,72.58,0,0,3.23-71.04,30.31-71.45,0,0-31.45-3.49-31.81-55.84h0Z"/><path class="cls-23" d="M35.63,653.46s27.42,29.57,54.84,0c0,0-25.01,31.84,0,59.14,0,0-25.01-27.29-54.84-3.31,0,0,24.1-24.31,0-55.83Z"/><path class="cls-27" d="M63.05,627.79s-1,48.71-32.87,52.98c0,0,33.63,8.05,34.42,70.28,0,0,3.34-68.79,31.32-69.18,0,0-32.5-3.38-32.87-54.08h0Z"/><path class="cls-5" d="M93.93,440.67s-.53-11.92,2.4-23.02c1.38-5.24,3.54-10.29,6.88-13.82,10.43-11.02,9.69,10.7,6.32,14.96s-7.23,34.83,4.76,30.01"/><path class="cls-5" d="M108.8,419.11s-5.01-1.5-12.64-.75"/><path class="cls-5" d="M113.56,397.96s8.54-4.83,0,45.86c0,0,13.01,5.01,13.45-6.94.43-11.95-3.76-10.5-6.22-8.45s-6.49,13.03-6.49,13.03"/><polygon class="cls-5" points="96.86 398.92 95.26 407.73 92.24 399.95 99.33 403.81 90.89 404.83 96.86 398.92"/><path class="cls-5" d="M93.9,410.75s-3.1-.42-2.8,4.89-3.14,3.48-3.14,3.48c0,0-2.77-.04,1.23,5.09,0,0,1.66,1.51-2.71,3.08s3.45,3.2,1.97,5.49.12,3.38-3.63,3.26"/><path class="cls-5" d="M132.42,442.61s-4.62-37.05,2.09-41.03,4.86,9.16,4.86,9.16c0,0-3.08,11.11-12.35,10.02,0,0-2-.97,0-3.32s4.34-4.59,9.27-1.75,5.3,35.36,17.8,23.77"/><path class="cls-5" d="M153.18,409.66s2.96,6.64-5.17,5.01-1.2-17.16,2.85-18.7c4.94-1.88,7.44,1.51,7.81,8.51s-3.76,33.79,4.31,32.76"/><path class="cls-5" d="M157.93,424.26s-7.83-3.37-9.37,3.2c0,0-.4,6.46,4.91,6.76s4.68-5.12,4.68-5.12"/><path class="cls-5" d="M178.05,400.74s-.06-2.55-2.4-1.94-1.29,3.68-1.29,3.68c0,0,1.11,2.65,3.69,1.99,2.58-.66,2.96-5.76,2.96-5.76,0,0,1.05-6.3-1.85-9.32s-8.56-.72-8.56-.72c0,0-4,2.78-6.1,10.26-2.09,7.48-.74,20.45-.74,20.45,0,0,1.91,7.6,6.59,11.4s8.19,1.75,8.19,1.75c0,0,3.26-2.78,3.88-4.71"/><path class="cls-5" d="M185.01,413.88s.12,1.93-1.91,1.39-2.59-3.98-1.42-6.4,3.33-4.4,3.33-4.4c0,0,3.26-1.87,5.17.84s1.48,9.35,1.48,9.35l.02,4.65.02,3.62s.2,4.16,1.99,3.44"/><path class="cls-5" d="M191.42,419.11s-8.13-2.39-8.07,1.23c.06,3.62,4.03,3.44,4.03,3.44,0,0,2.86.12,4.03-1.09"/><polygon class="cls-5" points="167.4 436.15 173.5 442.18 165.98 440.61 172.88 436.63 168.63 444.36 167.4 436.15"/><line class="cls-5" x1="189.82" y1="385.04" x2="183.6" y2="388.24"/><line class="cls-5" x1="184.27" y1="379.85" x2="181.08" y2="384.56"/><line class="cls-5" x1="178.85" y1="376.29" x2="177.62" y2="383.6"/><path class="cls-5" d="M205.03,384.2s1.42,3.38-2.22,4.04-4.99-4.04-4.99-4.04c0,0-1.54-5.07,1.17-7.12s5.54-1.45,5.54-1.45c0,0,4.06-.12,4.93,4.31s0,18.86,0,18.86c0,0-1.02,16.53.38,20.15s3.74,6.52,5.53,7.06"/><path class="cls-5" d="M208.84,409.9s-4.19-4.71-8.74-1.57c-4.56,3.14-1.91,11.16-1.91,11.16,0,0,1.91,2.99,5.73,2.22s5.55-4.36,5.55-4.36"/><path class="cls-5" d="M215.37,416.9s-2.08-12.96.34-27.16c.02-.13.04-.25.06-.38.81-4.62,2.1-9.36,4.09-13.81,7.27-16.27,5.85,6.89,5.44,12.28-.05.68-.09,1.08-.09,1.08,0,0-2.89,34.22,3.14,34.37"/><path class="cls-5" d="M215.75,389.49s4.47-1.65,9.56-1.66"/><path class="cls-5" d="M235.51,424.99s-.27-1.47-.65-3.93c-.06-.36-.12-.74-.18-1.15-1.48-9.69-4.21-30.86-1.69-42.11,0,0,.49-7.9,4.25-6.09s2.65,11.16,2.65,11.16c0,0-1.11,12.67-5.79,14.96s-3.88-1.63-3.88-1.63c0,0,1.91-5.67,8.56-1.75s5.6,14.96,5.6,14.96c0,0,.55,8.81-2.71,11.16-3.26,2.35-3.82.72-6.47.48"/><path class="cls-5" d="M221.45,431.99s1.62-4.4,11.35-.97c9.73,3.44,10.96-2.27,10.96-2.27"/><path class="cls-5" d="M248.87,426.01s-2.59-44.82,6.77-56.17c9.36-11.35,8.99,4.88,8.99,4.88,0,0-1.85,12.85-12.32,15.57s-7.64-7.12-4.5-6.34,6.65.78,7.64,10.74.13,36.32,9.18,34.27"/><path class="cls-5" d="M270.49,393.43s-1.48,4.22-6.22.97c-4.74-3.26,2.65-12.01,2.65-12.01,0,0,2.77-5.07,9.3-3.2s3.33,13.76,3.33,13.76c0,0-7.2,16.89-8.56,19.49s-2.77,12.19.18,15.57"/><path class="cls-5" d="M270.98,411.47s-5.54-.18-6.34-.91-5.24.06-3.7,4.71,8.79,1.83,8.79,1.83"/><path class="cls-5" d="M293.76,380.7s-11.7,17.2-11.21,31.8"/><polygon class="cls-5" points="272.7 363.93 278.8 372.19 269.19 368.57 278.49 365.37 274 373.82 272.7 363.93"/><line class="cls-5" x1="281.33" y1="419.13" x2="282.54" y2="430.44"/><line class="cls-5" x1="277.38" y1="427.58" x2="288.15" y2="420.82"/><line class="cls-5" x1="285.02" y1="420.4" x2="278.12" y2="430.72"/><line class="cls-5" x1="278.12" y1="421.84" x2="285.27" y2="429.08"/><ellipse class="cls-5" cx="132.22" cy="397.65" rx=".74" ry=".72"/><ellipse class="cls-5" cx="126.81" cy="401.77" rx=".84" ry=".82"/><ellipse class="cls-5" cx="125" cy="408.07" rx=".75" ry=".8"/><polygon class="cls-23" points="252.28 775.54 250 778.57 250.8 783.84 252.95 786.41 255.95 786.71 257.56 785.14 259.89 783.73 263.64 788.35 267.98 790.28 276.93 790.3 286.31 789.17 295.81 786.42 295.33 793.34 296.81 802.47 300.05 808.73 305.6 813.17 298.36 820.69 291.22 830.91 287.77 840.27 287.03 849.4 287.68 857.3 290.16 862.65 294.83 864.28 296.17 864.32 299.11 866.81 304.34 866.91 310.13 864.88 314.48 861.28 317.97 857.46 321.89 849.92 324.21 841.6 324.56 831.68 324.24 825.42 326.92 824.77 334.71 820.91 341.89 819.28 351.6 817.3 354.71 828.17 360.15 840.15 366.15 848.1 371.69 852.82 375.62 854.62 379.3 853.95 383.86 855.43 390.47 854.03 395.83 849.4 395.78 845.3 391.52 832.88 385.79 823.01 380.44 814.87 374.79 808.8 369.9 804.86 372.62 802.6 378.58 796.25 382.32 789.03 384.2 781.48 384.22 776.62 381.93 771.9 381.46 769.73 384.18 758.98 384.4 755.8 383.91 754.76 382.15 756.04 377.51 768.59 371.91 770.82 369.09 772.76 365.62 779.61 362.61 787.99 360.46 796 352.23 794.13 346.32 794.34 335.61 796.01 327.31 798.92 319.85 801.25 318.8 795.48 316.11 786.41 311.36 779.48 307.88 777.72 308.59 776.6 313.43 775.53 317.92 771.57 320.98 765.25 324.79 758.24 325.47 747.86 324.27 739.63 322.36 734.46 320.12 731.84 314.5 730.12 310.42 730.74 307.62 729.26 302.94 728.67 299.21 730.32 293.75 736.02 291.03 743.46 289.2 752.41 289.72 763.2 284.02 763.76 270.87 766.36 267.33 767.83 261.76 770.68 259.41 775.19 259.25 778.3 257.37 777.84 255.84 775.69 252.28 775.54"/><path class="cls-9" d="M262.78,781.9s8.04,7.32,22.3,2.34c14.26-4.98,17.43-9.23,17.43-9.23,0,0,4.33-6.18,2.22-8.73s-7.58-3.08-7.58-3.08l-9.12.66-13.7,1.66-9.04,3.2-4.36,2.99-1.98,4.93.91,3.26,2.92,1.99h0Z"/><path class="cls-9" d="M302.67,764.01s5.13,4.6,10.23,2.85,8.39-10.68,8.39-10.68c0,0,4.7-13.44-3.61-25.35l-5.12-.36-4.85,2.1-2.05,3.64-.81,7.97-.25,7.01-.67,7.15-1.27,5.65v.02Z"/><path class="cls-9" d="M304.74,728.72l1.09,6-.89,4.75.05,3.34s-7.33,20.37-15.83,16.59l.2-7.41,1.35-7.41,2.47-7.05,2.47-4.64,4.31-3.3,4.8-.87h-.02Z"/><path class="cls-9" d="M303.89,782.3s7.37,1.83,9.34,13.41-1.87,13.18-1.87,13.18c0,0-4.06,3.66-8.55,2.14s-7.37-14.74-7.37-14.74v-9.38l3.32-2.17,5.13-2.45h0Z"/><path class="cls-9" d="M350.6,793.96s9.09,4.24,5.76,10.74-10.66,7.38-10.66,7.38c0,0-13.28,1.51-18.07,4.96s-4.82.49-4.82.49l-1.95-2.93-4.69-2.72,2.08-2.06,1.73-4.86-.11-3.31,10.25-3.97,9.29-2.48,9.2-1.2,1.99-.04h0Z"/><path class="cls-9" d="M316.23,812.22s7.45,14.05,2.34,28.92c-5.11,14.87-17.91,18.67-17.91,18.67,0,0-5.07,2.09-7.75-3.33l.82-3.43,2.6-3.61,4.86-7.01,1.89-7.7,2.18-8.14.93-7.42,1.26-4.03,2.34-2.46,4.25-.77,2.19.31h0Z"/><path class="cls-9" d="M301.07,817.65s1.18,24.53-13.84,34.99c-1.58,1.1-.3-.28-.3-.28,0,0-.72-22.99,14.14-34.71h0Z"/><path class="cls-9" d="M363.81,804.22s10.52,4.99,17.14,19.4c6.62,14.42,10.46,18.88,7.49,24.58s-8.83,5.05-8.83,5.05l-1.52-1.17-1.34-4.27-2.59-6.88-7.48-12.65-7.31-8.4-2.53-4.2.77-5.77,2.58-3.58,3.61-2.11h.01Z"/><path class="cls-9" d="M353.65,824.9s17.54,15.77,18.48,28.36c0,0-12.35-7.53-18.48-28.36Z"/><path class="cls-9" d="M382.95,772.93s-1.39,24.88-19.26,26.52l-3.04-3.5,4.52-15.34,3.18-6.47,3.11-3.35,5.88-1.96,2.42.54,3.19,3.57h0Z"/><path class="cls-9" d="M252.99,777.61s-2.48,3.16,1.62,7.59l.44,1.84-2.88-1.28-1.56-3.53-.31-2.5.31-2.29,1.42-1.59,1.17-.67-.21,2.43h0Z"/><path class="cls-9" d="M253.46,775.13l-.47,2.48s4.07,2.31,1.62,7.59l-.37,1.48,2.09.02,1.35-1.88v-2.47l-.6-4.25-1.27-2.53-2.36-.44h0Z"/><polygon class="cls-9" points="252.43 775.32 254.59 775.77 252.99 777.61 252.33 777.56 252.43 775.32"/><path class="cls-32" d="M292,769.74s-2.09-5.11-15.11-1.84c-13.02,3.27-14.5,7.21-14.5,7.21,0,0-1.45,1.62,3.15,2.78,4.6,1.17,18.62-1.24,18.62-1.24,0,0,8.75-3.01,7.84-6.92h0Z"/><path class="cls-32" d="M309.95,734.6s-5.5,2.74-3.57,16.26,7.89,5.67,7.89,5.67c0,0,5.02-8.14,3.06-15.4s-3.72-7.71-7.38-6.53h0Z"/><path class="cls-32" d="M302.78,729.26s2.83,12.76-4.2,19.53-7.47,6.46-9.19,6.58-.34-.16-.34-.16l.7-6.02,3.23-11.25,3.56-5.42,2.99-2.37,3.26-.88h-.01Z"/><path class="cls-32" d="M308.55,793.45s-4.67-11.99-9.55-4.53c0,0-1.43,14,2.63,16.11s7.74.34,8.07-2.3.21-5.72-1.14-9.28h-.01Z"/><path class="cls-32" d="M327.58,806.54s-9.84-.88-4.1-4.44,22.58-6.05,24.68-5.17,3.94,2.16-.12,4.32c-4.06,2.16-17.47,5.8-20.46,5.29Z"/><path class="cls-32" d="M309.19,818.05s-1.49,18.27-5.54,23.53c-4.05,5.25-5.35,8.78-5.35,8.78,0,0-1.05,4.9,3.33,4.49,4.38-.41,9.7-5.57,9.7-5.57,0,0,7.2-9.05,4.83-20.69-2.37-11.64-4.85-12.93-6.97-10.54h0Z"/><path class="cls-32" d="M364.01,813.45s-6.64-1.76-4.34,3.11,11.29,14.92,11.29,14.92c0,0,3.27,5.21,5.37,6.12s2.96.3,2.96.3c0,0,1.37-2.77-1.02-5.62s-9.83-19.14-14.26-18.84h0Z"/><path class="cls-32" d="M377.78,771.27s.37,13.08-9.43,16.64c-9.81,3.56,2.49-14.35,2.49-14.35,0,0,4.34-5.24,6.94-2.29h0Z"/><path class="cls-6" d="M381.35,770.16l3.48-13.02s.18-4.52-2.85-1.13l-4.64,12.81"/><path class="cls-6" d="M319.86,801.65s23.94-12.09,40.72-5.33c0,0,4.79-23.39,11.68-25.93,6.9-2.54,8.67-2.02,11.5,4.69s-3.26,23.68-14.07,29.91"/><path class="cls-6" d="M360.94,796.58s4.37,3.79,4.93,6.91"/><path class="cls-6" d="M373.09,807.34s-6.79-6.83-12.9-1.01c-3.79,3.61-3.63,7.48-2.96,9.89.41,1.47,1,2.4,1,2.4,0,0,16.08,16.76,18.62,30.05,2.54,13.28,21.01,4.12,19.25-2.72s-9.76-27.85-23.01-38.61h0Z"/><path class="cls-6" d="M356.97,816.34s-2.13.36-5.18.93c-6.67,1.25-17.74,3.5-20.48,5.21-5.97,3.73-7.2,2.66-7.2,2.66,0,0,.68-12.25-8.68-13.01s-9.24,7.03-9.24,7.03c0,0-1.43,21.3-9.84,30.05s.68,18.33,4.83,18.09,9.94-1.74,13.3-6.03,12.67-13.01,9.75-35.52"/><path class="cls-6" d="M351.43,817.73s7.15,28.39,21.75,36.12c0,0,3.2,1.82,6.57.1"/><path class="cls-6" d="M305.91,813.11s-14,10.9-17.87,27.28,2.35,25.42,7.66,23.7"/><path class="cls-6" d="M308.19,777.89s9.84,2.28,11.78,26.13c0,0,.51,6.75-4.53,8.11"/><path class="cls-6" d="M295.56,786.89s-1.71,13.29,3.68,20.3,9.15,6.45,9.15,6.45"/><path class="cls-6" d="M303.98,764.84s10.25,9.56.28,16.5-19.37,9.52-35.2,8.71c0,0-6.87.04-8.86-6.43,0,0-2.53.7-3.28,2.44s-5.59,1.64-6.47-4.2c-.93-6.15,2.79-6.51,2.79-6.51,0,0,2.41-.32,3.41,1.7.91,1.84,2.78,1.19,2.78,1.19,0,0-1.15-6.08,5.38-9.3s15.86-4.86,22-5.2c5.62-.31,10.36-1.4,15.7.49.49.17.99.37,1.49.6h-.02Z"/><path class="cls-6" d="M302.62,763.74s3.19-10.16,2.32-21.62,9.12-11.87,9.12-11.87c0,0,7.76-.44,9.63,7.45s3.18,17.81-1.55,26.13c-4.73,8.31-5.43,11.71-14.05,13.09"/><path class="cls-6" d="M310.54,730.84s-6.48-5.55-13.65,1.32c-7.17,6.87-7.85,23.4-7.85,23.4,0,0-.15,4.89.85,7.97"/><path class="cls-6" d="M256.64,777.06s2.18,5.73.28,9"/><path class="cls-6" d="M259.46,778.49s1.31,3.94.43,5.24"/><path class="cls-28" d="M310.93,740.88s3.12,5.11.93,8.99-.78-4.12-.78-4.12c0,0-.55-3.32-1.75-4.59s.76-2.05,1.6-.29h0Z"/><path class="cls-28" d="M286.13,769.77s-4.05-1.01-5.81,1.05,4.56.61,4.56.61c0,0,3.78-.51,1.25-1.66Z"/><path class="cls-28" d="M344.89,798.4s-3.28-1.02-6.25,1.13,3.31.49,3.31.49c0,0,6.96-.74,2.93-1.62h.01Z"/><path class="cls-28" d="M337.05,800.34s-.99-.59-1.71.24,1.09.47,1.09.47c0,0,1.08-.28.62-.71h0Z"/><path class="cls-16" d="M934.62,262.94l2.44,4.33.39,2.89.44,5.25-.53,2.47,2.72-1.79,6.47-3.71,5.63-2.41,4.47-.86,4,1,4.3,2.43,2.8,3.27,1.5,4.21.22,3.6-.9,3.47-2.08,3.78-3.02,3.61-3.04,2.59-3.78,1.77-4.78,1.1-4.99.26-5.18-.92-3.97-1.88-5.35-3.29-2.54-1.9-3.24,2.19-3.78,1.05-2.86.02,3.5,2.98.74,2.38.31,3.65-1.3,4.62-2.63,2.81-2.77,1.1.9,1.71.75,1.09.71,1.13,2.3,1s-.87-1.05,4.7,2.16,7.49,4.55,7.49,4.55l5.12,4.66,3.76,6,.4,3.77-1.75,5.28-2.44,1.55-3.35.03-5.39-2.33-4.3-3.29-3.96-4.42-2.25-5.68-1.53-4.63-1.42,1.52-3.08,1.39h-1.22l1.87,3.74.81,5.11-2,5.79-3.4,6.13,1.9,2.07,5.66,4.93,3.62,3.16,5.98,2.58,4.53,1.28,4.3.63,6.43-.15,3.89-1.18,5.3-2.05,3.58-3.04,2.96-4.42,2.44-6.04.76-4.51-.71-7.14-2.04-5.19-3.73-5.25-5.07-5.62-2.48-1.66,5.21.57,10.92-1.83,6.15-2.52,5.8-4.14,4.16-4.7,3.44-5.71,3.71-7.63,1.97-6.48.43-7.55-1.73-8.03-3.75-7.27-4.2-4.48-8.08-4.95-4.85-2.09-5.09-.59-5.07-.26-5.01.61-5.63,1.9-3.23,1.79-4.48,3.61-3.31,3.62-.61,1.42.02-.02Z"/><polygon class="cls-16" points="922.9 257 919.64 257.75 915.81 258.98 912.23 261.32 909.52 264.35 907.49 267.83 906.48 262.11 903.43 254.18 899.74 249.4 895.99 246.48 892.79 244.86 887.47 244.14 882.42 245.31 878.71 247.76 875.68 252.39 874.57 257.3 874.53 262.33 874.84 264.91 876.29 269.61 879.28 274.38 883.85 278.97 890.6 282.58 898.3 285.31 905.75 286.84 908.32 290.72 905.63 290.86 902.76 293 899.26 298.37 898.48 302.21 900.12 306.13 901.89 307.48 901.62 308.1 899.32 309.13 897.63 311.07 896.86 311.5 889.59 310.87 881.84 310.93 874.82 312.26 871.76 314.73 869.58 319 869.48 321.83 870.31 324.08 872.16 326.01 875.65 327.77 878.84 328.39 882.43 328.68 885.53 327.82 889.09 326.37 892.58 324.47 895.3 322.4 896.24 321.44 898.91 323.96 896.39 325.32 892.84 329.46 890.68 335.67 889.94 342.03 883.22 343.82 876.99 344.34 871.29 344.19 865.44 342.94 858.95 339.26 854.4 334.94 851.25 329.85 849 323.58 850.07 316.31 853.14 309.22 855.32 305.45 859.41 301.12 866.66 297.52 874.1 295.74 877.77 295.02 867.88 287.2 861.27 280.36 856.41 272.05 854.06 265.01 853.26 257.63 854.97 249.25 859.5 239.36 864.53 232.32 871.49 226.51 876.86 224.02 884.66 222.49 891.43 222.83 899.03 224.5 905.43 227.86 910.76 231.37 915.43 236.85 919 242.84 921.77 250.77 922.9 257"/><path class="cls-26" d="M921.09,257.42s-2.98-14.3-9.97-21.92c-6.99-7.61-16.31-9.43-16.31-9.43,0,0-8.28-2.58-18.25.71s-7.44,6.6-7.44,6.6c0,0,.17.55,2.11.48s4.64-1.34,7.62-2.03,9.95-1.8,14.94-.16,10.2,4.35,12.97,8.16,7.71,11.78,8.56,19.48l5.79-1.89h-.02Z"/><path class="cls-26" d="M857.72,251.68s1.19-2.75,3.94-1.73,2.08,3.39,2.08,3.39c0,0-2.4,10.66,4.49,19.85,6.89,9.18,12.73,12.61,12.73,12.61,0,0,2.36,1.4,1.41,4.53s-5.27.51-5.27.51c0,0-9.42-5.39-14.57-13.73-5.64-9.13-7.05-12.04-4.81-25.43h0Z"/><path class="cls-26" d="M870.74,304.41s3.24-.64,2.49-2.82-4.16-.99-4.16-.99c0,0-9.53,1.86-14.84,12.68-5.3,10.82.17,17.75.17,17.75,0,0,1.08,1.34,2.49.73s.45-3.23.45-3.23c0,0-2.33-5.89,1.52-13.87,2.98-6.17,7.5-8.04,11.87-10.26h.01Z"/><path class="cls-26" d="M952.57,331.74s-1.76-2.79.34-3.75,3.57,2.36,3.57,2.36c0,0,5.18,8.22.93,19.5s-13.05,12.04-13.05,12.04c0,0-1.72.13-2.24-1.32s2.05-2.54,2.05-2.54c0,0,5.89-2.33,9.06-10.61,2.45-6.39.72-10.97-.66-15.67h0Z"/><path class="cls-26" d="M935.1,263.9s11.62-10.13,21.52-11.07,18.4,4.51,18.4,4.51c0,0,6.94,4.38,10.45,14.54s-1.17,11.5-1.17,11.5c0,0-.51.32-1.63-1.19s-1.28-5.13-2.54-7.92-4.17-9.34-8.38-11.76-10.47-4.45-14.99-3.43c-4.52,1.02-13.32,5.08-19.61,10.71l-2.05-5.88h0Z"/><path class="cls-26" d="M980.59,300.23s1.19-2.75-1.44-4.06-3.9.81-3.9.81c0,0-6.12,9.06-17.53,10.33s-17.91-.64-17.91-.64c0,0-2.63-.76-4.27,2.08s3.24,4.19,3.24,4.19c0,0,10.38,3.17,19.98,1.2,10.51-2.15,13.6-3.11,21.81-13.92h.02Z"/><path class="cls-13" d="M942.09,261.18s10.6-7.52,15.82-6.77c6.35.9-3.51,3.15-3.51,3.15l-13.23,7.23s-.86,1.19-2.58.45,3.5-4.06,3.5-4.06h0Z"/><path class="cls-13" d="M963.96,255.07s6.7.16,11.13,4.81c4.44,4.65-4.07-.13-4.07-.13,0,0-4.49-2.37-7.03-2.82s-.04-1.86-.04-1.86h.01Z"/><path class="cls-13" d="M938.79,308.95s12.21,1.51,17.15.46c0,0,1.06,0,1.47,1s-2.44,1.33-2.44,1.33c0,0-10.32.63-16.56-1.12,0,0-.65-.01-.74-1.02s1.11-.64,1.11-.64h.01Z"/><path class="cls-13" d="M954.98,330.46s-.33-1.01-1.13-.75-.39,1.4-.39,1.4c0,0,1.6,3.55,1.7,6.31,0,0,.3.83.92.7s.58-.88.58-.88c0,0,.08-2.56-1.67-6.78h0Z"/><path class="cls-13" d="M956.93,339.56s-.2-.45-.67-.57-.59.55-.59.55c0,0,.31,1.25.16,1.85s.77,1.05.98.55.12-2.39.12-2.39h0Z"/><path class="cls-13" d="M916.84,250.18s-3.49-12.51-8.02-15.23c-5.5-3.3.74,4.66.74,4.66l5.72,13.96s-.08,1.47,1.72,1.98-.16-5.36-.16-5.36h0Z"/><path class="cls-13" d="M904.01,232s-4.71-4.76-11.13-4.81,2.88,2.87,2.88,2.87c0,0,4.81,1.65,6.87,3.19s1.38-1.25,1.38-1.25Z"/><path class="cls-13" d="M878.67,288s-9.47-7.86-12.08-12.17c0,0-.74-.77-1.74-.39s.7,2.68.7,2.68c0,0,6.61,7.94,12.16,11.29,0,0,.46.47,1.25-.16s-.29-1.25-.29-1.25h0Z"/><path class="cls-13" d="M869.77,302.04s.96-.46,1.32.31-.75,1.24-.75,1.24c0,0-3.68,1.26-5.76,3.09,0,0-.8.35-1.14-.19s.25-1.03.25-1.03c0,0,1.81-1.81,6.08-3.43h0Z"/><path class="cls-13" d="M861.81,306.85s.47-.17.87.09,0,.81,0,.81c0,0-1.12.63-1.46,1.16s-1.29.16-1.08-.33,1.66-1.72,1.66-1.72h.01Z"/><polygon class="cls-23" points="928.77 251.61 927.69 250.74 926.56 249.6 924.82 250.19 925.46 252.16 927.35 256.34 926.3 257.87 920.29 257.6 914.85 259.46 909.52 263.84 906.73 269.08 905.15 274.9 904.41 281.35 905.26 285.63 907.87 290.31 903.96 291.85 900.42 296.06 899.16 298.87 898.85 303.2 900.54 306.53 902.23 308.09 899.89 308.71 898.18 310.31 896.39 313.36 894.78 317.98 896.23 321.08 899.43 323.96 896.32 325.01 893.61 328.57 891.59 333.07 890.18 338.25 890.16 343.9 892.58 348.39 895 350.85 897.72 352.25 899.04 355.81 898.12 359.86 895.83 367.88 895.05 371.55 895.53 375.12 896.63 375.14 898.03 373.27 898.57 366.97 900 360.05 902.32 354.47 905.11 353.94 908.88 351.44 912.95 345.48 915.36 339.07 915.38 333.42 913.18 328.55 914.98 328.02 918.73 326.63 919.86 323.46 921.08 320.55 919.8 316.64 917.7 313.35 919.21 312.47 922.67 309.92 924.46 306.26 924.6 302.03 922.25 297.79 919.83 295.8 925.36 294.89 929.07 292.75 932.45 288 935.62 281.79 937.08 277.28 937.97 271.39 936.71 267.39 934.88 263.4 932.37 260.95 930.04 259.28 930.31 258.19 936.11 256.38 936.17 255.09 935.14 253.83 933.7 252.82 933.67 250.6 932.44 249.83 930.58 250.17 928.77 251.61"/><path class="cls-21" d="M924.88,261.18s9.28,7.67.25,21.43c-9.02,13.76-16.71,4.92-16.71,4.92,0,0-4.46-7.01.66-17.26,5.13-10.25,12.67-11.14,15.79-9.09h.01Z"/><path class="cls-21" d="M910.41,294.67s-5.62-3.31-8.33,4.06,3.69,8.1,3.69,8.1c0,0,3.46,1.15,5.68-6.37,0,0,1.85-3.88-1.05-5.79h.01Z"/><path class="cls-21" d="M905.35,313.08s-3.8-4.31-6.64-.14-.43,7.54-.43,7.54c0,0,3.38,2.45,5.24-.64s1.94-5.84,1.82-6.76h.01Z"/><path class="cls-21" d="M901.3,328.23s-3.13-2.57-5.8,1.79-3.26,14.33-.66,17.32,5.69.14,5.69.14c0,0,4.84-17.37.77-19.24h0Z"/><path class="cls-21" d="M929.78,256.78l-.93-.4s.97-6.03,3.13-5.47c0,0,1.18-.27.33,1.1s-2.53,4.77-2.53,4.77Z"/><path class="cls-21" d="M935.05,255.32l-4.57,1.91-.39-.31,3.08-2.62s1.48-.23,1.88,1.02Z"/><path class="cls-25" d="M928.45,256.35l-.33.03-2.12-4.98s.04-.82.66-.25,1.79,5.2,1.79,5.2h0Z"/><path class="cls-25" d="M923.34,273.34s-.89-10.93-8.21-4.86-3.23,15.42-3.23,15.42c0,0,.46,2.81,4.82,1.65s6.63-12.21,6.63-12.21h-.01Z"/><path class="cls-25" d="M908.15,296.57s-3.91-.5-4.21,5.76,4.55-1.52,4.55-1.52c0,0,1.36-2.29-.33-4.24h0Z"/><path class="cls-25" d="M901.67,313.6s-2.55.19-1.77,4.1,2.92-1.64,2.92-1.64c0,0,.06-3.07-1.15-2.46h0Z"/><path class="cls-25" d="M900.43,333.05s-2.09-4.74-3.8,1.23c-1.71,5.97.23,10.47.23,10.47,0,0,.31,1.79,1.87-1.02s1.7-10.68,1.7-10.68h0Z"/><path class="cls-7" d="M934.8,262.54s9.01-15.8,29.21-11.95c20.2,3.85,23.92,19.05,23.92,19.05,0,0,7.74,16.15-8.98,36.9-16.72,20.74-50.76,7.77-54.68,2.94"/><path class="cls-7" d="M937.16,278.02s14.96-10.61,21.26-8.67,10.24,5.12,11.03,12.17c.79,7.05-6.79,14.49-10.16,16.26s-12.77,4.15-19.56.7c-6.78-3.45-10.18-6.49-10.18-6.49"/><path class="cls-7" d="M947.47,317.67s10.05,5.57,13.56,17.2-4.3,21.23-4.3,21.23c0,0-3.04,5.83-13.12,7.57s-20.35-3.31-20.35-3.31c0,0-8.21-4.59-12.57-11.44"/><path class="cls-7" d="M920.36,317.11s25.06,8.74,23.2,22.92c-1.86,14.18-19.21-.11-21.27-5.01s-3.11-9.53-3.11-9.53"/><path class="cls-7" d="M922.74,257.36s-.37-22-20.66-31.23c-20.29-9.23-32.59,1.48-35.51,3.94s-13.85,18.06-13.32,29.21,7.29,20.23,7.29,20.23c0,0,12.12,14.96,25.61,19.76s12.56,4.21,12.56,4.21"/><path class="cls-7" d="M905.18,286.71s-28.84-3.17-30.61-23.8c-1.77-20.63,15.05-19.37,17.56-18.32,2.67,1.12,13.84,5.19,15.23,23.49"/><path class="cls-7" d="M877.78,295.02s-19.13,1.87-24.38,13.63-4.8,16.14-1.75,21.99,8.12,11.44,19.55,13.24c11.42,1.8,18.87-2.13,18.87-2.13"/><path class="cls-7" d="M896.92,311.77s-23.9-4.79-27.1,6.26,13,10.65,13,10.65c0,0,9.32-2.42,13.56-7.38"/><path class="cls-7" d="M935.58,264.44s-6.59-10.34-18.71-5.91-13.31,23.35-12.09,25.97,1.59,6,8.09,8.9,10.4,2.52,13.99.9c3.34-1.51,8.81-10.9,10.14-15.69s1.02-8.5-1.41-14.17h-.01Z"/><path class="cls-7" d="M919.12,295.36s7.52,4.08,5.29,11.04-7.51,6.69-7.51,6.69c0,0-7.37.12-16.6-6.74,0,0-4.66-5.15,1.81-12.55,0,0,2.98-4.42,6.54-2.97"/><path class="cls-7" d="M917.1,313.09s5,3.64,3.23,9.61c-1.77,5.97-6.59,5.87-6.59,5.87,0,0-.36-.05-.98-.17-2.68-.48-10.21-2.06-14.35-5.13-5.1-3.77-2.74-8.04-2.74-8.04,0,0,2.46-8.36,7.36-7.02"/><path class="cls-7" d="M912.92,328.44s6.36,6.54-.99,18.69c-7.35,12.16-8.39,2.88-10.87,9.71-2.49,6.83-2.92,13.2-2.92,13.2,0,0,.33,3.4-1.51,5.1s-1.76-4.13-1.38-4.95,4.2-12.88,3.34-16.27-2.75-2.63-5.36-4.53c-2.15-1.56-4.28-3.53-3-11.46s4.87-11.26,4.87-11.26c0,0,2.18-2.89,4.28-2.51"/><path class="cls-7" d="M930.35,259.09s.54-1.1-1.23-1.87-2.14-.06-2.3.34"/><path class="cls-7" d="M930.74,257.92l5.37-1.54s.95-1.86-1.93-3.07c0,0-1.08-.52-.54-2.12s-2.7-2.09-4.33.01c0,0-.59,1.43-1.97-1.02,0,0-1.74-1.21-2.44.75l2.45,5.41"/><path class="cls-23" d="M778.37,130.67s-1.01,10.11-5.57,10.06c0,0,5.29,1.84,5.44,11.79,0,0,.4-11.27,4.4-11.44,0,0-4.46-2.31-4.28-10.4h.01Z"/><path class="cls-27" d="M790.03,166.56s-2.23,18.66-12.3,18.55c0,0,11.69,3.4,12.03,21.74,0,0,.88-20.78,9.73-21.1,0,0-9.87-4.25-9.46-19.19Z"/><path class="cls-23" d="M805.36,143.52s-1.48,13.28-8.18,13.2c0,0,7.77,2.42,8,15.47,0,0,.58-14.79,6.47-15.02,0,0-6.56-3.03-6.29-13.66h0Z"/><path class="cls-27" d="M538.7,630.63s-1.97,17.57-10.89,17.47c0,0,10.35,3.2,10.65,20.47,0,0,.78-19.57,8.62-19.87,0,0-8.73-4-8.38-18.07h0Z"/><path class="cls-23" d="M525.15,663.03s-2.9,24.44-15.98,24.3c0,0,15.19,4.46,15.63,28.48,0,0,1.14-27.23,12.65-27.64,0,0-12.82-5.57-12.3-25.14h0Z"/><path class="cls-27" d="M553.2,661.55s-1.1,13.64-6.06,13.56c0,0,5.77,2.49,5.93,15.89,0,0,.43-15.2,4.8-15.43,0,0-4.87-3.11-4.67-14.03h0Z"/><path class="cls-23" d="M103.01,720.41s-2.66,21.22-14.68,21.1c0,0,13.95,3.87,14.35,24.73,0,0,1.05-23.64,11.61-24,0,0-11.77-4.84-11.29-21.83h0Z"/><path class="cls-27" d="M91.47,609s-1.54,13.64-8.5,13.56c0,0,8.08,2.49,8.31,15.89,0,0,.61-15.2,6.73-15.43,0,0-6.82-3.11-6.54-14.03h0Z"/><path class="cls-27" d="M559.28,133.68s-2.23,18.66-12.3,18.55c0,0,11.69,3.4,12.03,21.74,0,0,.88-20.78,9.73-21.1,0,0-9.87-4.25-9.46-19.19Z"/><path class="cls-27" d="M456.68,82.75s-2.23,18.66-12.3,18.55c0,0,11.69,3.4,12.03,21.74,0,0,.88-20.78,9.73-21.1,0,0-9.87-4.25-9.46-19.19Z"/><path class="cls-23" d="M951.34,676.97s-2.83,22.62-15.6,22.49c0,0,14.83,4.12,15.26,26.36,0,0,1.11-25.2,12.35-25.58,0,0-12.52-5.16-12-23.26h-.01Z"/><path class="cls-27" d="M873.15,808.43s-1.97,17.57-10.89,17.47c0,0,10.35,3.2,10.65,20.47,0,0,.78-19.57,8.62-19.87,0,0-8.73-4-8.38-18.07h0Z"/></svg>