<svg xmlns="http://www.w3.org/2000/svg" xmlns:xlink="http://www.w3.org/1999/xlink" width="500" zoomAndPan="magnify" viewBox="0 0 375 374.999991" height="500" preserveAspectRatio="xMidYMid meet" version="1.0"><defs><g/><clipPath id="afc5e4e2e4"><path d="M 109 116 L 265.464844 116 L 265.464844 154 L 109 154 Z M 109 116 " clip-rule="nonzero"/></clipPath><clipPath id="54cbce6ad9"><path d="M 109 112 L 265.464844 112 L 265.464844 151 L 109 151 Z M 109 112 " clip-rule="nonzero"/></clipPath><clipPath id="048951787d"><path d="M 178 33.628906 L 247 33.628906 L 247 70 L 178 70 Z M 178 33.628906 " clip-rule="nonzero"/></clipPath></defs><path fill="#9b88d9" d="M 235.613281 222.175781 C 204.507812 233.050781 169.589844 232.6875 138.722656 221.164062 C 136.96875 220.507812 135.847656 218.796875 135.960938 216.929688 C 136.5625 207 138.144531 175.402344 139.039062 157.304688 C 139.421875 149.527344 139.679688 144.242188 139.679688 144.242188 C 170.398438 145.839844 203.039062 149.96875 234.375 142.910156 C 234.484375 142.855469 234.828125 148.222656 235.273438 156.164062 C 236.328125 174.832031 237.957031 207.730469 238.460938 217.960938 C 238.550781 219.84375 237.390625 221.554688 235.613281 222.175781 Z M 235.613281 222.175781 " fill-opacity="1" fill-rule="nonzero"/><path fill="#f5da8d" d="M 235.273438 156.164062 C 203.9375 164.398438 170.5625 164.796875 139.035156 157.304688 C 139.417969 149.527344 139.679688 144.242188 139.679688 144.242188 C 170.398438 145.839844 203.039062 149.96875 234.375 142.910156 C 234.484375 142.855469 234.828125 148.222656 235.273438 156.164062 Z M 235.273438 156.164062 " fill-opacity="1" fill-rule="nonzero"/><g clip-path="url(#afc5e4e2e4)"><path fill="#624f9f" d="M 109.175781 135.179688 C 109.175781 133.882812 109.175781 131.039062 109.175781 131.039062 C 109.175781 131.039062 149.550781 116.386719 187.308594 116.386719 C 226.414062 116.386719 265.441406 131.222656 265.441406 131.222656 C 265.441406 131.222656 265.441406 134.203125 265.441406 135.175781 C 265.441406 145.554688 230.457031 153.96875 187.308594 153.96875 C 144.15625 153.96875 109.175781 145.558594 109.175781 135.179688 Z M 109.175781 135.179688 " fill-opacity="1" fill-rule="nonzero"/></g><g clip-path="url(#54cbce6ad9)"><path fill="#9b88d9" d="M 265.441406 131.222656 C 265.441406 131.839844 265.316406 132.453125 265.0625 133.066406 C 264.8125 133.679688 264.4375 134.285156 263.9375 134.890625 C 263.441406 135.492188 262.820312 136.089844 262.074219 136.679688 C 261.332031 137.265625 260.472656 137.847656 259.492188 138.414062 C 258.511719 138.984375 257.421875 139.539062 256.214844 140.082031 C 255.007812 140.625 253.695312 141.152344 252.273438 141.664062 C 250.851562 142.175781 249.328125 142.667969 247.703125 143.144531 C 246.082031 143.621094 244.363281 144.078125 242.554688 144.511719 C 240.746094 144.945312 238.851562 145.359375 236.875 145.75 C 234.894531 146.140625 232.84375 146.507812 230.714844 146.847656 C 228.585938 147.191406 226.394531 147.507812 224.140625 147.796875 C 221.882812 148.085938 219.570312 148.351562 217.207031 148.585938 C 214.84375 148.820312 212.4375 149.027344 209.988281 149.207031 C 207.539062 149.386719 205.058594 149.535156 202.550781 149.65625 C 200.039062 149.773438 197.511719 149.863281 194.964844 149.925781 C 192.417969 149.984375 189.867188 150.015625 187.308594 150.015625 C 184.75 150.015625 182.195312 149.984375 179.648438 149.925781 C 177.101562 149.863281 174.574219 149.773438 172.0625 149.65625 C 169.554688 149.535156 167.074219 149.386719 164.625 149.207031 C 162.179688 149.027344 159.769531 148.820312 157.40625 148.585938 C 155.042969 148.351562 152.734375 148.085938 150.476562 147.796875 C 148.21875 147.507812 146.027344 147.191406 143.898438 146.847656 C 141.769531 146.507812 139.71875 146.140625 137.742188 145.75 C 135.761719 145.359375 133.867188 144.945312 132.058594 144.511719 C 130.25 144.078125 128.535156 143.621094 126.910156 143.144531 C 125.285156 142.667969 123.765625 142.175781 122.34375 141.664062 C 120.921875 141.152344 119.605469 140.625 118.402344 140.082031 C 117.195312 139.539062 116.101562 138.984375 115.121094 138.414062 C 114.144531 137.847656 113.28125 137.265625 112.539062 136.679688 C 111.796875 136.089844 111.175781 135.492188 110.675781 134.890625 C 110.175781 134.285156 109.800781 133.679688 109.550781 133.066406 C 109.300781 132.453125 109.175781 131.839844 109.175781 131.222656 C 109.175781 130.609375 109.300781 129.992188 109.550781 129.382812 C 109.800781 128.769531 110.175781 128.160156 110.675781 127.558594 C 111.175781 126.953125 111.796875 126.355469 112.539062 125.769531 C 113.28125 125.179688 114.144531 124.601562 115.121094 124.03125 C 116.101562 123.464844 117.195312 122.90625 118.402344 122.363281 C 119.605469 121.820312 120.921875 121.292969 122.34375 120.78125 C 123.765625 120.269531 125.285156 119.777344 126.910156 119.300781 C 128.535156 118.824219 130.25 118.371094 132.058594 117.933594 C 133.867188 117.5 135.761719 117.085938 137.742188 116.695312 C 139.71875 116.304688 141.769531 115.941406 143.898438 115.597656 C 146.027344 115.257812 148.21875 114.941406 150.476562 114.648438 C 152.734375 114.359375 155.042969 114.097656 157.40625 113.863281 C 159.769531 113.625 162.179688 113.417969 164.625 113.242188 C 167.074219 113.0625 169.554688 112.914062 172.0625 112.792969 C 174.574219 112.671875 177.101562 112.582031 179.648438 112.523438 C 182.195312 112.460938 184.75 112.429688 187.308594 112.429688 C 189.867188 112.429688 192.417969 112.460938 194.964844 112.523438 C 197.511719 112.582031 200.039062 112.671875 202.550781 112.792969 C 205.058594 112.914062 207.539062 113.0625 209.988281 113.242188 C 212.4375 113.417969 214.84375 113.625 217.207031 113.863281 C 219.570312 114.097656 221.882812 114.359375 224.140625 114.648438 C 226.394531 114.941406 228.585938 115.257812 230.714844 115.597656 C 232.84375 115.941406 234.894531 116.304688 236.875 116.695312 C 238.851562 117.085938 240.746094 117.5 242.554688 117.933594 C 244.363281 118.371094 246.082031 118.824219 247.703125 119.300781 C 249.328125 119.777344 250.851562 120.269531 252.273438 120.78125 C 253.695312 121.292969 255.007812 121.820312 256.214844 122.363281 C 257.421875 122.90625 258.511719 123.464844 259.492188 124.03125 C 260.472656 124.601562 261.332031 125.179688 262.074219 125.769531 C 262.820312 126.355469 263.4375 126.953125 263.9375 127.558594 C 264.4375 128.160156 264.8125 128.769531 265.0625 129.382812 C 265.316406 129.992188 265.441406 130.609375 265.441406 131.222656 Z M 265.441406 131.222656 " fill-opacity="1" fill-rule="nonzero"/></g><path fill="#624f9f" d="M 234.410156 129.816406 C 234.410156 132.371094 222.777344 134.570312 206.140625 135.535156 C 205.277344 135.585938 204.398438 135.628906 203.507812 135.675781 C 200.539062 135.820312 197.429688 135.925781 194.214844 135.988281 C 192.4375 136.023438 190.632812 136.046875 188.796875 136.050781 C 188.304688 136.054688 187.804688 136.054688 187.308594 136.054688 C 185.886719 136.054688 184.480469 136.046875 183.09375 136.03125 C 181.585938 136.011719 180.101562 135.984375 178.636719 135.949219 C 174.558594 135.847656 170.667969 135.675781 167.035156 135.445312 C 164.878906 135.3125 162.8125 135.152344 160.855469 134.976562 C 148.390625 133.855469 140.207031 131.960938 140.207031 129.816406 C 140.207031 127.921875 146.574219 126.226562 156.628906 125.078125 C 158.601562 124.859375 160.714844 124.65625 162.953125 124.476562 C 166.628906 124.179688 170.632812 123.949219 174.875 123.796875 C 176.890625 123.722656 178.960938 123.667969 181.078125 123.632812 C 183.117188 123.59375 185.195312 123.574219 187.308594 123.574219 C 188.226562 123.574219 189.140625 123.578125 190.046875 123.585938 C 192.375 123.601562 194.65625 123.644531 196.882812 123.703125 C 200.253906 123.796875 203.488281 123.9375 206.550781 124.121094 C 207.382812 124.167969 208.207031 124.222656 209.011719 124.277344 C 210.664062 124.390625 212.257812 124.515625 213.785156 124.65625 C 217.414062 124.980469 220.671875 125.375 223.472656 125.820312 C 230.300781 126.902344 234.410156 128.296875 234.410156 129.816406 Z M 234.410156 129.816406 " fill-opacity="1" fill-rule="nonzero"/><path fill="#f5da8d" d="M 181.078125 123.632812 C 179.671875 117.652344 177.753906 111.757812 175.847656 105.917969 C 171.996094 94.121094 168.121094 82.273438 162.597656 71.160156 C 158.207031 62.320312 152.707031 53.914062 145.757812 46.953125 C 143.171875 44.359375 138.765625 45.84375 138.230469 49.46875 C 136.617188 60.453125 139.132812 72.03125 142.160156 82.917969 C 146.144531 97.242188 150.976562 111.328125 156.628906 125.078125 C 157.992188 128.402344 159.398438 131.699219 160.855469 134.976562 C 162.8125 135.15625 164.878906 135.3125 167.035156 135.445312 C 170.667969 135.675781 174.558594 135.847656 178.636719 135.949219 C 180.101562 135.984375 181.585938 136.011719 183.09375 136.03125 C 182.769531 131.851562 182.042969 127.722656 181.078125 123.632812 Z M 225.585938 109.722656 C 225.246094 104 224.527344 98.300781 223.433594 92.671875 C 222.804688 89.445312 220.390625 86.84375 217.214844 85.988281 C 212.949219 84.835938 208.527344 84.222656 204.132812 84.292969 C 201.542969 84.335938 199.257812 85.988281 198.410156 88.4375 C 194.417969 99.992188 191.644531 111.738281 190.046875 123.585938 C 189.488281 127.730469 189.070312 131.886719 188.796875 136.050781 C 190.632812 136.042969 192.4375 136.019531 194.214844 135.988281 C 197.429688 135.925781 200.539062 135.820312 203.507812 135.675781 C 204.398438 135.628906 205.277344 135.585938 206.140625 135.535156 C 206.972656 131.75 207.933594 128 209.011719 124.277344 C 209.316406 123.226562 209.628906 122.179688 209.949219 121.132812 C 210.09375 120.660156 210.242188 120.1875 210.394531 119.714844 C 210.394531 119.714844 210.394531 119.707031 210.394531 119.707031 C 210.410156 119.734375 210.425781 119.765625 210.4375 119.796875 C 211.300781 121.613281 212.4375 123.242188 213.785156 124.65625 C 214.757812 125.683594 215.84375 126.597656 217.015625 127.386719 C 219.214844 128.875 222.226562 128.125 223.472656 125.820312 C 223.519531 125.738281 223.558594 125.660156 223.597656 125.574219 C 224.421875 123.808594 224.957031 121.929688 225.28125 120.03125 C 225.859375 116.636719 225.792969 113.160156 225.585938 109.722656 Z M 225.585938 109.722656 " fill-opacity="1" fill-rule="nonzero"/><path fill="#f3e5bc" d="M 174.875 123.796875 C 174.46875 122.609375 174.0625 121.421875 173.648438 120.238281 C 167.847656 103.464844 161.988281 86.570312 153.105469 71.199219 C 152.441406 70.050781 151.699219 68.417969 150.761719 67.128906 C 150 66.085938 148.335938 66.59375 148.285156 67.886719 C 148.121094 72.257812 149.035156 77.214844 150.011719 81.214844 C 153.570312 95.847656 157.886719 110.292969 162.949219 124.476562 C 164.261719 128.152344 165.621094 131.808594 167.03125 135.445312 C 170.664062 135.675781 174.558594 135.847656 178.632812 135.949219 C 177.558594 131.851562 176.246094 127.8125 174.875 123.796875 Z M 203.402344 105.085938 C 200.722656 111.140625 198.566406 117.367188 196.882812 123.707031 C 195.804688 127.757812 194.921875 131.859375 194.214844 135.988281 C 197.425781 135.925781 200.539062 135.820312 203.507812 135.675781 C 204.523438 131.824219 205.535156 127.96875 206.550781 124.121094 C 207.132812 121.898438 207.722656 119.675781 208.308594 117.453125 C 205.847656 113.558594 204.296875 109.390625 203.402344 105.085938 Z M 203.402344 105.085938 " fill-opacity="1" fill-rule="nonzero"/><path fill="#624f9f" d="M 210.394531 119.714844 C 210.242188 120.1875 210.09375 120.660156 209.949219 121.132812 C 207.84375 117.546875 205.796875 113.910156 204.246094 110.050781 C 202.589844 105.933594 201.507812 101.535156 201.609375 97.097656 C 203.382812 105.023438 206.347656 112.691406 210.394531 119.714844 Z M 210.394531 119.714844 " fill-opacity="1" fill-rule="nonzero"/><g clip-path="url(#048951787d)"><path fill="#9b88d9" d="M 244.492188 33.632812 L 182.59375 63.609375 L 179.878906 64.925781 C 178.878906 65.414062 178.46875 66.628906 178.972656 67.621094 L 179.527344 68.710938 C 180.015625 69.667969 181.175781 70.066406 182.144531 69.609375 C 182.96875 69.222656 184.058594 68.710938 185.375 68.09375 C 200.8125 60.851562 246.855469 39.238281 246.84375 39.136719 C 247.128906 37.070312 246.203125 34.886719 244.492188 33.632812 Z M 244.492188 33.632812 " fill-opacity="1" fill-rule="nonzero"/></g><path fill="#f5da8d" d="M 185.378906 68.09375 C 184.0625 68.710938 182.972656 69.222656 182.148438 69.609375 C 181.175781 70.066406 180.015625 69.667969 179.527344 68.710938 L 178.976562 67.621094 C 178.46875 66.628906 178.878906 65.414062 179.882812 64.925781 L 182.597656 63.609375 C 183.1875 65.28125 184.140625 66.828125 185.378906 68.09375 Z M 119.210938 97.566406 L 122.976562 97.097656 L 119.210938 96.632812 C 117.507812 96.421875 116.167969 95.082031 115.957031 93.378906 L 115.488281 89.609375 L 115.023438 93.378906 C 114.8125 95.078125 113.472656 96.417969 111.769531 96.632812 L 108 97.097656 L 111.769531 97.566406 C 113.46875 97.777344 114.808594 99.117188 115.023438 100.820312 L 115.488281 104.585938 L 115.957031 100.820312 C 116.167969 99.117188 117.507812 97.777344 119.210938 97.566406 Z M 246.480469 78.625 L 250.25 78.15625 L 246.480469 77.691406 C 244.78125 77.480469 243.441406 76.140625 243.226562 74.4375 L 242.761719 70.667969 L 242.292969 74.4375 C 242.082031 76.136719 240.742188 77.476562 239.039062 77.691406 L 235.273438 78.15625 L 239.039062 78.625 C 240.742188 78.835938 242.082031 80.175781 242.292969 81.878906 L 242.761719 85.644531 L 243.226562 81.878906 C 243.441406 80.175781 244.78125 78.835938 246.480469 78.625 Z M 187.085938 74.933594 L 188.816406 74.71875 L 187.085938 74.503906 C 186.304688 74.40625 185.6875 73.792969 185.59375 73.011719 L 185.378906 71.28125 L 185.164062 73.011719 C 185.066406 73.792969 184.449219 74.410156 183.671875 74.503906 L 181.941406 74.71875 L 183.671875 74.933594 C 184.453125 75.03125 185.066406 75.648438 185.164062 76.429688 L 185.378906 78.15625 L 185.59375 76.429688 C 185.691406 75.648438 186.304688 75.03125 187.085938 74.933594 Z M 172.351562 46.632812 L 174.449219 46.375 L 172.351562 46.117188 C 171.40625 46 170.660156 45.253906 170.542969 44.308594 L 170.285156 42.210938 L 170.027344 44.308594 C 169.90625 45.253906 169.160156 46 168.214844 46.117188 L 166.117188 46.375 L 168.214844 46.632812 C 169.164062 46.753906 169.90625 47.5 170.027344 48.445312 L 170.285156 50.542969 L 170.542969 48.445312 C 170.660156 47.5 171.40625 46.753906 172.351562 46.632812 Z M 219.066406 61.46875 L 221.164062 61.210938 L 219.066406 60.949219 C 218.117188 60.832031 217.371094 60.085938 217.253906 59.140625 L 216.996094 57.042969 L 216.738281 59.140625 C 216.621094 60.089844 215.875 60.832031 214.925781 60.949219 L 212.832031 61.210938 L 214.925781 61.46875 C 215.875 61.585938 216.621094 62.332031 216.738281 63.277344 L 216.996094 65.375 L 217.253906 63.277344 C 217.371094 62.332031 218.117188 61.585938 219.066406 61.46875 Z M 256.484375 109.007812 L 258.582031 108.75 L 256.484375 108.492188 C 255.539062 108.375 254.792969 107.628906 254.675781 106.679688 L 254.417969 104.585938 L 254.15625 106.679688 C 254.039062 107.628906 253.292969 108.375 252.347656 108.492188 L 250.25 108.75 L 252.347656 109.007812 C 253.296875 109.125 254.039062 109.875 254.15625 110.820312 L 254.417969 112.917969 L 254.675781 110.820312 C 254.792969 109.875 255.539062 109.125 256.484375 109.007812 Z M 256.484375 109.007812 " fill-opacity="1" fill-rule="nonzero"/><g fill="#624f9f" fill-opacity="1"><g transform="translate(27.617045, 242.703221)"><g><path d="M 40.765625 -2.265625 C 39.578125 0.816406 38.410156 3.875 37.265625 6.90625 C 36.128906 9.945312 34.96875 13.007812 33.78125 16.09375 C 33.613281 16.46875 33.453125 16.835938 33.296875 17.203125 C 33.140625 17.566406 32.914062 17.894531 32.625 18.1875 C 31.6875 19.25 30.550781 19.570312 29.21875 19.15625 C 27.832031 18.769531 27.050781 17.835938 26.875 16.359375 C 26.820312 15.929688 26.84375 15.503906 26.9375 15.078125 C 27.039062 14.648438 27.164062 14.242188 27.3125 13.859375 C 28.09375 11.835938 28.859375 9.851562 29.609375 7.90625 C 30.367188 5.957031 31.132812 3.960938 31.90625 1.921875 C 32.425781 0.546875 32.945312 -0.820312 33.46875 -2.1875 C 34 -3.5625 34.550781 -5.03125 35.125 -6.59375 C 34.332031 -6.25 33.628906 -5.945312 33.015625 -5.6875 C 32.398438 -5.4375 31.8125 -5.117188 31.25 -4.734375 C 30.675781 -4.492188 30.117188 -4.253906 29.578125 -4.015625 C 29.046875 -3.773438 28.488281 -3.5625 27.90625 -3.375 C 26.71875 -2.9375 25.660156 -3.007812 24.734375 -3.59375 C 23.804688 -4.1875 23.242188 -5.09375 23.046875 -6.3125 C 22.992188 -6.757812 22.96875 -7.195312 22.96875 -7.625 C 22.96875 -8.050781 22.945312 -8.503906 22.90625 -8.984375 C 22.875 -9.585938 22.847656 -10.207031 22.828125 -10.84375 C 22.816406 -11.476562 22.785156 -12.195312 22.734375 -13 L 12.046875 2.796875 C 11.773438 3.191406 11.492188 3.570312 11.203125 3.9375 C 10.910156 4.300781 10.585938 4.617188 10.234375 4.890625 C 9.398438 5.140625 8.609375 5.203125 7.859375 5.078125 C 7.109375 4.960938 6.472656 4.5 5.953125 3.6875 C 5.429688 2.9375 5.238281 2.179688 5.375 1.421875 C 5.507812 0.660156 5.816406 -0.0703125 6.296875 -0.78125 C 6.347656 -0.863281 6.390625 -0.941406 6.421875 -1.015625 C 6.453125 -1.097656 6.492188 -1.179688 6.546875 -1.265625 C 9.203125 -5.191406 11.84375 -9.09375 14.46875 -12.96875 C 17.09375 -16.851562 19.722656 -20.765625 22.359375 -24.703125 C 22.878906 -25.472656 23.460938 -26.0625 24.109375 -26.46875 C 24.765625 -26.882812 25.570312 -27.070312 26.53125 -27.03125 C 27.34375 -26.707031 27.992188 -26.257812 28.484375 -25.6875 C 28.972656 -25.113281 29.238281 -24.367188 29.28125 -23.453125 C 29.3125 -23.171875 29.328125 -22.898438 29.328125 -22.640625 C 29.335938 -22.390625 29.367188 -22.140625 29.421875 -21.890625 C 29.316406 -21.597656 29.289062 -21.320312 29.34375 -21.0625 C 29.394531 -20.8125 29.441406 -20.554688 29.484375 -20.296875 C 29.460938 -20.128906 29.460938 -19.957031 29.484375 -19.78125 C 29.503906 -19.613281 29.5 -19.453125 29.46875 -19.296875 C 29.5 -18.015625 29.53125 -16.75 29.5625 -15.5 C 29.59375 -14.25 29.617188 -12.953125 29.640625 -11.609375 C 30.722656 -12.078125 31.734375 -12.539062 32.671875 -13 C 33.609375 -13.457031 34.53125 -13.894531 35.4375 -14.3125 C 35.644531 -14.40625 35.832031 -14.492188 36 -14.578125 C 36.164062 -14.671875 36.328125 -14.769531 36.484375 -14.875 C 36.878906 -15.0625 37.269531 -15.222656 37.65625 -15.359375 C 38.039062 -15.503906 38.429688 -15.664062 38.828125 -15.84375 C 40.273438 -16.476562 41.441406 -16.640625 42.328125 -16.328125 C 43.222656 -16.023438 43.988281 -15.160156 44.625 -13.734375 L 44.5625 -12.046875 C 44.382812 -11.671875 44.210938 -11.289062 44.046875 -10.90625 C 43.890625 -10.519531 43.769531 -10.113281 43.6875 -9.6875 C 42.757812 -7.707031 41.988281 -5.671875 41.375 -3.578125 L 41.40625 -3.640625 C 41.300781 -3.398438 41.1875 -3.171875 41.0625 -2.953125 C 40.945312 -2.742188 40.847656 -2.515625 40.765625 -2.265625 Z M 40.765625 -2.265625 "/></g></g></g><g fill="#624f9f" fill-opacity="1"><g transform="translate(67.972493, 269.040131)"><g><path d="M 18.75 -9.84375 C 18.445312 -9.539062 18.351562 -9.320312 18.46875 -9.1875 C 18.59375 -9.050781 18.773438 -8.929688 19.015625 -8.828125 L 25.28125 -5.984375 C 25.332031 -7.898438 25.382812 -9.726562 25.4375 -11.46875 C 25.5 -13.21875 25.554688 -14.960938 25.609375 -16.703125 C 24.328125 -15.554688 23.132812 -14.421875 22.03125 -13.296875 C 20.9375 -12.171875 19.84375 -11.019531 18.75 -9.84375 Z M 12.40625 -2.734375 C 11.832031 -2.210938 11.28125 -1.585938 10.75 -0.859375 C 10.226562 -0.128906 9.671875 0.476562 9.078125 0.96875 C 8.484375 1.457031 7.847656 1.734375 7.171875 1.796875 C 6.492188 1.859375 5.753906 1.476562 4.953125 0.65625 C 4.503906 0.207031 4.234375 -0.269531 4.140625 -0.78125 C 4.046875 -1.300781 4.054688 -1.804688 4.171875 -2.296875 C 4.296875 -2.785156 4.492188 -3.269531 4.765625 -3.75 C 5.046875 -4.226562 5.351562 -4.65625 5.6875 -5.03125 C 8.6875 -8.601562 11.75 -12.097656 14.875 -15.515625 C 18 -18.941406 21.265625 -22.257812 24.671875 -25.46875 C 24.941406 -25.707031 25.273438 -26.0625 25.671875 -26.53125 C 26.066406 -27 26.453125 -27.289062 26.828125 -27.40625 C 27.390625 -27.570312 27.945312 -27.660156 28.5 -27.671875 C 29.0625 -27.679688 29.578125 -27.609375 30.046875 -27.453125 C 30.523438 -27.296875 30.953125 -27.03125 31.328125 -26.65625 C 31.710938 -26.28125 31.988281 -25.789062 32.15625 -25.1875 C 32.238281 -24.914062 32.296875 -24.632812 32.328125 -24.34375 C 32.359375 -24.0625 32.382812 -23.757812 32.40625 -23.4375 C 32.53125 -20.039062 32.507812 -16.640625 32.34375 -13.234375 C 32.1875 -9.828125 32.046875 -6.421875 31.921875 -3.015625 C 31.835938 -1.316406 31.796875 0.382812 31.796875 2.09375 C 31.796875 3.800781 31.722656 5.523438 31.578125 7.265625 C 31.546875 7.796875 31.460938 8.367188 31.328125 8.984375 C 31.191406 9.597656 30.988281 10.15625 30.71875 10.65625 C 30.445312 11.164062 30.078125 11.578125 29.609375 11.890625 C 29.140625 12.210938 28.566406 12.363281 27.890625 12.34375 C 26.773438 12.28125 25.96875 11.851562 25.46875 11.0625 C 24.976562 10.269531 24.691406 9.332031 24.609375 8.25 C 24.523438 7.175781 24.546875 6.078125 24.671875 4.953125 C 24.796875 3.835938 24.894531 2.925781 24.96875 2.21875 C 25 1.789062 24.921875 1.453125 24.734375 1.203125 C 24.546875 0.960938 24.265625 0.753906 23.890625 0.578125 C 22.398438 -0.0859375 20.914062 -0.703125 19.4375 -1.265625 C 17.96875 -1.828125 16.535156 -2.53125 15.140625 -3.375 C 14.648438 -3.675781 14.175781 -3.738281 13.71875 -3.5625 C 13.257812 -3.382812 12.820312 -3.109375 12.40625 -2.734375 Z M 12.40625 -2.734375 "/></g></g></g><g fill="#624f9f" fill-opacity="1"><g transform="translate(108.156333, 286.624627)"><g><path d="M 34.609375 -7.921875 C 34.617188 -6.503906 34.519531 -5.101562 34.3125 -3.71875 C 34.101562 -2.332031 33.765625 -0.972656 33.296875 0.359375 C 32.960938 1.296875 32.484375 2.140625 31.859375 2.890625 C 31.234375 3.640625 30.503906 4.257812 29.671875 4.75 C 28.847656 5.238281 27.953125 5.601562 26.984375 5.84375 C 26.023438 6.082031 25.050781 6.179688 24.0625 6.140625 C 21.382812 5.972656 18.972656 5.265625 16.828125 4.015625 C 14.691406 2.765625 12.898438 1.164062 11.453125 -0.78125 C 10.015625 -2.726562 8.976562 -4.925781 8.34375 -7.375 C 7.707031 -9.832031 7.546875 -12.335938 7.859375 -14.890625 C 8.160156 -17.304688 8.882812 -19.613281 10.03125 -21.8125 C 11.1875 -24.019531 12.660156 -25.914062 14.453125 -27.5 C 16.242188 -29.082031 18.285156 -30.242188 20.578125 -30.984375 C 22.878906 -31.722656 25.3125 -31.800781 27.875 -31.21875 C 30.476562 -30.632812 32.703125 -29.585938 34.546875 -28.078125 C 36.398438 -26.578125 37.960938 -24.679688 39.234375 -22.390625 C 39.710938 -21.484375 39.875 -20.628906 39.71875 -19.828125 C 39.5625 -19.035156 39.097656 -18.4375 38.328125 -18.03125 C 37.566406 -17.613281 36.804688 -17.535156 36.046875 -17.796875 C 35.296875 -18.066406 34.664062 -18.65625 34.15625 -19.5625 C 33.019531 -21.59375 31.625 -23.160156 29.96875 -24.265625 C 28.3125 -25.367188 26.273438 -25.804688 23.859375 -25.578125 C 21.378906 -25.335938 19.378906 -24.476562 17.859375 -23 C 16.347656 -21.53125 15.195312 -19.675781 14.40625 -17.4375 C 13.53125 -14.914062 13.28125 -12.472656 13.65625 -10.109375 C 14.03125 -7.742188 15.082031 -5.503906 16.8125 -3.390625 C 16.851562 -3.285156 16.921875 -3.21875 17.015625 -3.1875 C 17.109375 -3.164062 17.1875 -3.128906 17.25 -3.078125 C 18.34375 -1.867188 19.613281 -0.976562 21.0625 -0.40625 C 22.519531 0.15625 24.082031 0.34375 25.75 0.15625 C 26.226562 0.0820312 26.613281 -0.0820312 26.90625 -0.34375 C 27.207031 -0.601562 27.453125 -0.925781 27.640625 -1.3125 C 27.828125 -1.707031 27.976562 -2.117188 28.09375 -2.546875 C 28.207031 -2.972656 28.296875 -3.367188 28.359375 -3.734375 C 28.515625 -4.472656 28.613281 -5.035156 28.65625 -5.421875 C 28.707031 -5.804688 28.671875 -6.117188 28.546875 -6.359375 C 28.429688 -6.609375 28.1875 -6.800781 27.8125 -6.9375 C 27.445312 -7.082031 26.914062 -7.269531 26.21875 -7.5 C 24.695312 -7.988281 23.171875 -8.519531 21.640625 -9.09375 C 20.734375 -9.445312 20.085938 -9.972656 19.703125 -10.671875 C 19.328125 -11.367188 19.273438 -12.101562 19.546875 -12.875 C 19.847656 -13.675781 20.363281 -14.21875 21.09375 -14.5 C 21.820312 -14.78125 22.644531 -14.773438 23.5625 -14.484375 C 24.894531 -14.046875 26.253906 -13.617188 27.640625 -13.203125 C 29.023438 -12.785156 30.390625 -12.363281 31.734375 -11.9375 C 32.785156 -11.570312 33.523438 -11.085938 33.953125 -10.484375 C 34.390625 -9.890625 34.609375 -9.035156 34.609375 -7.921875 Z M 34.609375 -7.921875 "/></g></g></g><g fill="#624f9f" fill-opacity="1"><g transform="translate(150.045958, 297.159451)"><g><path d="M 13.0625 -25.125 C 13.101562 -26.007812 13.113281 -26.691406 13.09375 -27.171875 C 13.082031 -27.660156 12.984375 -28.03125 12.796875 -28.28125 C 12.609375 -28.539062 12.273438 -28.722656 11.796875 -28.828125 C 11.328125 -28.941406 10.671875 -29.050781 9.828125 -29.15625 C 8.765625 -29.289062 7.992188 -29.710938 7.515625 -30.421875 C 7.046875 -31.140625 6.84375 -31.882812 6.90625 -32.65625 C 6.96875 -33.4375 7.285156 -34.117188 7.859375 -34.703125 C 8.441406 -35.285156 9.25 -35.53125 10.28125 -35.4375 C 10.757812 -35.414062 11.492188 -35.414062 12.484375 -35.4375 C 13.472656 -35.457031 14.566406 -35.46875 15.765625 -35.46875 C 16.960938 -35.46875 18.171875 -35.414062 19.390625 -35.3125 C 20.609375 -35.21875 21.707031 -35.003906 22.6875 -34.671875 C 23.675781 -34.347656 24.453125 -33.894531 25.015625 -33.3125 C 25.578125 -32.738281 25.78125 -31.984375 25.625 -31.046875 C 25.5 -30.316406 25.144531 -29.710938 24.5625 -29.234375 C 23.976562 -28.765625 23.253906 -28.507812 22.390625 -28.46875 C 22.015625 -28.445312 21.640625 -28.457031 21.265625 -28.5 C 20.898438 -28.550781 20.535156 -28.601562 20.171875 -28.65625 C 19.578125 -28.726562 19.300781 -28.476562 19.34375 -27.90625 C 19.382812 -26.414062 19.359375 -24.925781 19.265625 -23.4375 C 19.171875 -21.957031 19.050781 -20.488281 18.90625 -19.03125 C 18.757812 -17.570312 18.613281 -16.109375 18.46875 -14.640625 C 18.320312 -13.171875 18.234375 -11.691406 18.203125 -10.203125 C 18.179688 -9.453125 18.140625 -8.695312 18.078125 -7.9375 C 18.015625 -7.175781 17.953125 -6.429688 17.890625 -5.703125 C 17.816406 -5.140625 17.875 -4.71875 18.0625 -4.4375 C 18.257812 -4.164062 18.660156 -4.023438 19.265625 -4.015625 C 20.222656 -4.003906 21.195312 -3.785156 22.1875 -3.359375 C 23.175781 -2.941406 23.820312 -2.226562 24.125 -1.21875 C 24.320312 -0.445312 24.253906 0.195312 23.921875 0.71875 C 23.585938 1.238281 23.132812 1.71875 22.5625 2.15625 L 22.625 2.21875 L 22.515625 2.21875 L 22.5625 2.21875 L 22.515625 2.21875 C 21.160156 2.570312 19.851562 2.609375 18.59375 2.328125 C 17.34375 2.054688 16.082031 1.804688 14.8125 1.578125 C 13.78125 1.367188 12.769531 1.132812 11.78125 0.875 C 10.789062 0.625 9.8125 0.347656 8.84375 0.046875 C 7.800781 -0.265625 7.046875 -0.796875 6.578125 -1.546875 C 6.109375 -2.296875 6 -3.085938 6.25 -3.921875 C 6.507812 -4.785156 7 -5.394531 7.71875 -5.75 C 8.4375 -6.101562 9.320312 -6.175781 10.375 -5.96875 C 10.8125 -5.875 11.140625 -5.867188 11.359375 -5.953125 C 11.578125 -6.046875 11.679688 -6.351562 11.671875 -6.875 C 11.773438 -9.78125 11.957031 -12.671875 12.21875 -15.546875 C 12.488281 -18.421875 12.75 -21.296875 13 -24.171875 C 13.03125 -24.359375 13.039062 -24.519531 13.03125 -24.65625 C 13.03125 -24.789062 13.039062 -24.945312 13.0625 -25.125 Z M 13.0625 -25.125 "/></g></g></g><g fill="#624f9f" fill-opacity="1"><g transform="translate(183.178063, 301.253877)"><g><path d="M 16.3125 -0.90625 C 13.34375 -1.59375 10.691406 -2.96875 8.359375 -5.03125 C 6.023438 -7.101562 4.398438 -9.796875 3.484375 -13.109375 C 3.015625 -14.929688 2.785156 -16.785156 2.796875 -18.671875 C 2.816406 -20.554688 3.070312 -22.398438 3.5625 -24.203125 C 4.050781 -26.015625 4.757812 -27.742188 5.6875 -29.390625 C 6.625 -31.035156 7.742188 -32.535156 9.046875 -33.890625 C 10.972656 -35.859375 13.21875 -37.078125 15.78125 -37.546875 C 18.351562 -38.023438 20.90625 -37.765625 23.4375 -36.765625 C 24.40625 -36.378906 25.328125 -35.90625 26.203125 -35.34375 C 27.085938 -34.789062 27.859375 -34.109375 28.515625 -33.296875 C 29.148438 -32.535156 29.535156 -31.628906 29.671875 -30.578125 C 29.804688 -29.523438 29.503906 -28.582031 28.765625 -27.75 C 28.441406 -27.34375 28.003906 -27.097656 27.453125 -27.015625 C 26.898438 -26.929688 26.382812 -26.957031 25.90625 -27.09375 C 25.457031 -27.195312 25.035156 -27.398438 24.640625 -27.703125 C 24.242188 -28.015625 23.851562 -28.347656 23.46875 -28.703125 C 23.09375 -29.066406 22.71875 -29.410156 22.34375 -29.734375 C 21.96875 -30.066406 21.554688 -30.300781 21.109375 -30.4375 C 19.953125 -30.863281 18.863281 -31.039062 17.84375 -30.96875 C 16.832031 -30.894531 15.882812 -30.644531 15 -30.21875 C 14.125 -29.800781 13.335938 -29.210938 12.640625 -28.453125 C 11.953125 -27.703125 11.359375 -26.859375 10.859375 -25.921875 C 10.253906 -24.765625 9.78125 -23.5 9.4375 -22.125 C 9.09375 -20.75 8.929688 -19.359375 8.953125 -17.953125 C 8.984375 -16.546875 9.226562 -15.1875 9.6875 -13.875 C 10.15625 -12.5625 10.863281 -11.398438 11.8125 -10.390625 C 12.71875 -9.410156 13.703125 -8.648438 14.765625 -8.109375 C 15.835938 -7.566406 16.941406 -7.191406 18.078125 -6.984375 C 19.210938 -6.785156 20.367188 -6.734375 21.546875 -6.828125 C 22.722656 -6.921875 23.925781 -7.113281 25.15625 -7.40625 C 25.820312 -7.601562 26.4375 -7.890625 27 -8.265625 C 27.5625 -8.648438 28.15625 -9 28.78125 -9.3125 C 29.40625 -9.65625 30.050781 -9.859375 30.71875 -9.921875 C 31.382812 -9.984375 32.035156 -9.800781 32.671875 -9.375 C 33.421875 -8.875 33.828125 -8.28125 33.890625 -7.59375 C 33.960938 -6.90625 33.875 -6.191406 33.625 -5.453125 L 33.734375 -5.40625 L 33.625 -5.453125 C 33.488281 -5.296875 33.269531 -5.109375 32.96875 -4.890625 C 31.769531 -3.867188 30.488281 -3.019531 29.125 -2.34375 C 27.769531 -1.664062 26.375 -1.164062 24.9375 -0.84375 C 23.5 -0.519531 22.054688 -0.363281 20.609375 -0.375 C 19.160156 -0.394531 17.726562 -0.570312 16.3125 -0.90625 Z M 16.3125 -0.90625 "/></g></g></g><g fill="#624f9f" fill-opacity="1"><g transform="translate(227.342849, 299.3748)"><g/></g></g><g fill="#624f9f" fill-opacity="1"><g transform="translate(247.120753, 296.978974)"><g><path d="M 8.453125 -19.421875 C 8.398438 -18.992188 8.460938 -18.765625 8.640625 -18.734375 C 8.828125 -18.703125 9.050781 -18.71875 9.3125 -18.78125 L 15.96875 -20.484375 C 14.8125 -22.023438 13.707031 -23.492188 12.65625 -24.890625 C 11.613281 -26.285156 10.570312 -27.671875 9.53125 -29.046875 C 9.238281 -27.359375 9.015625 -25.734375 8.859375 -24.171875 C 8.703125 -22.609375 8.566406 -21.023438 8.453125 -19.421875 Z M 7.96875 -9.890625 C 7.851562 -9.128906 7.816406 -8.296875 7.859375 -7.390625 C 7.898438 -6.492188 7.84375 -5.671875 7.6875 -4.921875 C 7.539062 -4.171875 7.21875 -3.554688 6.71875 -3.078125 C 6.226562 -2.609375 5.410156 -2.441406 4.265625 -2.578125 C 3.640625 -2.648438 3.128906 -2.859375 2.734375 -3.203125 C 2.335938 -3.546875 2.035156 -3.945312 1.828125 -4.40625 C 1.617188 -4.863281 1.46875 -5.367188 1.375 -5.921875 C 1.289062 -6.472656 1.265625 -6.992188 1.296875 -7.484375 C 1.398438 -12.148438 1.59375 -16.789062 1.875 -21.40625 C 2.164062 -26.03125 2.632812 -30.660156 3.28125 -35.296875 C 3.351562 -35.660156 3.394531 -36.148438 3.40625 -36.765625 C 3.425781 -37.378906 3.546875 -37.847656 3.765625 -38.171875 C 4.097656 -38.648438 4.472656 -39.066406 4.890625 -39.421875 C 5.316406 -39.773438 5.765625 -40.039062 6.234375 -40.21875 C 6.710938 -40.394531 7.21875 -40.453125 7.75 -40.390625 C 8.28125 -40.335938 8.800781 -40.132812 9.3125 -39.78125 C 9.539062 -39.601562 9.757812 -39.414062 9.96875 -39.21875 C 10.175781 -39.019531 10.382812 -38.800781 10.59375 -38.5625 C 12.820312 -35.988281 14.9375 -33.320312 16.9375 -30.5625 C 18.945312 -27.8125 20.96875 -25.070312 23 -22.34375 C 24 -20.957031 25.035156 -19.597656 26.109375 -18.265625 C 27.179688 -16.929688 28.203125 -15.546875 29.171875 -14.109375 C 29.484375 -13.671875 29.773438 -13.164062 30.046875 -12.59375 C 30.328125 -12.03125 30.519531 -11.46875 30.625 -10.90625 C 30.738281 -10.34375 30.707031 -9.789062 30.53125 -9.25 C 30.363281 -8.71875 30.015625 -8.242188 29.484375 -7.828125 C 28.566406 -7.179688 27.671875 -7.007812 26.796875 -7.3125 C 25.921875 -7.625 25.113281 -8.175781 24.375 -8.96875 C 23.632812 -9.757812 22.957031 -10.628906 22.34375 -11.578125 C 21.738281 -12.523438 21.25 -13.289062 20.875 -13.875 C 20.625 -14.238281 20.347656 -14.457031 20.046875 -14.53125 C 19.742188 -14.601562 19.394531 -14.585938 19 -14.484375 C 17.414062 -14.078125 15.867188 -13.632812 14.359375 -13.15625 C 12.859375 -12.675781 11.300781 -12.328125 9.6875 -12.109375 C 9.125 -12.035156 8.71875 -11.785156 8.46875 -11.359375 C 8.21875 -10.941406 8.050781 -10.453125 7.96875 -9.890625 Z M 7.96875 -9.890625 "/></g></g></g><g fill="#624f9f" fill-opacity="1"><g transform="translate(288.867293, 285.44378)"><g><path d="M -1.03125 -28.296875 C -1.4375 -29.085938 -1.765625 -29.691406 -2.015625 -30.109375 C -2.265625 -30.523438 -2.535156 -30.789062 -2.828125 -30.90625 C -3.128906 -31.03125 -3.507812 -31.023438 -3.96875 -30.890625 C -4.4375 -30.753906 -5.066406 -30.523438 -5.859375 -30.203125 C -6.847656 -29.796875 -7.722656 -29.785156 -8.484375 -30.171875 C -9.242188 -30.566406 -9.785156 -31.113281 -10.109375 -31.8125 C -10.441406 -32.519531 -10.5 -33.269531 -10.28125 -34.0625 C -10.070312 -34.851562 -9.492188 -35.460938 -8.546875 -35.890625 C -8.109375 -36.117188 -7.46875 -36.484375 -6.625 -36.984375 C -5.78125 -37.492188 -4.835938 -38.039062 -3.796875 -38.625 C -2.753906 -39.21875 -1.675781 -39.769531 -0.5625 -40.28125 C 0.539062 -40.800781 1.601562 -41.160156 2.625 -41.359375 C 3.644531 -41.566406 4.539062 -41.554688 5.3125 -41.328125 C 6.09375 -41.109375 6.644531 -40.550781 6.96875 -39.65625 C 7.21875 -38.945312 7.203125 -38.242188 6.921875 -37.546875 C 6.648438 -36.847656 6.148438 -36.269531 5.421875 -35.8125 C 5.109375 -35.613281 4.78125 -35.441406 4.4375 -35.296875 C 4.09375 -35.160156 3.75 -35.019531 3.40625 -34.875 C 2.851562 -34.644531 2.738281 -34.296875 3.0625 -33.828125 C 3.820312 -32.535156 4.523438 -31.222656 5.171875 -29.890625 C 5.828125 -28.554688 6.453125 -27.21875 7.046875 -25.875 C 7.640625 -24.539062 8.234375 -23.195312 8.828125 -21.84375 C 9.429688 -20.488281 10.085938 -19.15625 10.796875 -17.84375 C 11.140625 -17.1875 11.472656 -16.515625 11.796875 -15.828125 C 12.117188 -15.148438 12.441406 -14.472656 12.765625 -13.796875 C 12.972656 -13.273438 13.226562 -12.9375 13.53125 -12.78125 C 13.832031 -12.632812 14.242188 -12.707031 14.765625 -13 C 15.609375 -13.457031 16.566406 -13.75 17.640625 -13.875 C 18.710938 -14.007812 19.625 -13.707031 20.375 -12.96875 C 20.925781 -12.394531 21.1875 -11.800781 21.15625 -11.1875 C 21.132812 -10.570312 20.984375 -9.929688 20.703125 -9.265625 L 20.765625 -9.21875 L 20.671875 -9.1875 L 20.71875 -9.203125 L 20.671875 -9.1875 C 19.660156 -8.207031 18.546875 -7.523438 17.328125 -7.140625 C 16.109375 -6.753906 14.882812 -6.351562 13.65625 -5.9375 C 12.664062 -5.601562 11.675781 -5.300781 10.6875 -5.03125 C 9.695312 -4.769531 8.707031 -4.535156 7.71875 -4.328125 C 6.65625 -4.085938 5.734375 -4.175781 4.953125 -4.59375 C 4.171875 -5.019531 3.6875 -5.648438 3.5 -6.484375 C 3.300781 -7.367188 3.425781 -8.144531 3.875 -8.8125 C 4.320312 -9.476562 5.054688 -9.976562 6.078125 -10.3125 C 6.503906 -10.445312 6.789062 -10.601562 6.9375 -10.78125 C 7.082031 -10.96875 7.019531 -11.285156 6.75 -11.734375 C 5.40625 -14.304688 4.140625 -16.910156 2.953125 -19.546875 C 1.765625 -22.179688 0.570312 -24.8125 -0.625 -27.4375 C -0.695312 -27.613281 -0.765625 -27.757812 -0.828125 -27.875 C -0.890625 -27.988281 -0.957031 -28.128906 -1.03125 -28.296875 Z M -1.03125 -28.296875 "/></g></g></g><g fill="#624f9f" fill-opacity="1"><g transform="translate(319.658435, 272.65049)"><g><path d="M 15.59375 -25.953125 C 15.582031 -27.410156 15.34375 -28.753906 14.875 -29.984375 C 14.414062 -31.210938 13.757812 -32.296875 12.90625 -33.234375 C 12.050781 -34.171875 11.023438 -34.9375 9.828125 -35.53125 C 8.640625 -36.125 7.320312 -36.484375 5.875 -36.609375 C 3.550781 -36.828125 1.394531 -36.5625 -0.59375 -35.8125 C -2.582031 -35.070312 -4.472656 -34 -6.265625 -32.59375 C -6.609375 -32.300781 -6.734375 -32.054688 -6.640625 -31.859375 C -6.554688 -31.660156 -6.4375 -31.429688 -6.28125 -31.171875 C -5.96875 -30.640625 -5.492188 -29.859375 -4.859375 -28.828125 C -4.222656 -27.804688 -3.507812 -26.660156 -2.71875 -25.390625 C -1.925781 -24.117188 -1.09375 -22.78125 -0.21875 -21.375 C 0.644531 -19.976562 1.472656 -18.640625 2.265625 -17.359375 C 3.066406 -16.078125 3.78125 -14.925781 4.40625 -13.90625 C 5.03125 -12.882812 5.507812 -12.082031 5.84375 -11.5 C 6.019531 -11.21875 6.191406 -11.019531 6.359375 -10.90625 C 6.535156 -10.800781 6.789062 -10.863281 7.125 -11.09375 C 9.75 -12.90625 11.8125 -15.015625 13.3125 -17.421875 C 14.820312 -19.835938 15.582031 -22.679688 15.59375 -25.953125 Z M 17.1875 -37.21875 C 17.289062 -37.113281 17.363281 -37.019531 17.40625 -36.9375 C 17.457031 -36.851562 17.539062 -36.757812 17.65625 -36.65625 C 19.507812 -34.3125 20.679688 -31.660156 21.171875 -28.703125 C 21.671875 -25.753906 21.515625 -22.882812 20.703125 -20.09375 C 19.765625 -16.664062 18.238281 -13.691406 16.125 -11.171875 C 14.019531 -8.660156 11.40625 -6.5625 8.28125 -4.875 C 6.800781 -4.09375 5.613281 -3.820312 4.71875 -4.0625 C 3.820312 -4.3125 2.921875 -5.140625 2.015625 -6.546875 C -0.335938 -10.316406 -2.675781 -14.082031 -5 -17.84375 C -7.332031 -21.601562 -9.675781 -25.367188 -12.03125 -29.140625 C -12.6875 -30.179688 -13.035156 -31.0625 -13.078125 -31.78125 C -13.117188 -32.507812 -12.765625 -33.375 -12.015625 -34.375 C -11.566406 -34.988281 -11.132812 -35.609375 -10.71875 -36.234375 C -10.3125 -36.859375 -9.800781 -37.394531 -9.1875 -37.84375 C -7.570312 -39.0625 -5.828125 -40.070312 -3.953125 -40.875 C -2.085938 -41.675781 -0.160156 -42.207031 1.828125 -42.46875 C 3.222656 -42.65625 4.628906 -42.679688 6.046875 -42.546875 C 7.460938 -42.410156 8.835938 -42.125 10.171875 -41.6875 C 11.503906 -41.25 12.769531 -40.664062 13.96875 -39.9375 C 15.175781 -39.207031 16.25 -38.300781 17.1875 -37.21875 Z M 17.1875 -37.21875 "/></g></g></g><g fill="#624f9f" fill-opacity="1"><g transform="translate(356.542806, 249.690971)"><g/></g></g></svg>