<svg xmlns="http://www.w3.org/2000/svg" xmlns:xlink="http://www.w3.org/1999/xlink" width="500" zoomAndPan="magnify" viewBox="0 0 375 374.999991" height="500" preserveAspectRatio="xMidYMid meet" version="1.0"><defs><g/><clipPath id="98177fa1b1"><path d="M 37.5 36.613281 L 338.386719 36.613281 L 338.386719 337.5 L 37.5 337.5 Z M 37.5 36.613281 " clip-rule="nonzero"/></clipPath><clipPath id="421b363f25"><path d="M 187.945312 36.613281 C 104.855469 36.613281 37.5 103.96875 37.5 187.054688 C 37.5 270.144531 104.855469 337.5 187.945312 337.5 C 271.03125 337.5 338.386719 270.144531 338.386719 187.054688 C 338.386719 103.96875 271.03125 36.613281 187.945312 36.613281 Z M 187.945312 36.613281 " clip-rule="nonzero"/></clipPath><clipPath id="355e668c67"><path d="M 124 131 L 251.5625 131 L 251.5625 162 L 124 162 Z M 124 131 " clip-rule="nonzero"/></clipPath><clipPath id="3b794b97c7"><path d="M 124 127 L 251.5625 127 L 251.5625 159 L 124 159 Z M 124 127 " clip-rule="nonzero"/></clipPath><clipPath id="a5a9b7f39b"><path d="M 180 63.941406 L 237 63.941406 L 237 94 L 180 94 Z M 180 63.941406 " clip-rule="nonzero"/></clipPath><clipPath id="8f1fd7fc41"><path d="M 123.3125 70 L 246 70 L 246 129 L 123.3125 129 Z M 123.3125 70 " clip-rule="nonzero"/></clipPath></defs><g clip-path="url(#98177fa1b1)"><g clip-path="url(#421b363f25)"><path fill="#ffffff" d="M 37.5 36.613281 L 338.386719 36.613281 L 338.386719 337.5 L 37.5 337.5 Z M 37.5 36.613281 " fill-opacity="1" fill-rule="nonzero"/></g></g><path fill="#704dba" d="M 227.039062 217.152344 C 201.761719 225.988281 173.390625 225.691406 148.304688 216.328125 C 146.882812 215.796875 145.96875 214.40625 146.0625 212.890625 C 146.550781 204.820312 147.835938 179.144531 148.5625 164.4375 C 148.875 158.117188 149.085938 153.824219 149.085938 153.824219 C 174.046875 155.121094 200.570312 158.476562 226.035156 152.742188 C 226.121094 152.695312 226.402344 157.058594 226.765625 163.511719 C 227.621094 178.679688 228.945312 205.414062 229.351562 213.730469 C 229.429688 215.257812 228.484375 216.648438 227.039062 217.152344 Z M 227.039062 217.152344 " fill-opacity="1" fill-rule="nonzero"/><path fill="#f5da8d" d="M 226.765625 163.511719 C 201.300781 170.203125 174.179688 170.527344 148.5625 164.4375 C 148.875 158.117188 149.082031 153.824219 149.082031 153.824219 C 174.046875 155.121094 200.570312 158.476562 226.03125 152.742188 C 226.121094 152.695312 226.402344 157.058594 226.765625 163.511719 Z M 226.765625 163.511719 " fill-opacity="1" fill-rule="nonzero"/><g clip-path="url(#355e668c67)"><path fill="#4d2f8c" d="M 124.296875 146.457031 C 124.296875 145.402344 124.296875 143.09375 124.296875 143.09375 C 124.296875 143.09375 157.105469 131.1875 187.785156 131.1875 C 219.566406 131.1875 251.277344 143.242188 251.277344 143.242188 C 251.277344 143.242188 251.277344 145.667969 251.277344 146.457031 C 251.277344 154.890625 222.851562 161.726562 187.785156 161.726562 C 152.722656 161.726562 124.296875 154.890625 124.296875 146.457031 Z M 124.296875 146.457031 " fill-opacity="1" fill-rule="nonzero"/></g><g clip-path="url(#3b794b97c7)"><path fill="#704dba" d="M 251.277344 143.246094 C 251.277344 143.746094 251.175781 144.242188 250.972656 144.742188 C 250.769531 145.238281 250.464844 145.734375 250.058594 146.222656 C 249.652344 146.714844 249.148438 147.199219 248.542969 147.675781 C 247.941406 148.15625 247.238281 148.625 246.445312 149.089844 C 245.648438 149.550781 244.761719 150 243.78125 150.441406 C 242.800781 150.882812 241.734375 151.3125 240.578125 151.726562 C 239.421875 152.144531 238.183594 152.546875 236.867188 152.933594 C 235.546875 153.320312 234.152344 153.6875 232.679688 154.042969 C 231.210938 154.394531 229.671875 154.730469 228.066406 155.046875 C 226.457031 155.367188 224.789062 155.664062 223.058594 155.941406 C 221.332031 156.21875 219.550781 156.476562 217.714844 156.710938 C 215.882812 156.949219 214.003906 157.160156 212.082031 157.351562 C 210.164062 157.542969 208.207031 157.710938 206.21875 157.859375 C 204.226562 158.003906 202.210938 158.125 200.171875 158.222656 C 198.132812 158.320312 196.078125 158.390625 194.011719 158.441406 C 191.941406 158.492188 189.867188 158.515625 187.785156 158.515625 C 185.707031 158.515625 183.632812 158.492188 181.5625 158.441406 C 179.496094 158.390625 177.441406 158.320312 175.402344 158.222656 C 173.359375 158.125 171.347656 158.003906 169.355469 157.859375 C 167.367188 157.710938 165.410156 157.542969 163.488281 157.351562 C 161.570312 157.160156 159.691406 156.949219 157.859375 156.710938 C 156.023438 156.476562 154.242188 156.21875 152.511719 155.941406 C 150.785156 155.664062 149.117188 155.367188 147.507812 155.046875 C 145.902344 154.730469 144.363281 154.394531 142.890625 154.042969 C 141.421875 153.6875 140.027344 153.320312 138.707031 152.933594 C 137.390625 152.546875 136.152344 152.144531 134.996094 151.726562 C 133.839844 151.3125 132.773438 150.882812 131.792969 150.441406 C 130.8125 150 129.925781 149.550781 129.128906 149.089844 C 128.332031 148.625 127.632812 148.15625 127.03125 147.675781 C 126.425781 147.199219 125.921875 146.714844 125.515625 146.222656 C 125.109375 145.734375 124.804688 145.238281 124.601562 144.742188 C 124.398438 144.242188 124.296875 143.746094 124.296875 143.246094 C 124.296875 142.746094 124.398438 142.246094 124.601562 141.746094 C 124.804688 141.25 125.109375 140.753906 125.515625 140.265625 C 125.921875 139.773438 126.425781 139.289062 127.03125 138.8125 C 127.632812 138.332031 128.332031 137.863281 129.128906 137.402344 C 129.925781 136.9375 130.8125 136.488281 131.792969 136.046875 C 132.773438 135.605469 133.839844 135.175781 134.996094 134.761719 C 136.152344 134.34375 137.390625 133.945312 138.707031 133.558594 C 140.027344 133.171875 141.421875 132.800781 142.890625 132.445312 C 144.363281 132.09375 145.902344 131.757812 147.507812 131.441406 C 149.117188 131.121094 150.785156 130.824219 152.511719 130.546875 C 154.242188 130.269531 156.023438 130.011719 157.859375 129.777344 C 159.691406 129.542969 161.570312 129.328125 163.488281 129.136719 C 165.410156 128.945312 167.367188 128.777344 169.355469 128.632812 C 171.347656 128.484375 173.359375 128.363281 175.402344 128.265625 C 177.441406 128.167969 179.496094 128.097656 181.5625 128.046875 C 183.632812 128 185.707031 127.972656 187.785156 127.972656 C 189.867188 127.972656 191.941406 128 194.011719 128.046875 C 196.078125 128.097656 198.132812 128.167969 200.171875 128.265625 C 202.210938 128.363281 204.226562 128.484375 206.21875 128.632812 C 208.207031 128.777344 210.164062 128.945312 212.082031 129.136719 C 214.003906 129.328125 215.882812 129.542969 217.714844 129.777344 C 219.550781 130.011719 221.332031 130.269531 223.058594 130.546875 C 224.789062 130.824219 226.457031 131.121094 228.066406 131.441406 C 229.671875 131.757812 231.210938 132.09375 232.679688 132.445312 C 234.152344 132.800781 235.546875 133.171875 236.867188 133.558594 C 238.183594 133.945312 239.421875 134.34375 240.578125 134.761719 C 241.734375 135.175781 242.800781 135.605469 243.78125 136.046875 C 244.761719 136.488281 245.648438 136.9375 246.445312 137.402344 C 247.238281 137.863281 247.941406 138.332031 248.542969 138.8125 C 249.148438 139.289062 249.652344 139.773438 250.058594 140.265625 C 250.464844 140.753906 250.769531 141.25 250.972656 141.746094 C 251.175781 142.246094 251.277344 142.746094 251.277344 143.246094 Z M 251.277344 143.246094 " fill-opacity="1" fill-rule="nonzero"/></g><path fill="#4d2f8c" d="M 226.0625 142.101562 C 226.0625 144.175781 216.609375 145.964844 203.089844 146.746094 C 202.386719 146.789062 201.675781 146.824219 200.953125 146.863281 C 198.539062 146.980469 196.011719 147.066406 193.398438 147.117188 C 191.953125 147.144531 190.488281 147.164062 188.996094 147.167969 C 188.597656 147.167969 188.191406 147.167969 187.785156 147.167969 C 186.632812 147.167969 185.492188 147.164062 184.363281 147.148438 C 183.136719 147.136719 181.929688 147.113281 180.742188 147.085938 C 177.425781 147.003906 174.265625 146.863281 171.3125 146.675781 C 169.5625 146.566406 167.882812 146.4375 166.292969 146.292969 C 156.164062 145.382812 149.511719 143.84375 149.511719 142.101562 C 149.511719 140.5625 154.6875 139.183594 162.855469 138.25 C 164.460938 138.070312 166.175781 137.90625 167.996094 137.761719 C 170.984375 137.519531 174.238281 137.335938 177.683594 137.210938 C 179.324219 137.152344 181.003906 137.105469 182.726562 137.074219 C 184.382812 137.042969 186.070312 137.03125 187.785156 137.03125 C 188.535156 137.03125 189.273438 137.03125 190.011719 137.039062 C 191.90625 137.050781 193.761719 137.085938 195.570312 137.132812 C 198.304688 137.210938 200.9375 137.324219 203.425781 137.472656 C 204.101562 137.511719 204.769531 137.554688 205.425781 137.597656 C 206.765625 137.691406 208.0625 137.792969 209.304688 137.90625 C 212.25 138.171875 214.898438 138.492188 217.175781 138.851562 C 222.726562 139.734375 226.0625 140.867188 226.0625 142.101562 Z M 226.0625 142.101562 " fill-opacity="1" fill-rule="nonzero"/><path fill="#ded7d7" d="M 182.726562 137.074219 C 181.582031 132.21875 180.023438 127.425781 178.476562 122.679688 C 175.34375 113.09375 172.199219 103.46875 167.707031 94.4375 C 164.140625 87.253906 159.667969 80.421875 154.023438 74.765625 C 151.921875 72.660156 148.339844 73.863281 147.90625 76.8125 C 146.597656 85.738281 148.640625 95.144531 151.101562 103.992188 C 154.339844 115.632812 158.265625 127.078125 162.855469 138.25 C 163.964844 140.953125 165.109375 143.632812 166.292969 146.292969 C 167.882812 146.4375 169.5625 146.566406 171.3125 146.675781 C 174.265625 146.863281 177.425781 147.003906 180.742188 147.085938 C 181.929688 147.113281 183.136719 147.136719 184.363281 147.148438 C 184.101562 143.753906 183.507812 140.398438 182.726562 137.074219 Z M 218.894531 125.773438 C 218.617188 121.125 218.03125 116.492188 217.140625 111.917969 C 216.632812 109.292969 214.671875 107.179688 212.089844 106.484375 C 208.621094 105.550781 205.03125 105.050781 201.460938 105.109375 C 199.355469 105.144531 197.5 106.488281 196.808594 108.476562 C 193.566406 117.863281 191.3125 127.410156 190.011719 137.039062 C 189.558594 140.40625 189.21875 143.785156 188.996094 147.167969 C 190.488281 147.160156 191.957031 147.140625 193.398438 147.117188 C 196.011719 147.066406 198.539062 146.980469 200.953125 146.863281 C 201.675781 146.824219 202.386719 146.789062 203.089844 146.746094 C 203.769531 143.671875 204.546875 140.625 205.425781 137.597656 C 205.671875 136.746094 205.925781 135.894531 206.183594 135.042969 C 206.304688 134.660156 206.425781 134.277344 206.546875 133.894531 C 206.546875 133.890625 206.550781 133.886719 206.550781 133.886719 C 206.558594 133.910156 206.574219 133.933594 206.582031 133.957031 C 207.285156 135.433594 208.207031 136.757812 209.304688 137.90625 C 210.09375 138.742188 210.976562 139.488281 211.925781 140.128906 C 213.714844 141.335938 216.160156 140.726562 217.175781 138.851562 C 217.210938 138.789062 217.246094 138.722656 217.277344 138.65625 C 217.945312 137.21875 218.382812 135.691406 218.644531 134.148438 C 219.113281 131.390625 219.058594 128.566406 218.894531 125.773438 Z M 218.894531 125.773438 " fill-opacity="1" fill-rule="nonzero"/><path fill="#ded7d7" d="M 177.683594 137.210938 C 177.355469 136.246094 177.023438 135.28125 176.6875 134.316406 C 171.972656 120.6875 167.210938 106.960938 159.996094 94.46875 C 159.453125 93.535156 158.851562 92.207031 158.089844 91.164062 C 157.472656 90.3125 156.117188 90.726562 156.078125 91.777344 C 155.941406 95.328125 156.6875 99.359375 157.480469 102.609375 C 160.371094 114.496094 163.882812 126.238281 167.992188 137.761719 C 169.058594 140.75 170.164062 143.722656 171.308594 146.675781 C 174.265625 146.863281 177.425781 147.003906 180.738281 147.085938 C 179.867188 143.753906 178.796875 140.472656 177.683594 137.210938 Z M 200.867188 122.007812 C 198.691406 126.925781 196.9375 131.984375 195.570312 137.136719 C 194.691406 140.429688 193.972656 143.761719 193.398438 147.117188 C 196.011719 147.066406 198.539062 146.980469 200.953125 146.863281 C 201.777344 143.730469 202.597656 140.601562 203.425781 137.472656 C 203.898438 135.664062 204.375 133.859375 204.851562 132.054688 C 202.851562 128.890625 201.59375 125.503906 200.867188 122.007812 Z M 200.867188 122.007812 " fill-opacity="1" fill-rule="nonzero"/><path fill="#4d2f8c" d="M 206.546875 133.894531 C 206.425781 134.277344 206.304688 134.660156 206.183594 135.042969 C 204.472656 132.132812 202.8125 129.175781 201.550781 126.039062 C 200.207031 122.695312 199.324219 119.117188 199.40625 115.515625 C 200.847656 121.957031 203.257812 128.183594 206.546875 133.894531 Z M 206.546875 133.894531 " fill-opacity="1" fill-rule="nonzero"/><g clip-path="url(#a5a9b7f39b)"><path fill="#704dba" d="M 234.253906 63.941406 L 183.957031 88.300781 L 181.75 89.371094 C 180.9375 89.765625 180.605469 90.753906 181.015625 91.558594 L 181.464844 92.445312 C 181.859375 93.222656 182.804688 93.546875 183.589844 93.175781 C 184.261719 92.863281 185.148438 92.445312 186.21875 91.945312 C 198.761719 86.058594 236.175781 68.5 236.167969 68.414062 C 236.398438 66.738281 235.644531 64.960938 234.253906 63.941406 Z M 234.253906 63.941406 " fill-opacity="1" fill-rule="nonzero"/></g><g clip-path="url(#8f1fd7fc41)"><path fill="#f5da8d" d="M 186.21875 91.945312 C 185.148438 92.445312 184.261719 92.863281 183.59375 93.175781 C 182.804688 93.546875 181.863281 93.222656 181.464844 92.445312 L 181.015625 91.558594 C 180.605469 90.753906 180.9375 89.765625 181.753906 89.371094 L 183.957031 88.300781 C 184.4375 89.660156 185.214844 90.914062 186.21875 91.945312 Z M 132.449219 115.894531 L 135.511719 115.515625 L 132.449219 115.132812 C 131.070312 114.964844 129.980469 113.875 129.808594 112.492188 L 129.425781 109.429688 L 129.046875 112.492188 C 128.875 113.871094 127.789062 114.960938 126.402344 115.132812 L 123.34375 115.515625 L 126.402344 115.894531 C 127.785156 116.066406 128.875 117.152344 129.046875 118.539062 L 129.425781 121.597656 L 129.808594 118.539062 C 129.980469 117.152344 131.070312 116.066406 132.449219 115.894531 Z M 235.871094 100.503906 L 238.933594 100.125 L 235.871094 99.742188 C 234.488281 99.574219 233.402344 98.484375 233.226562 97.097656 L 232.847656 94.039062 L 232.46875 97.097656 C 232.296875 98.480469 231.207031 99.570312 229.824219 99.742188 L 226.761719 100.125 L 229.824219 100.503906 C 231.207031 100.671875 232.296875 101.761719 232.46875 103.148438 L 232.847656 106.207031 L 233.226562 103.148438 C 233.402344 101.761719 234.488281 100.671875 235.871094 100.503906 Z M 187.605469 97.503906 L 189.011719 97.328125 L 187.605469 97.15625 C 186.972656 97.074219 186.472656 96.574219 186.394531 95.941406 L 186.21875 94.535156 L 186.042969 95.941406 C 185.964844 96.578125 185.464844 97.078125 184.832031 97.15625 L 183.425781 97.328125 L 184.832031 97.503906 C 185.46875 97.582031 185.96875 98.085938 186.042969 98.71875 L 186.21875 100.125 L 186.394531 98.71875 C 186.472656 98.085938 186.972656 97.582031 187.605469 97.503906 Z M 175.636719 74.507812 L 177.339844 74.296875 L 175.636719 74.085938 C 174.863281 73.992188 174.261719 73.382812 174.164062 72.617188 L 173.953125 70.910156 L 173.742188 72.617188 C 173.648438 73.386719 173.042969 73.992188 172.273438 74.085938 L 170.570312 74.296875 L 172.273438 74.507812 C 173.042969 74.601562 173.648438 75.210938 173.742188 75.976562 L 173.953125 77.683594 L 174.164062 75.976562 C 174.261719 75.210938 174.863281 74.601562 175.636719 74.507812 Z M 213.59375 86.5625 L 215.296875 86.351562 L 213.59375 86.140625 C 212.824219 86.046875 212.21875 85.4375 212.121094 84.671875 L 211.914062 82.964844 L 211.703125 84.671875 C 211.605469 85.441406 211 86.046875 210.230469 86.140625 L 208.527344 86.351562 L 210.230469 86.5625 C 211 86.65625 211.605469 87.265625 211.703125 88.03125 L 211.914062 89.738281 L 212.121094 88.03125 C 212.214844 87.265625 212.824219 86.65625 213.59375 86.5625 Z M 244 125.191406 L 245.707031 124.984375 L 244 124.773438 C 243.230469 124.675781 242.625 124.070312 242.53125 123.300781 L 242.320312 121.597656 L 242.109375 123.300781 C 242.015625 124.070312 241.40625 124.675781 240.640625 124.773438 L 238.933594 124.984375 L 240.640625 125.191406 C 241.410156 125.289062 242.015625 125.894531 242.109375 126.664062 L 242.320312 128.367188 L 242.53125 126.664062 C 242.625 125.894531 243.230469 125.289062 244 125.191406 Z M 244 125.191406 " fill-opacity="1" fill-rule="nonzero"/></g><g fill="#f5da8d" fill-opacity="1"><g transform="translate(58.019099, 233.838558)"><g><path d="M 33.140625 -1.84375 C 32.160156 0.664062 31.207031 3.148438 30.28125 5.609375 C 29.363281 8.078125 28.425781 10.5625 27.46875 13.0625 C 27.332031 13.375 27.195312 13.675781 27.0625 13.96875 C 26.9375 14.269531 26.753906 14.539062 26.515625 14.78125 C 25.742188 15.632812 24.820312 15.894531 23.75 15.5625 C 22.613281 15.238281 21.976562 14.484375 21.84375 13.296875 C 21.789062 12.941406 21.804688 12.59375 21.890625 12.25 C 21.984375 11.90625 22.085938 11.570312 22.203125 11.25 C 22.835938 9.625 23.460938 8.015625 24.078125 6.421875 C 24.691406 4.835938 25.300781 3.21875 25.90625 1.5625 C 26.34375 0.445312 26.773438 -0.664062 27.203125 -1.78125 C 27.628906 -2.894531 28.070312 -4.09375 28.53125 -5.375 C 27.90625 -5.070312 27.335938 -4.816406 26.828125 -4.609375 C 26.328125 -4.410156 25.851562 -4.15625 25.40625 -3.84375 C 24.9375 -3.65625 24.484375 -3.46875 24.046875 -3.28125 C 23.609375 -3.09375 23.148438 -2.910156 22.671875 -2.734375 C 21.703125 -2.378906 20.84375 -2.4375 20.09375 -2.90625 C 19.34375 -3.382812 18.894531 -4.132812 18.75 -5.15625 C 18.695312 -5.507812 18.671875 -5.859375 18.671875 -6.203125 C 18.671875 -6.554688 18.648438 -6.921875 18.609375 -7.296875 C 18.578125 -7.785156 18.550781 -8.289062 18.53125 -8.8125 C 18.519531 -9.34375 18.503906 -9.921875 18.484375 -10.546875 L 9.796875 2.28125 C 9.585938 2.59375 9.363281 2.894531 9.125 3.1875 C 8.882812 3.488281 8.617188 3.753906 8.328125 3.984375 C 7.640625 4.179688 6.992188 4.226562 6.390625 4.125 C 5.785156 4.03125 5.265625 3.65625 4.828125 3 C 4.410156 2.394531 4.253906 1.78125 4.359375 1.15625 C 4.460938 0.539062 4.710938 -0.0546875 5.109375 -0.640625 C 5.148438 -0.703125 5.1875 -0.757812 5.21875 -0.8125 C 5.25 -0.875 5.289062 -0.945312 5.34375 -1.03125 C 7.5 -4.207031 9.640625 -7.375 11.765625 -10.53125 C 13.898438 -13.6875 16.035156 -16.867188 18.171875 -20.078125 C 18.585938 -20.703125 19.0625 -21.175781 19.59375 -21.5 C 20.132812 -21.832031 20.789062 -21.992188 21.5625 -21.984375 C 22.226562 -21.722656 22.753906 -21.359375 23.140625 -20.890625 C 23.523438 -20.421875 23.742188 -19.804688 23.796875 -19.046875 C 23.804688 -18.816406 23.8125 -18.597656 23.8125 -18.390625 C 23.820312 -18.179688 23.859375 -17.976562 23.921875 -17.78125 C 23.835938 -17.550781 23.8125 -17.332031 23.84375 -17.125 C 23.875 -16.914062 23.910156 -16.703125 23.953125 -16.484375 C 23.941406 -16.347656 23.941406 -16.210938 23.953125 -16.078125 C 23.972656 -15.953125 23.972656 -15.816406 23.953125 -15.671875 C 23.984375 -14.640625 24.003906 -13.613281 24.015625 -12.59375 C 24.035156 -11.582031 24.0625 -10.53125 24.09375 -9.4375 C 24.96875 -9.8125 25.785156 -10.1875 26.546875 -10.5625 C 27.304688 -10.9375 28.0625 -11.300781 28.8125 -11.65625 C 28.957031 -11.71875 29.097656 -11.785156 29.234375 -11.859375 C 29.378906 -11.929688 29.519531 -12.007812 29.65625 -12.09375 C 29.96875 -12.226562 30.28125 -12.351562 30.59375 -12.46875 C 30.90625 -12.59375 31.21875 -12.726562 31.53125 -12.875 C 32.726562 -13.382812 33.6875 -13.515625 34.40625 -13.265625 C 35.125 -13.015625 35.742188 -12.3125 36.265625 -11.15625 L 36.21875 -9.78125 C 36.070312 -9.457031 35.929688 -9.144531 35.796875 -8.84375 C 35.671875 -8.539062 35.578125 -8.210938 35.515625 -7.859375 C 34.765625 -6.253906 34.144531 -4.601562 33.65625 -2.90625 L 33.671875 -2.953125 C 33.566406 -2.753906 33.46875 -2.570312 33.375 -2.40625 C 33.28125 -2.238281 33.203125 -2.050781 33.140625 -1.84375 Z M 33.140625 -1.84375 "/></g></g></g><g fill="#f5da8d" fill-opacity="1"><g transform="translate(90.813026, 255.240665)"><g><path d="M 15.234375 -8.015625 C 14.984375 -7.765625 14.90625 -7.582031 15 -7.46875 C 15.09375 -7.351562 15.242188 -7.25 15.453125 -7.15625 L 20.546875 -4.859375 C 20.597656 -6.421875 20.644531 -7.90625 20.6875 -9.3125 C 20.726562 -10.726562 20.769531 -12.140625 20.8125 -13.546875 C 19.769531 -12.640625 18.800781 -11.726562 17.90625 -10.8125 C 17.007812 -9.894531 16.117188 -8.960938 15.234375 -8.015625 Z M 10.09375 -2.234375 C 9.632812 -1.804688 9.179688 -1.289062 8.734375 -0.6875 C 8.296875 -0.09375 7.835938 0.398438 7.359375 0.796875 C 6.890625 1.191406 6.378906 1.410156 5.828125 1.453125 C 5.273438 1.503906 4.671875 1.195312 4.015625 0.53125 C 3.648438 0.164062 3.429688 -0.222656 3.359375 -0.640625 C 3.285156 -1.054688 3.296875 -1.460938 3.390625 -1.859375 C 3.492188 -2.253906 3.660156 -2.648438 3.890625 -3.046875 C 4.117188 -3.441406 4.367188 -3.789062 4.640625 -4.09375 C 7.078125 -7 9.554688 -9.835938 12.078125 -12.609375 C 14.609375 -15.390625 17.265625 -18.085938 20.046875 -20.703125 C 20.265625 -20.898438 20.535156 -21.1875 20.859375 -21.5625 C 21.179688 -21.945312 21.492188 -22.1875 21.796875 -22.28125 C 22.242188 -22.40625 22.691406 -22.472656 23.140625 -22.484375 C 23.597656 -22.492188 24.019531 -22.4375 24.40625 -22.3125 C 24.789062 -22.1875 25.132812 -21.96875 25.4375 -21.65625 C 25.75 -21.351562 25.976562 -20.957031 26.125 -20.46875 C 26.195312 -20.226562 26.242188 -20 26.265625 -19.78125 C 26.296875 -19.5625 26.316406 -19.316406 26.328125 -19.046875 C 26.429688 -16.285156 26.414062 -13.519531 26.28125 -10.75 C 26.15625 -7.988281 26.039062 -5.222656 25.9375 -2.453125 C 25.875 -1.066406 25.84375 0.316406 25.84375 1.703125 C 25.84375 3.085938 25.785156 4.488281 25.671875 5.90625 C 25.640625 6.332031 25.566406 6.796875 25.453125 7.296875 C 25.335938 7.804688 25.171875 8.265625 24.953125 8.671875 C 24.734375 9.078125 24.429688 9.40625 24.046875 9.65625 C 23.671875 9.914062 23.207031 10.039062 22.65625 10.03125 C 21.757812 9.976562 21.109375 9.628906 20.703125 8.984375 C 20.296875 8.347656 20.0625 7.59375 20 6.71875 C 19.9375 5.84375 19.953125 4.945312 20.046875 4.03125 C 20.148438 3.125 20.234375 2.382812 20.296875 1.8125 C 20.316406 1.457031 20.25 1.179688 20.09375 0.984375 C 19.9375 0.785156 19.707031 0.613281 19.40625 0.46875 C 18.195312 -0.0703125 16.992188 -0.570312 15.796875 -1.03125 C 14.609375 -1.5 13.441406 -2.070312 12.296875 -2.75 C 11.910156 -2.988281 11.523438 -3.035156 11.140625 -2.890625 C 10.765625 -2.753906 10.414062 -2.535156 10.09375 -2.234375 Z M 10.09375 -2.234375 "/></g></g></g><g fill="#f5da8d" fill-opacity="1"><g transform="translate(123.467496, 269.530283)"><g><path d="M 28.125 -6.453125 C 28.125 -5.285156 28.039062 -4.140625 27.875 -3.015625 C 27.707031 -1.898438 27.429688 -0.800781 27.046875 0.28125 C 26.785156 1.0625 26.398438 1.753906 25.890625 2.359375 C 25.378906 2.960938 24.785156 3.460938 24.109375 3.859375 C 23.441406 4.253906 22.71875 4.546875 21.9375 4.734375 C 21.15625 4.921875 20.359375 5.003906 19.546875 4.984375 C 17.367188 4.859375 15.410156 4.285156 13.671875 3.265625 C 11.941406 2.253906 10.488281 0.957031 9.3125 -0.625 C 8.132812 -2.207031 7.285156 -3.992188 6.765625 -5.984375 C 6.253906 -7.984375 6.125 -10.023438 6.375 -12.109375 C 6.625 -14.078125 7.21875 -15.953125 8.15625 -17.734375 C 9.09375 -19.515625 10.289062 -21.046875 11.75 -22.328125 C 13.207031 -23.617188 14.863281 -24.566406 16.71875 -25.171875 C 18.582031 -25.785156 20.5625 -25.851562 22.65625 -25.375 C 24.78125 -24.894531 26.59375 -24.046875 28.09375 -22.828125 C 29.601562 -21.609375 30.867188 -20.0625 31.890625 -18.1875 C 32.285156 -17.457031 32.414062 -16.765625 32.28125 -16.109375 C 32.15625 -15.453125 31.78125 -14.960938 31.15625 -14.640625 C 30.53125 -14.316406 29.910156 -14.257812 29.296875 -14.46875 C 28.679688 -14.675781 28.160156 -15.148438 27.734375 -15.890625 C 26.816406 -17.546875 25.6875 -18.820312 24.34375 -19.71875 C 23 -20.613281 21.347656 -20.96875 19.390625 -20.78125 C 17.378906 -20.582031 15.757812 -19.882812 14.53125 -18.6875 C 13.3125 -17.5 12.367188 -15.992188 11.703125 -14.171875 C 10.992188 -12.128906 10.789062 -10.144531 11.09375 -8.21875 C 11.394531 -6.289062 12.25 -4.46875 13.65625 -2.75 C 13.695312 -2.664062 13.753906 -2.613281 13.828125 -2.59375 C 13.898438 -2.582031 13.957031 -2.550781 14 -2.5 C 14.882812 -1.519531 15.921875 -0.800781 17.109375 -0.34375 C 18.296875 0.113281 19.566406 0.265625 20.921875 0.109375 C 21.316406 0.0664062 21.632812 -0.0546875 21.875 -0.265625 C 22.113281 -0.484375 22.304688 -0.753906 22.453125 -1.078125 C 22.609375 -1.398438 22.734375 -1.734375 22.828125 -2.078125 C 22.921875 -2.429688 22.992188 -2.753906 23.046875 -3.046875 C 23.171875 -3.640625 23.253906 -4.09375 23.296875 -4.40625 C 23.335938 -4.71875 23.304688 -4.972656 23.203125 -5.171875 C 23.097656 -5.378906 22.898438 -5.535156 22.609375 -5.640625 C 22.316406 -5.753906 21.878906 -5.90625 21.296875 -6.09375 C 20.066406 -6.5 18.828125 -6.929688 17.578125 -7.390625 C 16.847656 -7.671875 16.328125 -8.09375 16.015625 -8.65625 C 15.703125 -9.226562 15.660156 -9.832031 15.890625 -10.46875 C 16.140625 -11.113281 16.554688 -11.550781 17.140625 -11.78125 C 17.734375 -12.007812 18.40625 -12.007812 19.15625 -11.78125 C 20.238281 -11.425781 21.34375 -11.078125 22.46875 -10.734375 C 23.59375 -10.398438 24.695312 -10.050781 25.78125 -9.6875 C 26.644531 -9.394531 27.25 -9.003906 27.59375 -8.515625 C 27.945312 -8.035156 28.125 -7.347656 28.125 -6.453125 Z M 28.125 -6.453125 "/></g></g></g><g fill="#f5da8d" fill-opacity="1"><g transform="translate(157.508131, 278.091168)"><g><path d="M 10.609375 -20.40625 C 10.648438 -21.132812 10.660156 -21.691406 10.640625 -22.078125 C 10.628906 -22.472656 10.546875 -22.773438 10.390625 -22.984375 C 10.234375 -23.191406 9.960938 -23.34375 9.578125 -23.4375 C 9.203125 -23.53125 8.675781 -23.617188 8 -23.703125 C 7.125 -23.816406 6.492188 -24.160156 6.109375 -24.734375 C 5.722656 -25.316406 5.554688 -25.921875 5.609375 -26.546875 C 5.660156 -27.171875 5.921875 -27.71875 6.390625 -28.1875 C 6.859375 -28.664062 7.507812 -28.867188 8.34375 -28.796875 C 8.738281 -28.773438 9.335938 -28.773438 10.140625 -28.796875 C 10.953125 -28.816406 11.84375 -28.828125 12.8125 -28.828125 C 13.789062 -28.828125 14.773438 -28.785156 15.765625 -28.703125 C 16.753906 -28.628906 17.648438 -28.457031 18.453125 -28.1875 C 19.253906 -27.914062 19.878906 -27.546875 20.328125 -27.078125 C 20.785156 -26.617188 20.953125 -26 20.828125 -25.21875 C 20.710938 -24.632812 20.421875 -24.148438 19.953125 -23.765625 C 19.484375 -23.390625 18.898438 -23.179688 18.203125 -23.140625 C 17.898438 -23.109375 17.597656 -23.113281 17.296875 -23.15625 C 16.992188 -23.195312 16.691406 -23.234375 16.390625 -23.265625 C 15.921875 -23.328125 15.703125 -23.132812 15.734375 -22.6875 C 15.753906 -21.46875 15.722656 -20.253906 15.640625 -19.046875 C 15.566406 -17.835938 15.472656 -16.640625 15.359375 -15.453125 C 15.242188 -14.273438 15.125 -13.085938 15 -11.890625 C 14.882812 -10.703125 14.804688 -9.5 14.765625 -8.28125 C 14.753906 -7.664062 14.722656 -7.050781 14.671875 -6.4375 C 14.628906 -5.832031 14.585938 -5.226562 14.546875 -4.625 C 14.492188 -4.175781 14.546875 -3.832031 14.703125 -3.59375 C 14.859375 -3.363281 15.171875 -3.25 15.640625 -3.25 C 16.441406 -3.25 17.242188 -3.078125 18.046875 -2.734375 C 18.859375 -2.398438 19.367188 -1.820312 19.578125 -1 C 19.753906 -0.375 19.707031 0.148438 19.4375 0.578125 C 19.164062 1.003906 18.800781 1.394531 18.34375 1.75 L 18.390625 1.796875 L 18.296875 1.796875 L 18.34375 1.796875 L 18.296875 1.796875 C 17.203125 2.085938 16.140625 2.117188 15.109375 1.890625 C 14.085938 1.671875 13.0625 1.472656 12.03125 1.296875 C 11.195312 1.117188 10.375 0.925781 9.5625 0.71875 C 8.757812 0.519531 7.960938 0.289062 7.171875 0.03125 C 6.335938 -0.207031 5.726562 -0.632812 5.34375 -1.25 C 4.96875 -1.863281 4.882812 -2.507812 5.09375 -3.1875 C 5.300781 -3.882812 5.695312 -4.375 6.28125 -4.65625 C 6.863281 -4.945312 7.582031 -5.015625 8.4375 -4.859375 C 8.800781 -4.785156 9.066406 -4.78125 9.234375 -4.84375 C 9.410156 -4.914062 9.5 -5.160156 9.5 -5.578125 C 9.570312 -7.941406 9.71875 -10.289062 9.9375 -12.625 C 10.15625 -14.957031 10.363281 -17.300781 10.5625 -19.65625 C 10.582031 -19.789062 10.59375 -19.910156 10.59375 -20.015625 C 10.59375 -20.128906 10.597656 -20.257812 10.609375 -20.40625 Z M 10.609375 -20.40625 "/></g></g></g><g fill="#f5da8d" fill-opacity="1"><g transform="translate(184.432176, 281.418406)"><g><path d="M 13.25 -0.75 C 10.832031 -1.300781 8.675781 -2.414062 6.78125 -4.09375 C 4.882812 -5.78125 3.570312 -7.972656 2.84375 -10.671875 C 2.445312 -12.128906 2.257812 -13.625 2.28125 -15.15625 C 2.300781 -16.695312 2.503906 -18.203125 2.890625 -19.671875 C 3.273438 -21.140625 3.847656 -22.539062 4.609375 -23.875 C 5.378906 -25.21875 6.296875 -26.441406 7.359375 -27.546875 C 8.921875 -29.140625 10.742188 -30.125 12.828125 -30.5 C 14.910156 -30.882812 16.984375 -30.675781 19.046875 -29.875 C 19.835938 -29.5625 20.59375 -29.175781 21.3125 -28.71875 C 22.03125 -28.269531 22.648438 -27.722656 23.171875 -27.078125 C 23.691406 -26.453125 24.003906 -25.707031 24.109375 -24.84375 C 24.210938 -23.988281 23.972656 -23.226562 23.390625 -22.5625 C 23.128906 -22.21875 22.769531 -22.007812 22.3125 -21.9375 C 21.863281 -21.875 21.441406 -21.898438 21.046875 -22.015625 C 20.679688 -22.097656 20.335938 -22.265625 20.015625 -22.515625 C 19.703125 -22.765625 19.390625 -23.035156 19.078125 -23.328125 C 18.773438 -23.617188 18.46875 -23.894531 18.15625 -24.15625 C 17.851562 -24.425781 17.519531 -24.625 17.15625 -24.75 C 16.21875 -25.09375 15.332031 -25.234375 14.5 -25.171875 C 13.675781 -25.109375 12.90625 -24.90625 12.1875 -24.5625 C 11.476562 -24.21875 10.84375 -23.738281 10.28125 -23.125 C 9.71875 -22.519531 9.234375 -21.835938 8.828125 -21.078125 C 8.328125 -20.128906 7.9375 -19.09375 7.65625 -17.96875 C 7.375 -16.851562 7.242188 -15.722656 7.265625 -14.578125 C 7.285156 -13.441406 7.488281 -12.34375 7.875 -11.28125 C 8.257812 -10.21875 8.832031 -9.269531 9.59375 -8.4375 C 10.332031 -7.644531 11.132812 -7.03125 12 -6.59375 C 12.863281 -6.15625 13.753906 -5.851562 14.671875 -5.6875 C 15.597656 -5.519531 16.539062 -5.472656 17.5 -5.546875 C 18.46875 -5.628906 19.441406 -5.785156 20.421875 -6.015625 C 20.972656 -6.179688 21.476562 -6.414062 21.9375 -6.71875 C 22.394531 -7.03125 22.878906 -7.3125 23.390625 -7.5625 C 23.890625 -7.832031 24.410156 -7.992188 24.953125 -8.046875 C 25.492188 -8.109375 26.023438 -7.960938 26.546875 -7.609375 C 27.148438 -7.203125 27.476562 -6.71875 27.53125 -6.15625 C 27.59375 -5.601562 27.523438 -5.023438 27.328125 -4.421875 L 27.40625 -4.375 L 27.328125 -4.421875 C 27.210938 -4.304688 27.035156 -4.148438 26.796875 -3.953125 C 25.816406 -3.128906 24.773438 -2.441406 23.671875 -1.890625 C 22.566406 -1.347656 21.425781 -0.945312 20.25 -0.6875 C 19.082031 -0.425781 17.910156 -0.300781 16.734375 -0.3125 C 15.566406 -0.320312 14.40625 -0.46875 13.25 -0.75 Z M 13.25 -0.75 "/></g></g></g><g fill="#f5da8d" fill-opacity="1"><g transform="translate(220.321671, 279.891417)"><g/></g></g><g fill="#f5da8d" fill-opacity="1"><g transform="translate(236.393712, 277.944486)"><g><path d="M 6.859375 -15.796875 C 6.816406 -15.441406 6.867188 -15.25 7.015625 -15.21875 C 7.160156 -15.1875 7.34375 -15.195312 7.5625 -15.25 L 12.984375 -16.640625 C 12.035156 -17.898438 11.132812 -19.09375 10.28125 -20.21875 C 9.4375 -21.351562 8.59375 -22.476562 7.75 -23.59375 C 7.507812 -22.226562 7.328125 -20.910156 7.203125 -19.640625 C 7.078125 -18.367188 6.960938 -17.085938 6.859375 -15.796875 Z M 6.46875 -8.046875 C 6.375 -7.421875 6.34375 -6.738281 6.375 -6 C 6.414062 -5.269531 6.375 -4.597656 6.25 -3.984375 C 6.125 -3.378906 5.859375 -2.882812 5.453125 -2.5 C 5.054688 -2.125 4.390625 -1.992188 3.453125 -2.109375 C 2.953125 -2.148438 2.539062 -2.3125 2.21875 -2.59375 C 1.90625 -2.875 1.660156 -3.203125 1.484375 -3.578125 C 1.316406 -3.953125 1.195312 -4.363281 1.125 -4.8125 C 1.050781 -5.257812 1.023438 -5.6875 1.046875 -6.09375 C 1.140625 -9.875 1.300781 -13.640625 1.53125 -17.390625 C 1.757812 -21.148438 2.140625 -24.914062 2.671875 -28.6875 C 2.722656 -28.976562 2.753906 -29.375 2.765625 -29.875 C 2.773438 -30.375 2.875 -30.753906 3.0625 -31.015625 C 3.332031 -31.410156 3.640625 -31.75 3.984375 -32.03125 C 4.328125 -32.3125 4.6875 -32.523438 5.0625 -32.671875 C 5.445312 -32.816406 5.851562 -32.867188 6.28125 -32.828125 C 6.71875 -32.785156 7.144531 -32.617188 7.5625 -32.328125 C 7.757812 -32.179688 7.9375 -32.03125 8.09375 -31.875 C 8.257812 -31.71875 8.429688 -31.539062 8.609375 -31.34375 C 10.421875 -29.25 12.140625 -27.082031 13.765625 -24.84375 C 15.390625 -22.601562 17.03125 -20.375 18.6875 -18.15625 C 19.507812 -17.03125 20.351562 -15.925781 21.21875 -14.84375 C 22.082031 -13.757812 22.914062 -12.640625 23.71875 -11.484375 C 23.96875 -11.109375 24.203125 -10.691406 24.421875 -10.234375 C 24.648438 -9.773438 24.804688 -9.316406 24.890625 -8.859375 C 24.972656 -8.410156 24.945312 -7.96875 24.8125 -7.53125 C 24.675781 -7.09375 24.390625 -6.703125 23.953125 -6.359375 C 23.210938 -5.835938 22.484375 -5.703125 21.765625 -5.953125 C 21.054688 -6.203125 20.398438 -6.644531 19.796875 -7.28125 C 19.203125 -7.914062 18.65625 -8.617188 18.15625 -9.390625 C 17.664062 -10.171875 17.269531 -10.800781 16.96875 -11.28125 C 16.757812 -11.570312 16.53125 -11.75 16.28125 -11.8125 C 16.039062 -11.875 15.757812 -11.863281 15.4375 -11.78125 C 14.15625 -11.445312 12.898438 -11.082031 11.671875 -10.6875 C 10.453125 -10.300781 9.1875 -10.019531 7.875 -9.84375 C 7.414062 -9.789062 7.082031 -9.585938 6.875 -9.234375 C 6.675781 -8.878906 6.539062 -8.484375 6.46875 -8.046875 Z M 6.46875 -8.046875 "/></g></g></g><g fill="#f5da8d" fill-opacity="1"><g transform="translate(270.318085, 268.570687)"><g><path d="M -0.84375 -23 C -1.164062 -23.644531 -1.425781 -24.132812 -1.625 -24.46875 C -1.832031 -24.800781 -2.054688 -25.015625 -2.296875 -25.109375 C -2.546875 -25.210938 -2.859375 -25.210938 -3.234375 -25.109375 C -3.609375 -25.003906 -4.113281 -24.820312 -4.75 -24.5625 C -5.5625 -24.226562 -6.273438 -24.21875 -6.890625 -24.53125 C -7.503906 -24.84375 -7.945312 -25.285156 -8.21875 -25.859375 C -8.488281 -26.429688 -8.535156 -27.035156 -8.359375 -27.671875 C -8.179688 -28.316406 -7.710938 -28.8125 -6.953125 -29.15625 C -6.597656 -29.34375 -6.070312 -29.640625 -5.375 -30.046875 C -4.6875 -30.460938 -3.921875 -30.910156 -3.078125 -31.390625 C -2.234375 -31.867188 -1.359375 -32.316406 -0.453125 -32.734375 C 0.453125 -33.160156 1.316406 -33.453125 2.140625 -33.609375 C 2.972656 -33.773438 3.703125 -33.765625 4.328125 -33.578125 C 4.953125 -33.398438 5.394531 -32.945312 5.65625 -32.21875 C 5.863281 -31.644531 5.851562 -31.078125 5.625 -30.515625 C 5.40625 -29.953125 5 -29.484375 4.40625 -29.109375 C 4.15625 -28.941406 3.890625 -28.800781 3.609375 -28.6875 C 3.328125 -28.570312 3.046875 -28.457031 2.765625 -28.34375 C 2.328125 -28.15625 2.234375 -27.875 2.484375 -27.5 C 3.109375 -26.445312 3.679688 -25.378906 4.203125 -24.296875 C 4.734375 -23.210938 5.238281 -22.125 5.71875 -21.03125 C 6.195312 -19.945312 6.679688 -18.851562 7.171875 -17.75 C 7.660156 -16.65625 8.191406 -15.566406 8.765625 -14.484375 C 9.054688 -13.960938 9.332031 -13.421875 9.59375 -12.859375 C 9.851562 -12.304688 10.113281 -11.753906 10.375 -11.203125 C 10.539062 -10.785156 10.75 -10.507812 11 -10.375 C 11.25 -10.25 11.582031 -10.3125 12 -10.5625 C 12.6875 -10.945312 13.46875 -11.1875 14.34375 -11.28125 C 15.21875 -11.382812 15.953125 -11.132812 16.546875 -10.53125 C 17.003906 -10.070312 17.21875 -9.59375 17.1875 -9.09375 C 17.164062 -8.59375 17.046875 -8.066406 16.828125 -7.515625 L 16.890625 -7.515625 L 16.796875 -7.46875 L 16.84375 -7.484375 L 16.796875 -7.46875 C 15.984375 -6.675781 15.078125 -6.117188 14.078125 -5.796875 C 13.085938 -5.484375 12.097656 -5.15625 11.109375 -4.8125 C 10.296875 -4.539062 9.488281 -4.296875 8.6875 -4.078125 C 7.882812 -3.867188 7.078125 -3.679688 6.265625 -3.515625 C 5.410156 -3.316406 4.664062 -3.390625 4.03125 -3.734375 C 3.394531 -4.078125 3.003906 -4.597656 2.859375 -5.296875 C 2.691406 -5.992188 2.789062 -6.609375 3.15625 -7.140625 C 3.519531 -7.679688 4.113281 -8.097656 4.9375 -8.390625 C 5.289062 -8.503906 5.523438 -8.632812 5.640625 -8.78125 C 5.753906 -8.925781 5.707031 -9.179688 5.5 -9.546875 C 4.394531 -11.628906 3.363281 -13.738281 2.40625 -15.875 C 1.445312 -18.019531 0.472656 -20.160156 -0.515625 -22.296875 C -0.566406 -22.429688 -0.617188 -22.546875 -0.671875 -22.640625 C -0.734375 -22.742188 -0.789062 -22.863281 -0.84375 -23 Z M -0.84375 -23 "/></g></g></g><g fill="#f5da8d" fill-opacity="1"><g transform="translate(295.339808, 258.174517)"><g><path d="M 12.65625 -21.09375 C 12.664062 -22.28125 12.472656 -23.375 12.078125 -24.375 C 11.691406 -25.375 11.15625 -26.253906 10.46875 -27.015625 C 9.78125 -27.773438 8.953125 -28.394531 7.984375 -28.875 C 7.015625 -29.351562 5.941406 -29.644531 4.765625 -29.75 C 2.878906 -29.925781 1.128906 -29.710938 -0.484375 -29.109375 C -2.097656 -28.515625 -3.640625 -27.644531 -5.109375 -26.5 C -5.390625 -26.257812 -5.488281 -26.054688 -5.40625 -25.890625 C -5.320312 -25.734375 -5.21875 -25.550781 -5.09375 -25.34375 C -4.832031 -24.90625 -4.445312 -24.265625 -3.9375 -23.421875 C -3.4375 -22.585938 -2.863281 -21.65625 -2.21875 -20.625 C -1.570312 -19.59375 -0.890625 -18.507812 -0.171875 -17.375 C 0.535156 -16.238281 1.207031 -15.148438 1.84375 -14.109375 C 2.488281 -13.078125 3.0625 -12.144531 3.5625 -11.3125 C 4.070312 -10.476562 4.46875 -9.828125 4.75 -9.359375 C 4.882812 -9.128906 5.023438 -8.96875 5.171875 -8.875 C 5.316406 -8.78125 5.519531 -8.828125 5.78125 -9.015625 C 7.925781 -10.484375 9.609375 -12.195312 10.828125 -14.15625 C 12.046875 -16.125 12.65625 -18.4375 12.65625 -21.09375 Z M 13.984375 -30.25 C 14.054688 -30.164062 14.113281 -30.085938 14.15625 -30.015625 C 14.195312 -29.953125 14.253906 -29.878906 14.328125 -29.796875 C 15.847656 -27.890625 16.8125 -25.734375 17.21875 -23.328125 C 17.625 -20.929688 17.5 -18.59375 16.84375 -16.3125 C 16.070312 -13.53125 14.828125 -11.117188 13.109375 -9.078125 C 11.398438 -7.035156 9.273438 -5.332031 6.734375 -3.96875 C 5.535156 -3.332031 4.570312 -3.113281 3.84375 -3.3125 C 3.113281 -3.519531 2.378906 -4.191406 1.640625 -5.328125 C -0.273438 -8.378906 -2.175781 -11.4375 -4.0625 -14.5 C -5.957031 -17.5625 -7.863281 -20.625 -9.78125 -23.6875 C -10.3125 -24.53125 -10.59375 -25.242188 -10.625 -25.828125 C -10.664062 -26.421875 -10.378906 -27.125 -9.765625 -27.9375 C -9.398438 -28.4375 -9.050781 -28.941406 -8.71875 -29.453125 C -8.382812 -29.960938 -7.96875 -30.398438 -7.46875 -30.765625 C -6.15625 -31.753906 -4.738281 -32.570312 -3.21875 -33.21875 C -1.695312 -33.863281 -0.128906 -34.300781 1.484375 -34.53125 C 2.628906 -34.675781 3.773438 -34.691406 4.921875 -34.578125 C 6.066406 -34.472656 7.175781 -34.242188 8.25 -33.890625 C 9.332031 -33.535156 10.363281 -33.054688 11.34375 -32.453125 C 12.332031 -31.859375 13.210938 -31.125 13.984375 -30.25 Z M 13.984375 -30.25 "/></g></g></g><g fill="#f5da8d" fill-opacity="1"><g transform="translate(325.313026, 239.516994)"><g/></g></g></svg>