<?xml version="1.0" encoding="UTF-8"?><svg id="pige" xmlns="http://www.w3.org/2000/svg" width="1312" height="526.86" viewBox="0 0 1312 526.86"><defs><style>.cls-1{stroke:#3b3244;}.cls-1,.cls-2,.cls-3{fill:none;stroke-linecap:round;stroke-linejoin:round;}.cls-4{fill:#f9c2bb;}.cls-5{fill:#efe4b4;}.cls-6{fill:#6b564b;}.cls-7{fill:#ffe5d4;}.cls-8{fill:#604b47;}.cls-2{stroke:#3c3f54;}.cls-9{fill:#303030;}.cls-10{fill:#e5e5e5;}.cls-11{fill:#f9e3c2;}.cls-12{fill:#3c3f54;}.cls-13{fill:#f9f5f2;}.cls-14{fill:#3a3a3a;}.cls-15{fill:#f2beb1;}.cls-16{fill:#7365b7;}.cls-17{fill:#847f77;}.cls-18{fill:#ffc865;}.cls-19{fill:#4e5272;}.cls-20{fill:#ffebae;}.cls-21{fill:#3b3244;}.cls-22{fill:#f9f8f4;}.cls-23{fill:#f9b4a1;}.cls-3{stroke:#775635;}.cls-24{fill:#775635;}.cls-25{fill:#ededed;}.cls-26{fill:#9b88d9;}.cls-27{fill:#c69685;}</style></defs><circle class="cls-20" cx="1115.66" cy="195.48" r="165.1"/><rect class="cls-20" x="950.56" y="195.48" width="330.2" height="286.99"/><path class="cls-9" d="M1254.65,282.85s4.68-1.95,5.48,0l.26,57.16-4.34,3.83-1.4-60.99Z"/><polygon class="cls-9" points="1257.52 357.53 1259.12 358.7 1257.52 359.92 1257.52 357.53"/><path class="cls-9" d="M1259.39,364.13l-2.01-1.92.42,5.32-.19,6.19-1.56,4.25v26.42s3.33,1.1,4.5,0l-.16-36.56-1.37-1.49.38-2.21Z"/><path class="cls-25" d="M1254.38,271.1s3.23-1.73,5.32,0l.43,11.74s-3.04-1.44-5.48,0l-.27-11.74Z"/><path class="cls-27" d="M1110.53,262.32c-.41.1-3.32,2.85-3.32,2.85l-3.84,10.85-9.64,5.88-6.27,4.92h-4.89l-2.2,2.45-.8,4.26,1.01,4.54,2.16,3.05,4.51,2.25,2.15.54,4.36,11.42,5.34,7.11.82,3.09v9.26l-1.59,3.78-2.36,1.61-5.79,3.06-7.6,2.47-8.24-.17-4.01,2.13-11.16,2.12-8.14,5.46-3.93,6.17-6,13.78-5.7,14.04-5.9,13.56-3.66,7.36-2.9,3.36-11.15-16.19-5.32-11.37-2.21-8.58,2.04-8.95-.81-9.25-.77-2.7.1-7.07-.3-2.75-3.84,1.56-1.45,3.19-.77,5.19-.95,2.87-1.71-2.75-4.2-8.79-5.47-15.25-3.2-4.75-2.39-.85-1.02.9.97,3.61,1.65,7.53,2.39,6.82,1.37,5.55-.47,1.58-1.52.08-2.48-1.89-4.55-7.27-3.19-7.65-2.57-5.13-1.7-1.68-1.81-.04-1.31,3.18.49,2.53-2.02,1.59.33,4.42.45,4.14,1.67,5.03,3.45,6.91,2.22,2.97.53,2.65-1.57.5-3.17-2.07-3.5-3.48-2.57-4.48-2.8-2.28-1.81.58v4.17l2.16,6.41,5.98,7.18,10.48,7.28,8.29,10.03,6.7,13.18,5.18,16.59,7.74,20.27,6.91,10.19,7.47,7.52h4.42l7.68-3.85,5.79-4.52,8.49-11.88,9.89-15.65,11.85-19.79-.43-12.3,15.46-6.62s33.85-13.29,72.19.84l15.93,6.16v10.43l8.68,15,17.08,27.89,8.11,8.72,6.99,4.28,5.7.8,5.33-2.85,4.76-5.04,4.27-6.55,5.62-12.21,5.37-16.39,3.32-11.47,4.98-10.84,5.65-7.22,5.27-3.74,3.92-4.88.5-4.97,4.22-1.08,1.75-3.01-.32-3.22,1.07-3.09-1.13-3.24-.76-.56,1.41-3.02v-3.82s-1.41-1.92-1.41-1.92l-.38-3.33-1.37-4.73-4.78-1.27-3.46.33-6.67,2.27-5.43,5.7-4.44,8.47-6.32,17.54-4.89,10.48-9.06,19.91-5.5,6.87-5.14,6.01-7.69-15.09-8.84-19.3-3.57-10.32-3.69-8.58-5.53-6.71-3.26-2.54-6.69-1.84-7.2-.65-2.95-.29-6.26-3.17-5.24.56-10.84-3.51-2.7-3.26-1.91-6.16v-9.86l4.83-5.16,3.69-7.17,1.98-6.37,4.59-1.22,3.72-4.53,1.32-3.64-.21-4.8-2.06-2.33-5.06-1.3-4.62.96-.98-4.05-5.82-4.71-3.7-4.06-23.89-11.68Z"/><path class="cls-8" d="M1149.15,285.86s-2.44.89-3.84.95c-1.08.05.85-1.24-1.93-3.7-2.35-2.07-3.68-3.82-3.68-3.82,0,0-8,1.45-10.24-.96l-3.59-1.81s-3.7,1.23-7.05.22-5.25-3.21-5.25-3.21l-2.68-5.4-.12-6.73-3.21,3.74s-1.17,11.78-10.03,14.54l-2.86,1.83-2.73,4.35-4.67.64h-3.83l-2.24,1.55-1.62,3.08.53,3.76,1.08,3.97,2.73,3.19,2.71,1.62.26,9.91,3.06,5.96,3,1.98s-4.86,2.82-8.18.39l-1.31,4.58-2.67,2.32-3.22,1.12s-4.67.69-4.95-.27c0,0-8.09,2.37-14.19-5.03l4.49.41,3-2.89,1.11-5.19-.69-8.5-2.51-12.69-1.98-11.49-.27-8.83,1.64-8.5,3.74-9.63,3.98-6.56,5.14-5.17,3.48-1.99,3.45-1.17,3.55.58,1.32,1.19,3.58-4.41,4.29-3.86,4.55-2.43,4.97-1.13,7.27.69,4.82,1.97,1.83-.14,5.97-1.4h5.43l4.91,1.53,7.38,3.33,3.65,4.65,1.9,1.99,2.63-1.52,4.65-.23,4.14,1.69,3.33,4.14,4.74,7.6,4.39,12.13,1.87,7.94.14,10.03-.36,8.39-1.93,8.71-2.62,7.63-1.4,3.94s.64,12.01,9.33,9.57c0,0-7.17,8.35-14.17,3.26s-.28,0-.28,0c0,0-.95,2.66-4.82,1.36s-5.56-4.12-5.56-4.12l-.86-4.37s-3.77,3.39-8.41,0l4-2.71,1.53-3.32,1.55-6.25-.95-5.53,3.26-2.07,2.68-3.39,1.46-4.07.2-3.66-1.67-2.5-2.08-1.18-4.1-.63Z"/><polygon class="cls-21" points="1102.7 286.01 1101.35 289.06 1102.35 292.2 1103.47 292.52 1103.73 292.83 1105.61 291.49 1106.1 288.92 1105.37 286.97 1103.73 286.01 1102.7 286.01"/><polygon class="cls-21" points="1130.66 285.86 1128.69 287.95 1129.01 290.96 1130.66 292.99 1132.38 292.04 1133.38 290.04 1133.06 287.43 1130.66 285.86"/><polygon class="cls-15" points="1108.02 310.3 1110.76 315.99 1116.54 320.01 1120.84 319.48 1125.44 316.18 1127.24 310.76 1124.62 310.3 1108.02 310.3"/><polygon class="cls-26" points="1082.23 345.71 1077.15 345.13 1071.65 346.65 1070.27 348.55 1068.68 370.69 1069 385.07 1066.61 386.49 1067.4 432.38 1066.91 454.67 1065.39 473.27 1063.4 481.17 1084.78 481.17 1108.9 481.17 1134.05 481.17 1143.62 481.17 1164.23 481.17 1173.85 481.17 1170.87 465.57 1169.11 446.07 1168.97 429.48 1169.16 412.74 1170.18 386.86 1165.09 383.93 1166.18 374.51 1165.73 360.73 1163.57 347.45 1159.6 344.89 1155.32 344.89 1152.95 345.86 1154.86 353.29 1155.47 363.41 1155.56 372.93 1154.86 380.7 1141.02 376.19 1129.06 374.41 1115.22 374.13 1099.23 375.53 1086.36 378.79 1079.54 380.7 1078.87 368.42 1080.25 354.35 1082.23 345.71"/><path class="cls-16" d="M1069.51,409.75l13.48-4.52c.69-.23,1.29.51.93,1.14l-8.79,15.28c-.4.7-1.47.41-1.47-.39l.04-19.06c0-.79,1.03-1.09,1.45-.42l10.47,16.61c.43.69-.33,1.5-1.04,1.11l-15.21-8.32c-.6-.33-.52-1.22.13-1.44Z"/><path class="cls-16" d="M1106.72,379.12l9.59,12.84c.46.62-.09,1.48-.84,1.32l-15.58-3.24c-.79-.16-.92-1.24-.18-1.58l15-6.97c.79-.37,1.55.56,1.03,1.26l-10.57,14.27c-.51.68-1.59.27-1.51-.58l1.56-16.9c.07-.77,1.05-1.04,1.51-.43Z"/><path class="cls-16" d="M1110.88,418.75l18.19,17.11c.72.68.16,1.88-.82,1.77l-26.91-3.1c-.97-.11-1.25-1.4-.41-1.9l24.7-14.82c.84-.5,1.84.34,1.48,1.25l-13.37,34.27c-.38.98-1.82.82-1.97-.23l-5.19-36.51c-.15-1.02,1.14-1.59,1.8-.8l2.4,2.87s.05.06.08.09Z"/><path class="cls-16" d="M1156.77,451.29l-15.91,12.26c-.41.32-.3.97.2,1.13l16.79,5.36c.56.18,1.05-.42.76-.94l-11.59-20.32c-.33-.59-1.23-.33-1.21.34l.65,19.74c.02.65.87.86,1.2.31l10.07-17.05c.36-.61-.39-1.28-.95-.84Z"/><path class="cls-16" d="M1087.43,456.53l8.03,19.46c.25.6-.39,1.18-.96.88l-17.27-8.98c-.54-.28-.48-1.06.09-1.27l19.27-6.93c.67-.24,1.22.56.76,1.1l-14.38,16.9c-.47.55-1.35.11-1.2-.59l4.35-20.45c.14-.67,1.06-.75,1.32-.12Z"/><path class="cls-16" d="M1149.17,384.46l-4.88,18.61c-.13.48.38.88.81.64l15.29-8.12c.43-.23.39-.85-.05-1.03l-20.19-8.18c-.57-.23-1.04.47-.62.92l16.13,16.96c.42.44,1.14,0,.95-.57l-6.35-19.26c-.18-.54-.94-.51-1.09.03Z"/><path class="cls-16" d="M1154.98,421.59l6.87,8.07c.32.37,0,.94-.48.87l-14.56-2.03c-.56-.08-.62-.85-.09-1.03l13.24-4.3c.48-.16.89.39.6.81l-7.92,11.28c-.33.46-1.06.16-.95-.4l2.37-13.02c.08-.44.63-.59.92-.25Z"/><path class="cls-16" d="M1169.4,405.17l-4.29-3.37c-.37-.29-.9.06-.77.51l1.83,6.68c.05.18,0,.37-.14.49l-4.41,4c-.35.32-.08.91.39.85l4.38-.55c.29-.04.55.19.55.48v5.48c0,.4.46.63.78.39l1.68-1.28"/><path class="cls-16" d="M1130.84,480.85l5.56-6.01c.43-.47,0-1.22-.62-1.08l-7.39,1.62c-.32.07-.64-.1-.75-.41l-2.73-7.25c-.23-.61-1.12-.54-1.25.1l-1.88,8.95c-.06.28-.29.48-.57.51l-7.91.89c-.57.06-.79.79-.34,1.16l2.26,1.84"/><path class="cls-16" d="M1067.68,438.86h5.67c.71,0,1.01.9.44,1.33l-5.34,3.98c-.27.2-.37.56-.24.87l2.84,6.85c.27.66-.46,1.28-1.06.91l-2.92-1.78"/><path class="cls-1" d="M1112.7,254.04s-8.28,19.41,7.46,23.07"/><path class="cls-1" d="M1118.54,262.32s.54,16.04,15.88,16.98"/><path class="cls-1" d="M1132.38,270.81s5.84,8.34,10.18,11.46,1.49,10.72,1.49,10.72"/><path class="cls-1" d="M1149.15,285.86s9.77-.54,7.74,8.41-9.64,9.64-9.64,9.64"/><path class="cls-1" d="M1151.66,292.99s-2.1,1.15-2.65,2.78"/><path class="cls-1" d="M1147.25,300.46s-.27,13.5-10.25,21.72c-9.98,8.21-18.46,8.89-18.46,8.89,0,0-8.35-.07-17.98-7.4s-11.4-22.87-11.4-22.87"/><path class="cls-1" d="M1087.46,286.81s-8.21-2.58-7.8,6.99,9.5,10.11,9.5,10.11"/><path class="cls-1" d="M1084.4,293.53s2.52.88,2.86,2.78"/><path class="cls-1" d="M1107.55,264.62s.14,11.29-9.09,14.67c-9.23,3.38-6.65,12.75-6.65,12.75"/><path class="cls-1" d="M1117.79,286.81s-3.26,9.3.75,12.35-.34,5.29-.34,5.29"/><path class="cls-1" d="M1127.36,310.3h-19.34s2.24,9.3,9.67,9.7,9.67-9.7,9.67-9.7Z"/><path class="cls-1" d="M1126.89,274.74s4.78-3.15,9.04.73"/><path class="cls-1" d="M1098.72,275.07s3.66-4.68,9.3-.27"/><path class="cls-1" d="M1117.37,240.19s-2.56,5.09.32,8.82"/><path class="cls-1" d="M1117.37,235.07s-18.2-11.3-30.93,12.01-3.87,39.73-3.87,39.73"/><path class="cls-1" d="M1119.12,234.97s19.04-8.45,33.09,15.68c0,0,10.9,14.62,1.78,36.17"/><path class="cls-1" d="M1149.01,244.6s8.69-7.23,17.14,9.43c8.45,16.66,8.25,25.26,8.25,25.26,0,0,.71,21.02-4.58,30.19-5.29,9.16,2.75,15.57,2.75,15.57,0,0,2.44,1.12,4.78,0"/><path class="cls-1" d="M1172.66,328.31s-11.2,5.29-13.84-4.99"/><path class="cls-1" d="M1152.71,314.16s-4.28,14.84,6.11,15.51"/><path class="cls-1" d="M1143.24,321.19s8.52-2.14,6.14-17.81"/><path class="cls-1" d="M1092.96,321.19s-7.14.1-6.32-17.81"/><path class="cls-1" d="M1083.59,314.67s5.19,13.82-6.01,15"/><path class="cls-1" d="M1077.59,323.73s-4.38,10.38-13.74,4.89"/><path class="cls-1" d="M1058.45,324.65s13.23,4.99,7.13-19.65c-6.11-24.63-3.46-33.69-3.46-33.69,0,0,4.76-23.95,19.08-28.26,0,0,3.48-1.32,6.71,1.56"/><path class="cls-1" d="M1099.51,323.32s1.42,11.3-1.04,15.07-15.9,7.33-15.9,7.33c0,0-8.04-2.24-11.86,1.93,0,0-10.43.41-15.83,4.28s-9.98,13.54-9.98,13.54c0,0-17.81,46.52-21.58,48.05"/><path class="cls-1" d="M1031.27,423.49s-23.17-23.58-27.28-46.42c0,0,4.17-11.1.81-18.32,0,0-.41-6.41.1-10.28s-5.26-.79-5.6,2.14-.61,8.14-3.16,10.99-4.99,6.31-4.48,9.37"/><path class="cls-1" d="M1067.04,398.79s-26.81,46.08-32.61,49.64c-5.8,3.56-6.72,5.09-13.03,6.01-6.31.92-17.3-18.42-17.3-18.42,0,0-5.9-13.54-9.06-25.55-3.16-12.01-9.26-22.39-9.26-22.39,0,0-4.58-8.25-17.81-17.71-13.23-9.47-9.47-18.93-9.47-18.93,0,0,1.49-1.56,3.9,1.63s.78,4.28,8.79,10.21c0,0,3.22,1.09,1.7-3.02,0,0-7.94-9.43-7.33-16.22,0,0-1.82-7.96.92-8.43.18-.03.39-.03.61.01,3.6.64,4.82,11.23,4.82,11.23,0,0,1.36,4.21,6.96,10.65"/><path class="cls-1" d="M966.85,335.57s-1.4-6.61,1.79-6.3,6.07,10.04,6.07,10.04c0,0,4.68,11.4,8.55,13.54s2.34-3.49,2.34-3.49c0,0-5.6-17.71-5.63-18.76s-1.19-5.16,2.78-2.78,9.6,22.02,9.6,22.02c0,0,2.75,7.13,5.38,9.11"/><path class="cls-1" d="M1170.18,397.29s25.04,43.97,29.42,47.64,8.14,8.65,15.68,9.06c7.53.41,15.17-13.23,15.17-13.23,0,0,7.74-13.33,12.11-31.66s12.06-27.08,13.49-27.69"/><path class="cls-1" d="M1260.55,378.26s5.62-3.66,5.06-10.08c0,0,8.09-.15,5.7-7.89,0,0,3-4.43-.76-6.67,0,0,3.46-3.82,0-8.75,0,0,1.81-11.5-10-9"/><path class="cls-1" d="M1255.5,337.49s-7.29,1.02-14.01,21.68-19.09,43.21-19.09,43.21c0,0-15.73,17.25-16.29,20.77"/><path class="cls-1" d="M1137,322.17s-1.43,14.06,2.51,17.66,13.44,5.43,13.44,5.43c0,0,6.18-1.97,10.99,2.51,0,0,14.73.14,19,4.55s7.4,6.58,10.93,18.87c3.53,12.28,19.22,41.93,19.22,41.93"/><path class="cls-1" d="M1243.42,372.25s1.49-8.32,2.91-14.03c.82-3.3,6.11-10.52,6.11-10.52,0,0,7.27-7.55,9.51-8.02s4.95-1.36,3.26,4.16c0,0,.06,1.83-5.13,7.33-5.19,5.5-2.34,16.02-2.34,16.02,0,0,1.7,6.92-2.71,10.79"/><path class="cls-1" d="M1270.55,344.87s-6.54,10.8-10,6.37"/><path class="cls-1" d="M1270.55,353.63s-7.66,8-12.42,3.9c0,0-1.42-5.27,3.22-5.55"/><path class="cls-1" d="M1271.32,360.29s-5.12,5.38-12.52,3.39c0,0-3.42-2.73.78-5.3"/><path class="cls-1" d="M1265.62,368.18s-9.52,1.19-5.7-4.25"/><path class="cls-1" d="M1260.39,340.01l-.32-68.91s-2.71-1.76-5.69,0l1.67,72.73"/><path class="cls-1" d="M1256.05,377.24v27.14s2.95,1.43,4.34,0v-36.56"/><path class="cls-1" d="M1254.65,282.85s2.88-1.56,5.48,0"/><path class="cls-1" d="M1154.86,380.09c2.34-24.46-1.91-34.83-1.91-34.83"/><path class="cls-1" d="M1163.94,347.77s4.35,21.77,1.09,36.43"/><path class="cls-1" d="M1064.46,374.02s2.14,9.6,2.3,14.62c0,0,2.85,80.21-3.36,92.53h110.45s-7.82-20.75-3.66-92.53c.29-4.92,2.48-15.13,2.48-15.13"/><path class="cls-1" d="M1070.71,347.25s-3.14,19.3-1.71,37.82"/><path class="cls-1" d="M1082.57,345.72s-4.99,6.55-3,34.98"/><path class="cls-1" d="M1079.57,380.7s40.26-15,75.28,0"/><ellipse class="cls-1" cx="1103.73" cy="289.27" rx="2.38" ry="3.41"/><ellipse class="cls-1" cx="1131.06" cy="289.27" rx="2.38" ry="3.41"/><line class="cls-1" x1="1069" y1="385.07" x2="1066.61" y2="386.49"/><line class="cls-1" x1="1165.09" y1="383.93" x2="1170.18" y2="386.86"/><path class="cls-26" d="M1221.62,207.89s-.42,18.83-13.64,20.48c0,0,13.96,3.11,14.29,27.16,0,0,1.39-26.59,13-26.74,0,0-13.49-1.31-13.64-20.9Z"/><path class="cls-26" d="M1245.7,235.79s-1.01,10.11-5.57,10.06c0,0,5.29,1.84,5.44,11.79,0,0,.4-11.27,4.4-11.44,0,0-4.46-2.31-4.28-10.4Z"/><path class="cls-26" d="M1232.68,250.29s-1.72,14.37-9.48,14.29c0,0,9.01,2.62,9.27,16.74,0,0,.68-16.01,7.5-16.25,0,0-7.6-3.28-7.29-14.78Z"/><circle class="cls-26" cx="658.23" cy="202.16" r="165.1"/><rect class="cls-26" x="493.13" y="202.16" width="330.2" height="286.99"/><polygon class="cls-19" points="650.76 442.62 649.13 463.79 646.75 481.48 644.78 494.71 642.92 501.12 645.24 503.91 653.26 507.14 662.59 508.37 687.21 510.46 709.64 510.87 728.37 509.78 741.11 507.98 752.15 505.41 756.2 502.97 757.27 498.71 754.49 488.24 759.76 488.24 760.23 486.84 755.24 446.92 770.73 442.31 778.15 437.65 779.9 436.45 780.63 432.32 779.06 428.76 776.57 426.56 776.34 422.86 778.99 422.55 785.99 418.66 792.74 411.96 798.06 399.62 801.25 387.38 801.11 380.2 798.71 369.86 794.53 360.22 789.38 351.88 785.79 343.93 783.28 336.49 780.18 324.54 778.18 314.39 776.34 305.18 773.78 298.75 770.02 288.82 761.88 272.53 758.87 269.45 750.99 264.32 743.06 262.29 729.76 258.55 719.01 255.62 706.77 250.56 698.96 246.8 697.76 243.83 691.29 238.88 689.56 238.24 632.56 238.38 628.39 240.63 625.51 244.9 614.61 248.68 598.44 253.41 585.65 257.56 569.91 261.26 562.09 264.88 554.84 271.93 548.99 280.19 544.58 291.34 536.08 313.72 530.8 328.63 517.31 352.41 511.04 365.85 509.31 376.42 509.06 384.44 512.25 390.36 517.03 394.84 526.78 399.44 536.2 401.7 547.28 402.81 559.73 401.77 571.22 399.76 574.35 398.94 574.48 407.86 574.56 440.38 574.27 447.87 572.11 456.67 570.68 470.05 569.61 488.24 584.39 487.8 598.59 488.24 621.86 488.55 631.16 487.88 633.46 452.41 634.17 443.62 642.26 446.35 650.13 447.27 650.76 442.62"/><path class="cls-4" d="M654.47,262.06c1.93,0,1.93-3,0-3s-1.93,3,0,3h0Z"/><polygon class="cls-18" points="651.62 436.04 650.76 441.92 650.76 442.62 658.52 441.18 667.7 439.67 676.61 438.84 685.71 438.13 696.18 437.65 706.37 437.65 717.53 438.28 727.71 439.33 735.75 440.71 747.46 443.52 746.51 435.23 723.47 428.99 710.61 428.09 695.36 428.29 681.23 429.11 671.29 430.06 659.81 432.04 654.06 434.1 651.62 436.04"/><path class="cls-6" d="M693.95,193.66l-.45-7.13-7.44-1.43-7.37-6.13-4.79-7.1-4.24-7.16-11.86,3.61-16.66,4.46-1.47,10.04-3.01,5.25-5.71,2.23.79,5.65-3.24-2.31-2.98-.31s-3.1-6.48-3-16.27c0,0-.77-4.65-.67-9.15s3.6-16.11,3.6-16.11l3.4-4.35,5.43-4.26,4.51-1.62,4.45-.34h1.97l5.87-3.48,7.67-4.99,7.16-.8,4.72.71,8.1,3.22,5.48,3.58,4.66,3.07s5.41,1.45,9.55,11.3l3.55,7.53,1.24,5.89v8.48l-2.03,5.95-2.81,10.42-3.51.51-.9,1.02Z"/><path class="cls-7" d="M656.21,248.73l-7.59-1.72-7.17-4.54-3.19-3.55-.2-4.73v-7.44l-4.61-9.82s-1.13-3.15-1.12-4.91l-5.57-1.23-3.69-3.72-.77-7.46,1.49-3.87,1.87-2.07h2.84l3.24,2.31-.79-5.65,4.74-.86,3.87-6.19.89-6.19,1.45-4.8,3.94-4.65,3.62.47s3.12-1.56,5.02-.47c0,0,3.29-1.98,4.77-2.01l2.29-1.97,3.49-1.15,4.12,1.71,2.95,3.42,2.96,5.84,5.26,7.28,3.98,3.33,4.71,2,5.11.44-.18,7.14,3.03-1.01,2.69.7,1.38,6.26-1.12,7.31-4.15,3.57-4.27.3s.08,3.83-.82,6.73-3.8,9.59-3.8,9.59l-.35,2.69.14,9.46-.14,2.17-3.75,3.66-4.31,2.02-5.5,3.3-3.45,2.51-5.13.47-3.35-1.98-4.86-2.7Z"/><polygon class="cls-7" points="627.79 310.77 612.27 320.14 603.66 326.15 597.18 331.27 592.29 332.05 590.03 342.68 590.03 353.48 592.29 359.63 599.41 358.29 610.26 357.82 620.15 360.22 634.31 361.82 648.49 360.14 660.04 356.37 664.45 353.48 670.73 350.51 676.47 345.51 678.03 342.98 677.2 340.89 678.03 335.72 680.29 332.05 679.21 328.66 674.51 336.08 669.08 338.84 664.79 339.51 658.6 339.51 653.75 337.25 649.58 332.91 649.77 338.49 644.64 342.82 639.68 340.01 635.53 338.33 629.31 329.29 629.31 321.36 627.79 310.77"/><polygon class="cls-7" points="767.49 394.93 767.72 395.15 772.44 399.7 776.24 405.84 777.37 413.31 778.15 420.67 777.02 425.89 775.23 428.87 765.37 432.53 757.13 436.63 753.28 438.82 747.18 440.01 742.18 439.72 737.81 438.62 732.29 439.64 728.03 438.92 726.39 435.45 724.31 434.09 724.25 431.62 726.26 427.56 723.96 427.12 723.01 424.8 725.27 418.27 729.3 414.35 725.27 414.57 727.38 404.96 730.77 401.25 735.74 398.08 741.24 395.77 745.84 392.88 752.35 391.45 760.74 392.23 767.49 394.93"/><path class="cls-22" d="M638.07,232.36l-2.06.59-1.41,3.75-.86,2.54-2.47,3.44v6.18l2.18,10.54,2.92,13.22.88,9.36-.31,9.84s-6.86,1.52-9.33,12.18,0,.23,0,.23c0,0-.79,2.47,1.19,3.75l-1,2.78s-.34,2.17.59,3.73,0,.27,0,.27c0,0-.37,3.93,1.12,6.24l.45,8.84,2.55,5.66,3.51,2.98,4.35,1.66,2.07,2.54,1.73.29,1.93-1.38,1.76-1.49,1.92-1.62-.19-5.58,3.82,3.97,4.92,2.22s2.73,1.1,8.87.41l6.06-2.44,2.75-2.51,2.77-4.91.45-.98.96,3.02-1.91,3.84-1.09,4.58.28,1.93-.09,2.02-3.72,4.17-8.85,4.55-3.69,2.98-9.04,3.54-13.03,2.19-3.88.28.74,60.39,19.65-4.83,15.87-1.57,15.78-1.47,11.15-.31,3.81-59.35.28-28.47s3.14-6.47,1.36-9.77c0,0,3.15-.46,2.95-3.47l-1.22-2.37s1.1,0,.61-3.66c0,0-.69-10.43-4.47-11.77l-1.06-2.02.42-4.39-1.98-12.49-1.96-15.57-1.69-10.99-2.82-7.2-4.08-6.48-1.65-.69-.29,5.01-3.28,4.57-6.08,3.02-6.75,4.18-1.45,1.17-4.85.11-4.07-2.51-5.72-2.84-5.54-.56-2.68-1.59-6.75-5.16-1.45-2.73.1-5.63Z"/><path class="cls-22" d="M596.21,330.18s-4.01-2.01-8.3.23-8.04,16.23-8.04,16.23l-1.34,13.58.61,11.54,1.71,6.78,11.44-4.78,13.82-6.17,3.48-4.68-.15-5.09h-9.9l-7.31,1.74-2.2-5.14-.5-6.83.5-7.21,1.53-6.48.97-2,3.07-.67.62-1.05Z"/><path class="cls-22" d="M778.15,419.62l3.05-1.9,1.74-3.49.34-4.34s-1.16-10.43-6.01-13.66-9.51-3.34-9.51-3.34l-3.12.15,2.6,2.04s1.3,1.08,2.57,2.2,2.41,2.18,3.71,4.71c2.59,5.06,4.07,12.59,4.07,12.59l.55,5.04Z"/><polygon class="cls-22" points="634.17 443.62 631.88 469.88 631.16 487.88 631.28 488.36 645.68 488.69 648.82 467.28 650.55 447.06 644.83 446.87 634.17 443.62"/><polygon class="cls-12" points="673.95 314.58 672.62 317.48 673.1 319.71 674.7 318.84 675.55 316.84 673.95 314.58"/><polygon class="cls-12" points="651.8 314.79 650.53 316.42 650.77 317.93 652.07 319.18 653.21 319.44 653.21 316.98 651.8 314.79"/><polygon class="cls-4" points="663.59 331.64 663.48 331.66 662.02 331.92 660.79 331.27 659.46 332.05 660.45 333.64 662.17 334.56 665.38 332.91 665.5 331.76 664.45 331.45 663.59 331.64"/><path class="cls-4" d="M654.38,300.7s-3.67,1.08-4.89-.84-.99-5.17-.2-6.25,2.16-4.41,3.62-4.2.79,3.33.79,3.33l-.73,3.99,1.42,3.96Z"/><path class="cls-4" d="M675.12,298.54s1.25,1.78,2.81,1.13,3.64-3.36,3.64-3.36c0,0,3.4-3.1,1.75-3.92s-5.09.56-5.09.56l-2.36,2.7-.75,2.9Z"/><polygon class="cls-18" points="682.31 246.13 677.96 247.39 672.21 250.67 669.71 253.3 663.99 253.3 660.34 250.84 651.64 247.33 647.08 247.28 645.15 248.4 645.67 250.4 646.91 252.01 647.33 255.83 646.69 260.25 647.01 264.42 649.24 265.65 653.78 265.65 658.39 264.39 662.38 261.35 664.02 260.44 666.64 261.26 669.76 260.81 672.99 263.09 676.87 265.26 683.11 266.06 685.52 265.04 685.9 262.41 684.75 255.95 685.12 253.41 686.9 248.18 685.35 246.13 682.31 246.13"/><polygon class="cls-23" points="653.98 222.29 672.99 222.07 671.78 226.48 668.45 230.49 664.57 231.45 659.47 230.38 656.59 227.52 654.42 223.99 653.98 222.29"/><polygon class="cls-12" points="648.22 197.66 646.63 198.98 646.63 201.47 647.78 202.79 649.24 202.42 649.79 200.09 649.29 198.38 648.34 197.75 648.22 197.66"/><polygon class="cls-12" points="678.43 198.38 676.95 200.62 677.87 203.25 679.59 203.32 680.49 201.87 680.02 199.4 678.43 198.38"/><path class="cls-2" d="M701.04,145.67s-11.08-.89-16.51-5.87-15.09-7.44-15.09-7.44c0,0-13.53-2.68-18.37,6.25"/><path class="cls-2" d="M643.56,141.28s-9.52-1.41-16.36,8.25c0,0-3.64,4.91-5.13,15.76,0,0,.07,5.87-2.83,8.18"/><path class="cls-2" d="M645.2,148.01s5.8.37,5.87,8.85"/><path class="cls-2" d="M661.87,157.9s-7.37.67-7.15,7.73"/><path class="cls-2" d="M659.25,165.63s7.44-9.07,13.38,3.72c5.95,12.79,13.76,15.91,13.76,15.91,0,0,2.9,1.41,7.73,1.26"/><path class="cls-2" d="M649.14,167.86s-8.03-3.12-9.29,13.98c0,0-.74,8.63-10.04,8.48"/><path class="cls-2" d="M622.52,177.08s-.37,12.79,3.27,16.58"/><path class="cls-2" d="M631.74,195.97s-7.38-8.18-9.23,4.39c-1.85,12.57,9.83,11.67,9.83,11.67"/><path class="cls-2" d="M693.09,194.41s7.58-7.58,7.96,4.98c.37,12.57-9.52,11.38-9.52,11.38"/><path class="cls-2" d="M696.73,199.61s-2.08,1.04-1.86,2.75"/><path class="cls-2" d="M627.32,201.47s2.71.23,3.38,3.35"/><path class="cls-2" d="M697.33,152.43s9.37,10.37,4.46,27.03l-3.42,12.68"/><path class="cls-2" d="M633.45,216.94s7.88,24.91,29.67,25.73c21.79.82,27.74-25.73,27.74-25.73"/><path class="cls-2" d="M686.56,227.77l.14,12.67s-2.09,4.22-5.32,5.45-11.77,5.47-11.38,7.42-.28,0-.28,0c0,0-3.01-.33-5.58.11,0,0-8.53-6.86-15.73-6.25,0,0-9.98-5.63-10.34-8.92v-11.76"/><path class="cls-2" d="M653.98,222.07h19.26s-1.34,9.67-9.29,9.37-9.96-9.37-9.96-9.37Z"/><path class="cls-2" d="M663.6,212.85s5.47-1.93,1.3-6.69c0,0-2.34-2.16.13-6.54"/><path class="cls-2" d="M673.23,190.32s5.35-5.36,11.82.52"/><path class="cls-2" d="M642.15,190.84s5.53-5.77,12.94-.52"/><path class="cls-2" d="M637.54,232.36s-3.16-.33-2.97,5.88c0,0-4.5-1.15-8.63,6.66l-22.72,7.58-33.31,8.77s-14.09,1.6-24.09,26.92-15.02,40.45-15.02,40.45c0,0-20.37,33.61-20.67,40.9s-5.35,18.74,9.52,26.92,38.07,5.65,38.07,5.65c0,0,33.02-5.06,34.95-9.07,0,0,7.73-1.49,9.96-23.94l-21.71,8.92"/><path class="cls-2" d="M526.78,349s10.56-7.73,26.47-8.18,35.1-10.41,35.1-10.41c0,0-12.72,9.96-9.22,38.37s13.53,24.24,13.53,24.24"/><path class="cls-2" d="M596.68,330.41c-.15,0-3.84-2.52-8.77,0"/><path class="cls-2" d="M592.29,359.63s9.96-4.24,21.79-.82,20.23,3.01,20.23,3.01c0,0,23.27-.63,30.49-9.03,0,0,10.34-3.12,13.24-9.82"/><path class="cls-2" d="M646.06,354.13s11.34.33,18.74-1.34"/><path class="cls-2" d="M646.32,347.22s25.69-1.45,31.71-5.17"/><path class="cls-2" d="M570.36,278.25s14.72,13.24,14.57,41.49"/><path class="cls-2" d="M574.37,404.96s1.58,36.88-1.07,45.81c-2.65,8.92-3.69,37.48-3.69,37.48h61.57s-.59-8.92.89-22.31,1.93-22.46,1.93-22.46"/><path class="cls-2" d="M729.13,414.81s-70.05-5.13-100.76,10.56c0,0-15.24,6.39-1.12,14.72s23.5,7.14,23.5,7.14c0,0-4.68,48.56-7.44,52.5s9.15,7.29,9.15,7.29c0,0,60.19,9.78,99.68-1.6,0,0,6.8-1.23,4.8-8.37-2.01-7.14-8.92-42.05-8.81-48.85,0,0,23.31-3.12,31.57-11.38,0,0,3.68-5.69-3.12-10.26"/><line class="cls-2" x1="747.46" y1="440.28" x2="748.13" y2="448.19"/><path class="cls-2" d="M650.76,446.6l.16-2.86.39-6.81s-.56-3.57,13.94-6.02c14.5-2.45,49.41-4.13,60.01-1.56"/><path class="cls-2" d="M650.76,442.62s53.54-11.82,97.04,1"/><polyline class="cls-2" points="754.49 488.24 760.4 488.24 755.24 446.92"/><path class="cls-2" d="M767.76,395.1s-10.82-7.14-23.2-1.45c0,0-3.9,3.01-10.6,5.47s-8.7,14.28-8.7,14.28v1.18"/><path class="cls-2" d="M747.46,395.77s-22.35,21.03-24.09,26.99,3.46,4.8,3.46,4.8c0,0-6.47,6.92.22,8.03,0,0-2.25,5.58,8.19,3.68,10.44-1.9,29.85-16.06,32.52-15.17"/><path class="cls-2" d="M761.18,415.29s-18.29,16.4-34.13,20.3"/><path class="cls-2" d="M755.38,404.96s-20.97,20.04-28.55,22.61"/><path class="cls-2" d="M737.53,438.71s12.38,4.13,19.91-2.33c0,0,8.09-4.35,15.67-6.92,2.92-.99,4.24-3.51,4.75-6.23.2-1.04.28-2.11.28-3.13.02-3.26-.68-6.08-.68-6.08,0,0-1.23-10.65-5.47-14.78"/><path class="cls-2" d="M763.76,393.17s14.38-3.09,18.39,10.96c4.02,14.05-4.01,15.48-4.01,15.48"/><path class="cls-2" d="M776.24,368s-8.14-1.56-17.29,15.28c0,0-3.47,7.03-6.92,8.31"/><path class="cls-2" d="M761.18,300.41s-2.79,43.95-4.91,48.07-6.14,43.39-6.14,43.39"/><path class="cls-2" d="M777.93,422.86s11.82-2.45,18.21-18.22c6.39-15.76,5.28-20.89,5.28-20.89,0,0-.22-14.5-9.96-28.48s-14.05-45.81-14.05-45.81c0,0-7.44-23.5-12.27-30.71-4.83-7.21-2.97-12.12-25.06-17.18-22.08-5.06-41.64-13.38-41.79-15.69s-5.95-7.03-8.55-7.64c0,0-.18-2.32-3.18-3.44"/><line class="cls-2" x1="635.16" y1="361.79" x2="635.9" y2="422.18"/><path class="cls-2" d="M619.68,360.22s16.45,34.97,16.22,38.98"/><path class="cls-2" d="M609.44,357.82s1.76,7.73-6.81,11.25"/><path class="cls-2" d="M634.57,238.24s-3.43,4-3.8,5.56,1.56,10.04,4.61,23.57c.46,2.03.81,4,1.09,5.89.08.53.15,1.05.21,1.57,1.23,9.87.26,17,.26,17"/><path class="cls-2" d="M610.93,321.01l.63-.41s-7.48-24.23-6.74-32.48c0,0,14.2,1.39,18.22-2.02s10.85-12.58,13.64-11.27"/><path class="cls-2" d="M625.94,244.9s-7.07,14-16.07,18.83-7.66,7.96-7.66,7.96c0,0,19.55,9.8,19.77,15.09"/><path class="cls-2" d="M689.73,238.24s5.73,5.93,6.92,18.27c1.19,12.34,5.35,33.31,3.79,37.33"/><path class="cls-2" d="M698.28,245.88s5.43,12.05,14.28,17.25,10.78,8.77,10.78,8.77c0,0,1.56,1.34-2.68,3.87-4.24,2.53-10.63,8.45-10.26,10.32"/><path class="cls-2" d="M699.07,274.7s11.78,13.49,15.94,14.6,11.9-4.68,11.9-4.68c0,0,4.31-2.23,3.2,3.35s-9.07,22.23-11.82,43.87c-2.75,21.64-11.08,59.56-18.37,62.83"/><path class="cls-2" d="M698.36,414.01s6.25-83.06,4.09-87.82"/><line class="cls-2" x1="666.68" y1="383.15" x2="667" y2="415.78"/><path class="cls-2" d="M631.27,242.69s9.44,25.34,15.97,25.5c0,0,1.17.53,4.41-2.36"/><path class="cls-2" d="M693.5,244.31s-3.77,15.24-7.56,18.47c0,0,.67,3.38-2.84,3.05l-2.79,2.39s-1.34,1.86-4.29-1.1l-2.51-3.62"/><path class="cls-2" d="M681.7,246.33s5.3-2.06,4.85,2.68c0,0-2.85,5.12-1.9,7.55s1.28,6.22,1.28,6.22"/><path class="cls-2" d="M669.85,253.68s1.93,2.3.48,6.14-6.3.61-6.3.61c0,0-2.01-3.35.11-7.03"/><path class="cls-2" d="M663.6,260.1s-6.33,7.75-15.92,4.94c0,0-1.84-1.49-.61-7.48s-1.51-7.22-1.51-7.22c0,0-1.93-3.38,2.58-3.33"/><path class="cls-2" d="M669.87,260.68s4.37,5.73,12.98,5.37"/><line class="cls-2" x1="666.36" y1="261.5" x2="666.36" y2="280.89"/><path class="cls-2" d="M659.77,339.48s-4.87-.55-8.65-4.56c-2.45-2.6-4.45-6.67-4.36-12.99"/><path class="cls-2" d="M629.5,321.01s-2.53,16.76,10.86,19.14c0,0,1.86,3.65,3.79,2.83,0,0,1.86-.34,1.64-2.08,0,0,2.19.86,2.31-1.64,0,0,2.45-.15,1.86-2.23l-.63-3.79-.2-1"/><path class="cls-2" d="M664.45,339.48s11.08,1.23,14.76-11.19"/><path class="cls-2" d="M695.79,330.04s-6.73,6.06-10.11,11.75c0,0-.48,1.45-2.12,1.52,0,0-2.04,1.9-3.23-.33,0,0-3.12.74-3.12-2.08,0,0-.59-3.85,3.09-8.84l-1.08-3.39"/><path class="cls-2" d="M659.51,332.49s2.68,4.65,6.21,0c0,0-.04-2.08-2.45-.67,0,0-.82.89-1.75-.04s-2.34-.56-2.01.71Z"/><path class="cls-2" d="M631.7,311.6s-3.78,1.44-3.26,5.81"/><path class="cls-2" d="M631.88,305.57s-3.82.78-3.45,4.84c0,0-18.66,10.56-25.43,16.28-1.88,1.59-3.52,2.69-4.9,3.43-.52.28-1,.51-1.44.7-.38.16-.74.3-1.06.41-1.93.65-2.93.44-2.93.44,0,0-11.75,33.24,10.26,32.87"/><path class="cls-2" d="M644.41,290.18s-13.42-1.04-16.81,13.83"/><path class="cls-2" d="M657.35,298.92s.56-11.67-.56-13.98-3.64-1.93-4.57-.74-5.69,5.84-5.58,10.82c.11,4.98,1.08,6.95,1.08,6.95"/><path class="cls-2" d="M654.38,300.4s-2.46-3.35-.52-8.07"/><path class="cls-2" d="M662.37,287.35s-2.98-3.25-5.8-2.82"/><path class="cls-2" d="M665.64,287.84s.89-2.96-2.86-4.59"/><path class="cls-2" d="M668.73,288.25s9.67-5.94,18.14-2.15"/><path class="cls-2" d="M689.58,287.84s-.45-2.57,2.49-2.57"/><path class="cls-2" d="M693.08,288.25s2.04-1.15,4.68,0"/><path class="cls-2" d="M697.21,290.81s9.15,6.06,8.96,17.18"/><path class="cls-2" d="M703.42,309.48s2.19-.59,3.35,3.9"/><path class="cls-2" d="M703.16,314.16s4.16,10.11-4.28,15.02"/><path class="cls-2" d="M696.24,334.16s2.97,7.92.19,13.83"/><path class="cls-2" d="M695.79,352.41s3.42,1.28,3.09,5.4"/><path class="cls-2" d="M694.6,358.29s2.19.74,1.9,5.54"/><path class="cls-2" d="M692.78,362.16s2.49,9.29-5.58,12.42"/><path class="cls-2" d="M682,373.24s-.22,2.34,1.9,4.02,9.33,4.76,8.77,10.15-3.68,3.76-3.68,3.76c0,0,.04,3.46-5.06,1.12,0,0-3.42,4.8-8.4-1.34,0,0-1.75-5.17-5.17-9s-3.01-6.36-3.01-6.36c0,0,2.31-8.81,1.52-11.23"/><path class="cls-2" d="M662.07,370.67s1.78,3.79.67,7.29"/><path class="cls-2" d="M660.32,377.74s-2.23,7.29-2.38,11.08c-.15,3.79-6.43,6.62-6.43,6.62,0,0-4.28,1.97-6.06-.67,0,0-5.43,1.19-4.94-3.98,0,0-3.53-.67-.33-6.21,0,0,7.03-5.09,6.73-6.84"/><path class="cls-2" d="M643.04,370.3s-1.19,3.12,1.38,5.8"/><path class="cls-2" d="M638.83,363.87s-2.6,4.54,1.26,8.4"/><path class="cls-2" d="M646.38,384.62s-5.8,3.94-5.87,6.17"/><path class="cls-2" d="M649.13,387.33s-4.98,5.02-3.68,7.44"/><path class="cls-2" d="M682.04,385.47s2.9,2.53,1.9,6.8"/><path class="cls-2" d="M687.21,384.39s2.53,3.35,1.78,6.77"/><path class="cls-2" d="M681,337.25s-1.64,3.24-.67,5.73"/><path class="cls-2" d="M683.6,339.11s-.56,2.27-.04,4.2"/><path class="cls-2" d="M645.53,332.91s3.2,3.22,2.57,6.35"/><path class="cls-2" d="M643.48,336.08s2.53,2.58,2.31,4.81"/><path class="cls-2" d="M680.85,300.4s5.17-7.56,6.25-7.8,1.67-3.58-3.49-3.4-12.23,4.13-12.86,8.33"/><path class="cls-2" d="M674.97,298.88s-.19-6.15,8.88-9.67"/><path class="cls-2" d="M673.1,319.71s3.34-.7,1.88-4.02-3.36,3.32-1.88,4.02Z"/><path class="cls-2" d="M651.04,315.69c1.46-3.32,3.36,3.32,1.88,4.02,0,0-3.34-.7-1.88-4.02"/><ellipse class="cls-2" cx="678.78" cy="200.99" rx="1.83" ry="2.61"/><ellipse class="cls-2" cx="648.22" cy="200.26" rx="1.83" ry="2.61"/><path class="cls-18" d="M769.3,202.66s-.42,18.83-13.64,20.48c0,0,13.96,3.11,14.29,27.16,0,0,1.39-26.59,13-26.74,0,0-13.49-1.31-13.64-20.9Z"/><path class="cls-18" d="M580.65,104.4s-1.01,10.11-5.57,10.06c0,0,5.29,1.84,5.44,11.79,0,0,.4-11.27,4.4-11.44,0,0-4.46-2.31-4.28-10.4Z"/><path class="cls-18" d="M567.64,118.89s-1.72,14.37-9.48,14.29c0,0,9.01,2.62,9.27,16.74,0,0,.68-16.01,7.5-16.25,0,0-7.6-3.28-7.29-14.78Z"/><circle class="cls-18" cx="200.8" cy="199.27" r="165.1"/><rect class="cls-18" x="35.7" y="199.27" width="330.2" height="286.99"/><polygon class="cls-14" points="146.39 287.26 149.08 288.34 150.6 290.38 150.22 292.46 104.08 343.38 101.8 340.29 99.16 339.05 146.39 287.26"/><polygon class="cls-10" points="99.16 339.33 101.8 340.29 103.36 342.4 103.36 343.83 96.88 351.34 94.5 350.27 93.11 348.84 92.07 346.97 99.16 339.33"/><polygon class="cls-14" points="152.35 443.85 144.86 398.78 144.86 387.59 161.49 380.42 158.98 374.78 144.91 369.8 129.91 368.42 119.12 368.93 104.71 369.91 90.44 372.08 73.16 376 63.23 379.19 52.16 384.54 44.77 388.87 41.79 391.78 42.23 398.01 47.66 401.8 55.58 404.27 61.1 405.7 69.12 457.25 77 460.6 86.32 461.93 97.7 462.54 108.47 461.94 117.17 460.76 127.46 458.48 137.39 455 144.57 451.22 149.83 447.15 152.35 443.85"/><polygon class="cls-9" points="42 394.77 42.44 398.16 48.07 401.98 53.9 403.75 62.81 405.94 72.05 405.94 82.6 405.94 93.2 405.21 103.1 404.25 113.22 402.58 122.05 400.55 131.67 397.75 132.33 394.29 125.22 396.45 116.81 398.42 108.28 399.73 98.5 400.99 88.38 401.84 78.44 402.43 69.43 402.43 59.86 401.26 52.98 400.17 45.93 397.47 42.27 394.51 42 394.77"/><polygon class="cls-9" points="107.03 375.75 95.16 377.22 81.98 379.46 69.71 382.7 62.47 386.12 58.88 388.93 58.07 390.97 59.31 392.51 63.08 393.31 71.61 394 93.69 393.8 106.2 392.51 119.39 389.23 131.97 384.76 139.9 380.79 142.98 378.64 142.05 377.11 139.43 375.3 128.99 375.02 117.57 374.92 107.03 375.75"/><polygon class="cls-26" points="61.05 405.21 63.54 421.37 80.36 423.74 97.52 423.74 112.32 421.75 126.24 418.1 137.81 413.41 145.91 408.2 144.86 395.63 139.05 394.83 129.21 398.77 109.72 403.29 89.39 405.44 76.38 405.91 61.05 405.21"/><polygon class="cls-11" points="194.87 391.95 179.57 379.22 172.82 375.23 165.46 374.28 159.67 375.19 157.16 376.38 151.09 376.49 145.68 376.93 145.02 378.68 145.02 380.1 146.94 381.57 149.23 382.88 152.89 383.59 147.92 386.22 140.54 390.32 133.82 394.2 132.18 396.33 131.67 398.29 132.78 399.44 136.83 398.95 144.64 396.76 144.97 398.24 147.59 400.03 151.64 400.03 153.02 402.51 155.52 404.74 157.54 405.76 158.81 408.39 161.62 410.37 165.02 411.28 169.46 411.18 174.25 409.94 177.1 408.82 179.84 408.2 183.8 409.19 194.87 391.95"/><path class="cls-11" d="M260.79,313.68l-1.11-7.24-4.22,1.02-4.98.18-3.51-1.19-6.91-4.41-4.32-4.24-4.15-5.72-3.49-5.49-1.02-2.38-.23-2.12-.43-11.7-.32-4.62s.35-3.12-2.87-12.42,0-20.01,0-20.01l5.68-13.64,15.03-1.54,16.85,7.09,4.46,12.02,15.05,4.15,12.88,8.56,10.52,5.54-.96,14.54-8.2,5.03.56,4.81,2.4,19.02-36.72,14.78Z"/><polygon class="cls-11" points="189.35 288.36 187.59 286.3 181.36 281.48 167.26 277.9 161.92 277.03 154.32 277.59 147.59 280.64 142.84 283.6 139.04 285.13 135.48 289.98 132.64 296.48 131.32 299.51 132.45 301.37 146.88 287.26 150.81 290.76 149.29 293.38 140.75 303.17 144.64 306.75 147.36 307.37 149.29 305.52 149.45 303.22 152.83 305.16 155.51 304.04 155.51 300.27 156.23 299.34 166.94 299.29 173.88 297.78 173.61 299.49 177.32 301.37 187.32 299.29 190.66 291.02 189.35 288.36"/><polygon class="cls-13" points="202.9 485.45 308.85 486.83 287.92 343.08 262.94 318.56 204.9 344.05 202.75 334.66 199.06 321.89 195.72 311.45 194.34 308.3 194.7 301.76 193.28 294.13 192.03 290.11 190.58 288.49 189.11 288.34 189.11 291.11 188.09 295.49 186.25 297.52 183.46 299.78 178.82 300.86 175.14 300.72 173.39 299.31 172.46 301.74 172.23 305.53 172.52 313.16 173.61 325.17 174.01 337.6 174.64 349.15 177.32 360.08 180.42 366.82 183.7 369.77 187.85 371.48 194.99 371.81 200.68 371.19 205.08 371.01 213.97 371.48 217.51 372.83 214.7 381.79 211.29 389.51 209.6 397.57 200.31 391.95 196.63 390.83 193.5 391.13 190.96 393.74 187.34 399.19 184.22 405.44 183.33 413.37 203.01 429.55 202.13 438.69 201.66 449.19 201.62 459.94 201.62 470.14 202.35 481 202.9 485.45"/><path class="cls-5" d="M277.48,197.18l4.49,1.17,10.98,2.75,7.16,3.95,7.37,6.64,4.48,7.21,1.75,5.92.72,7.49-.13,7.52-.63,6.11-2.07,9.25-4.12,10.56-2.71,4.31-2.05,3.84-3.33,2.95-4.12,3.2-1.26-6.15,6.01-2.9,2.33-4.23.24-4.41-1.56-4.99-2.76-3.17-2.85-1.21-3.35.33-2.64,1.54-3.11-5.25h-7.21l-2.87-2.13-.79-1.28-2.09-4.22-5.33-1.23-4.47-2.2-4.7-4.69-2.35-4.38-2.38-3.93-2.41-2.69-3.65-2.23-3.33.34s-3.3.09-5.12-.78c0,0-4.19,2-6.25,1.44s-4.69,1.24-4.69,1.24l-2.1,3.87-.92,5.33-.71,7.21-3.16,6.06-4.39,1.88s-2.87-5.25-3.15-7,.49-10.11.49-10.11l2.25-8.7,1.45-3.29,3.08-3.74,4.52-4.52,6.08-4.81,7.91-4.52,4.7-1.92,7.18-1.99,7.66-1.02h7.63l7.75.6,2.5.95Z"/><polygon class="cls-23" points="238.67 284.05 247.26 283.42 256.6 281.74 257.14 282.28 255.46 288.49 252.42 292.02 248.69 293.7 245.28 293.7 242.34 292.4 240.06 289.72 238.67 287.02 238.67 284.05"/><path class="cls-3" d="M240.1,328.97l-35.19,15.08s-1.35-9.33-10.2-35.67c0,0,1.31-7.65-3.06-19.35,0,0-2.08-1.42-3.5-.66,0,0,1.2-8.2-24.48-10.93,0,0-6.89-2.73-16.4,3.39s-7.1,3.72-7.1,3.72c0,0-3.17.44-6.34,9.4l-1.75,3.72s-2.19,2.51.87,3.61l-40.88,45.69s1.31,3.72,4.81,4.37l43.72-48.31,4.04,3.72s2.08,1.75,3.83-.11.77-3.39.77-3.39c0,0,3.17,2.19,4.59,2.08s2.3-2.4,1.75-5.36l10.51-.87s4.79-.33,7.52-1.31l-.22,1.53s-2.3-.11-.44,18.8-.98,25.69,4.7,42.95c5.68,17.27,19.75,8.06,36.38,10.53l1.11,8.81s-5.67,10.57-5.36,17.6l-11.8-7s-2.62-1.2-4.48.11c0,0-16.83-16.29-22.52-16.29,0,0-5.79-1.53-11.59.44,0,0-11.7-11.59-59.68-4.7-47.98,6.89-57.93,21.2-57.93,21.2l.44,6.23s3.28,5.22,18.8,7.2l8.09,52.04s14.54,8.53,45.36,3.93c30.82-4.59,37.93-17.05,37.93-17.05,0,0-7.65-38.47-7.54-45.36,0,0,2.73,1.75,7.32,1.09,0,0,.11,4.24,4.7,5.34,0,0,1.75,6.57,10.6,6.13s7.76-4.15,15.85-2.4l-.22,4.7,19.67,15.63s-3.06,34.65.11,56.18l104.6,1.73-26.01-171.15-41.39,12.93Z"/><path class="cls-3" d="M274.9,346.86s-8.83,19.89-11.23,51.7c0,0-.87,19.46-5.36,22.73"/><path class="cls-3" d="M272.09,434.63s-7-13.01-42.3-25.36l-20-11.26"/><path class="cls-3" d="M299.19,445.12s-4.81,25.36-21.09,23.94-31.59-9.29-31.59-9.29c0,0-34.65-20.55-43.72-30.49"/><path class="cls-3" d="M211.37,401.73s-7.26,5.03-9.51,23.28"/><path class="cls-3" d="M201.04,353.31s3.46-2.22,3.86-9.25"/><path class="cls-3" d="M175.14,313.2s11.59,4.48,18.91-4.59"/><path class="cls-3" d="M193.5,391.13s-9.07,9.62-10.16,17.82"/><path class="cls-3" d="M174.88,300.68s14.81,2.43,14.21-11.01"/><path class="cls-3" d="M179.61,293.83s-1.89,2.04-6,3.96"/><path class="cls-3" d="M168.7,285.39s-6.16,2.11-10.09,5.43c0,0-2.81,1.97-5.94,2.62s-5.79,1.87-7.43,4.34.91,3.46.91,3.46c0,0,4.23.62,6.19-.84s5.94-1.17,5.94-1.17l6.56-.22,2.37-.02"/><path class="cls-3" d="M140.79,302.81l10.02-11.11s.02-2.15-1.73-3.5c-.66-.51-1.57-.9-2.83-1.02l-13.31,14.1"/><path class="cls-3" d="M161.23,288.49s-4.26-3.62-8.34-2.81c0,0-2.07.88-3.8,2.52"/><path class="cls-3" d="M150.81,290.06s2.77-.69,4.7,2"/><path class="cls-3" d="M99.4,339.33s3.05.14,4.44,3.74"/><path class="cls-3" d="M63.51,421.17s47.89,11.16,82.4-12.96"/><path class="cls-3" d="M60.72,405.21s36.87,4.17,70.61-7.47"/><path class="cls-3" d="M159.09,375.02s-1.48,1.51-11.76,1.67c0,0-4.59.87-1.15,4.48s10.55.84,10.55.84l8.53-3.36"/><path class="cls-3" d="M153.51,383.03c-.38.28-16.56,8.97-16.56,8.97,0,0-5.03,2.77-5.52,4.34s.82,2.99.82,2.99c0,0,1.48,1.31,7.16-.87s12.68-5.19,12.68-5.19c0,0,5.9-2.39,9.4-2.12"/><path class="cls-3" d="M160.4,398.88s-3.86-.69-8.22.99"/><path class="cls-3" d="M160.07,406.09s-1.95-1.15-3.19-.88"/><path class="cls-3" d="M41.95,394.01s4.78,10.67,44.35,7.98,49.77-9.48,49.77-9.48"/><path class="cls-3" d="M142.69,379.02s-27.76,20.46-82.08,14.01c0,0-8.31-1.97,5.03-8.63,13.33-6.67,49.19-9.38,49.19-9.38,0,0,11.7-.52,20.33,0s7.54,4,7.54,4Z"/><line class="cls-3" x1="295.11" y1="278.59" x2="297.52" y2="297.56"/><path class="cls-3" d="M299.41,276.85s18.91-17.49,14.32-52.03c0,0-1.42-15.19-20.77-23.72"/><path class="cls-3" d="M284.76,192.79s3.46,2.95,3.15,6.89"/><path class="cls-3" d="M281.16,198.26s-36.07-13.55-62.52,19.56c0,0-5.47,9.51-4.15,22.95"/><path class="cls-3" d="M217.44,246.9s7.43,0,8.2-13.99,7.76-11.26,7.76-11.26"/><path class="cls-3" d="M243.34,212.58s-5.14,1.86-3.93,7.1"/><path class="cls-3" d="M244.76,220.99s6.45-3.17,12.46,9.95c6.01,13.12,20.88,10.93,20.88,10.93"/><path class="cls-3" d="M275.47,246.9s4.26,3.83,10.38,2.95"/><path class="cls-3" d="M289.46,254.87s10.16-6.12,12.9,6.01c2.73,12.13-10.16,13.01-10.16,13.01"/><path class="cls-3" d="M295.11,260.89s-2.26,2.19-2.15,4.48"/><path class="cls-3" d="M260.79,244.71s-3.9-2.4-9.8,0"/><path class="cls-3" d="M232.85,246.9s-5.36-.98-7.87,2.19"/><path class="cls-3" d="M242.14,259.57s1.86,3.5,1.2,7.1-3.28,4.37-3.28,4.37c0,0,.11,3.17,3.28,4.7"/><path class="cls-3" d="M223.23,254.55s-.88-6.56-1.53-9.84"/><path class="cls-3" d="M226.07,265.37s.98,12.57.77,17.27,11.8,18.22,11.8,18.22c0,0,7.82,6.92,13.25,6.92s12.98-2.84,12.98-2.84c0,0,12.46-6.12,14.97-10.6"/><path class="cls-3" d="M238.31,284.06s12.24-.33,18.91-2.51c0,0-.77,11.56-9.45,12.28-8.69.72-9.45-9.77-9.45-9.77Z"/><ellipse class="cls-24" cx="257.62" cy="259.32" rx="3.38" ry="3.95"/><ellipse class="cls-24" cx="232.85" cy="261.52" rx="3.28" ry="3.84"/><line class="cls-3" x1="260.11" y1="306.44" x2="260.34" y2="314.49"/><path class="cls-17" d="M364.46,486.45s-23.17-35.41-31.04-113.24c0,0-.44-46.34-24.48-61.21l-6.85-15.3s-16.46,3.72-21.76,8.11c-.25.21-.48.42-.68.64,0,0,.15-4.66-4.74-2.84-4.88,1.82-14.94,11.88-14.94,11.88,0,0-2.99-1.17-5.03,0,0,0-7.43-6.41-13.48-7.21s-5.25,10.78-5.25,10.78c0,0-1.24,11.08,2.62,12.97,0,0,.73,3.06,13.63-6.19,0,0-38.11,33.48-41.1,55.58h5.76s.66-17.03,36.21-51.06c0,0-2.62,9.33-8.09,17.71-5.47,8.38-13.63,27.76-7.94,42.7,0,0,4.81.15,6.12-1.6,0,0-5.47-16.47,5.39-34.17,10.86-17.71,10.2-28.64,10.2-28.64l1.31-1.17s19.02,7,23.68,40c4.66,33.01,18.11,105.22,18.11,105.22,0,0,2.73,15.41,4.81,17.05s57.53,0,57.53,0Z"/><path class="cls-3" d="M364.46,486.45s-23.17-35.41-31.04-113.24c0,0-.44-46.34-24.48-61.21l-6.85-15.3s-16.46,3.72-21.76,8.11c-.25.21-.48.42-.68.64,0,0,.15-4.66-4.74-2.84-4.88,1.82-14.94,11.88-14.94,11.88,0,0-2.99-1.17-5.03,0,0,0-7.43-6.41-13.48-7.21s-5.25,10.78-5.25,10.78c0,0-1.24,11.08,2.62,12.97,0,0,.73,3.06,13.63-6.19,0,0-38.11,33.48-41.1,55.58h5.76s.66-17.03,36.21-51.06c0,0-2.62,9.33-8.09,17.71-5.47,8.38-13.63,27.76-7.94,42.7,0,0,4.81.15,6.12-1.6,0,0-5.47-16.47,5.39-34.17,10.86-17.71,10.2-28.64,10.2-28.64l1.31-1.17s19.02,7,23.68,40c4.66,33.01,18.11,105.22,18.11,105.22,0,0,2.73,15.41,4.81,17.05s57.53,0,57.53,0Z"/><path class="cls-3" d="M269.5,330.37s5.79,2.57,7.81-.71,4.21-12.9,2.19-23.88"/><path class="cls-3" d="M260.76,316.49s1.35,4.23-.42,7.69"/><path class="cls-3" d="M254.94,314.49s-2.11-.18-2.93,5.23,2.93,6.28,2.93,6.28c0,0,2.64.44,4.09-.33"/><path class="cls-3" d="M306.06,311.52s-18.72.93-25.76,7.76"/><path class="cls-20" d="M111.36,118.95s-.42,18.83-13.64,20.48c0,0,13.96,3.11,14.29,27.16,0,0,1.39-26.59,13-26.74,0,0-13.49-1.31-13.64-20.9Z"/><path class="cls-20" d="M345.05,254.08s-1.01,10.11-5.57,10.06c0,0,5.29,1.84,5.44,11.79,0,0,.4-11.27,4.4-11.44,0,0-4.46-2.31-4.28-10.4Z"/><path class="cls-20" d="M332.03,268.58s-1.72,14.37-9.48,14.29c0,0,9.01,2.62,9.27,16.74,0,0,.68-16.01,7.5-16.25,0,0-7.6-3.28-7.29-14.78Z"/><path class="cls-20" d="M69.07,340.34s-1.01,10.11-5.57,10.06c0,0,5.29,1.84,5.44,11.79,0,0,.4-11.27,4.4-11.44,0,0-4.46-2.31-4.28-10.4Z"/><path class="cls-20" d="M83.71,324.76s-1.61,12.27-8.89,12.2c0,0,8.45,2.24,8.69,14.3,0,0,.63-13.67,7.03-13.88,0,0-7.13-2.8-6.84-12.62Z"/><path class="cls-20" d="M70.5,317.52s-.67,6.71-3.72,6.67c0,0,3.53,1.22,3.63,7.82,0,0,.27-7.48,2.94-7.59,0,0-2.98-1.53-2.86-6.9Z"/></svg>