<?xml version="1.0" encoding="UTF-8"?><svg id="pige" xmlns="http://www.w3.org/2000/svg" width="69.08" height="78.98" viewBox="0 0 69.08 78.98"><defs><style>.cls-1{fill:#ffc865;}.cls-2{fill:#ffebae;}</style></defs><path class="cls-2" d="M30.34,24.06s11.38,11.43,22.76,0c0,0-10.38,12.31,0,22.86,0,0-10.38-10.55-22.76-1.28,0,0,10.01-9.4,0-21.58Z"/><path class="cls-1" d="M41.72,14.14s-.42,18.83-13.64,20.48c0,0,13.96,3.11,14.29,27.16,0,0,1.39-26.59,13-26.74,0,0-13.49-1.31-13.64-20.9Z"/><path class="cls-2" d="M61.17,48.76s-1.25,12.18-6.92,12.11c0,0,6.58,2.22,6.77,14.2,0,0,.49-13.57,5.48-13.78,0,0-5.55-2.78-5.32-12.53Z"/><path class="cls-1" d="M12.58,16.12s-1.01,10.11-5.57,10.06c0,0,5.29,1.84,5.44,11.79,0,0,.4-11.27,4.4-11.44,0,0-4.46-2.31-4.28-10.4Z"/></svg>