<?xml version="1.0" encoding="UTF-8"?><svg id="pige" xmlns="http://www.w3.org/2000/svg" width="42.67" height="49.27" viewBox="0 0 42.67 49.27"><defs><style>.cls-1{fill:#ffc865;}.cls-2{fill:#ffebae;}</style></defs><path class="cls-1" d="M28.3,4.42s-1.01,10.11-5.57,10.06c0,0,5.29,1.84,5.44,11.79,0,0,.4-11.27,4.4-11.44,0,0-4.46-2.31-4.28-10.4Z"/><path class="cls-2" d="M15.37,15.34s-1.72,14.37-9.48,14.29c0,0,9.01,2.62,9.27,16.74,0,0,.68-16.01,7.5-16.25,0,0-7.6-3.28-7.29-14.78Z"/><path class="cls-1" d="M33.75,25.7s-.79,8.73-4.36,8.68c0,0,4.15,1.59,4.27,10.17,0,0,.31-9.72,3.45-9.87,0,0-3.5-1.99-3.36-8.98Z"/></svg>