<?xml version="1.0" encoding="UTF-8"?><svg id="pige" xmlns="http://www.w3.org/2000/svg" width="70.86" height="94.48" viewBox="0 0 70.86 94.48"><defs><style>.cls-1{fill:#ffc865;}.cls-2{fill:#ffebae;}</style></defs><path class="cls-1" d="M24.42,35.18s11.38,11.43,22.76,0c0,0-10.38,12.31,0,22.86,0,0-10.38-10.55-22.76-1.28,0,0,10.01-9.4,0-21.58Z"/><path class="cls-2" d="M35.8,25.26s-.42,18.83-13.64,20.48c0,0,13.96,3.11,14.29,27.16,0,0,1.39-26.59,13-26.74,0,0-13.49-1.31-13.64-20.9Z"/><path class="cls-1" d="M17.39,63.41s-1.36,12.84-7.52,12.77c0,0,7.15,2.34,7.36,14.96,0,0,.54-14.3,5.95-14.52,0,0-6.03-2.93-5.79-13.21Z"/><path class="cls-2" d="M59.76,9.77s-1.01,10.11-5.57,10.06c0,0,5.29,1.84,5.44,11.79,0,0,.4-11.27,4.4-11.44,0,0-4.46-2.31-4.28-10.4Z"/></svg>